<?xml version="1.0" encoding="UTF-8" standalone="no"?>
<!-- Created with Inkscape (http://www.inkscape.org/) -->
<svg
   xmlns:svg="http://www.w3.org/2000/svg"
   xmlns="http://www.w3.org/2000/svg"
   xmlns:xlink="http://www.w3.org/1999/xlink"
   version="1.0"
   width="24"
   height="24"
   id="svg2">
  <defs
     id="defs4">
    <linearGradient
       id="linearGradient6209">
      <stop
         id="stop6211"
         style="stop-color:#96979b;stop-opacity:1"
         offset="0" />
      <stop
         id="stop6213"
         style="stop-color:#000000;stop-opacity:0.34117648"
         offset="1" />
    </linearGradient>
    <linearGradient
       x1="173.09576"
       y1="75.31868"
       x2="173.09576"
       y2="11.949074"
       id="linearGradient2659"
       xlink:href="#linearGradient6209"
       gradientUnits="userSpaceOnUse"
       gradientTransform="matrix(0.9523505,0,0,0.9523505,-117.1021,-1.9494324)" />
    <linearGradient
       id="linearGradient11104">
      <stop
         id="stop11106"
         style="stop-color:#333333;stop-opacity:1"
         offset="0" />
      <stop
         id="stop11108"
         style="stop-color:#333333;stop-opacity:0.6122449"
         offset="1" />
    </linearGradient>
    <linearGradient
       x1="41.541653"
       y1="68.291702"
       x2="41.485142"
       y2="4.5362983"
       id="linearGradient2657"
       xlink:href="#linearGradient11104"
       gradientUnits="userSpaceOnUse"
       gradientTransform="matrix(0.1323262,0,0,0.1375548,7.6676761,7.6826166)" />
    <linearGradient
       id="linearGradient2300">
      <stop
         id="stop2302"
         style="stop-color:#343435;stop-opacity:0.97647059"
         offset="0" />
      <stop
         id="stop2304"
         style="stop-color:#919295;stop-opacity:1"
         offset="1" />
    </linearGradient>
    <linearGradient
       x1="173.09576"
       y1="75.31868"
       x2="173.09576"
       y2="11.949074"
       id="linearGradient2655"
       xlink:href="#linearGradient2300"
       gradientUnits="userSpaceOnUse"
       gradientTransform="matrix(0.1323262,0,0,0.1375548,-9.496509,6.6473925)" />
    <linearGradient
       id="linearGradient4467">
      <stop
         id="stop4469"
         style="stop-color:#ffffff;stop-opacity:1"
         offset="0" />
      <stop
         id="stop4471"
         style="stop-color:#ffffff;stop-opacity:0.24761905"
         offset="1" />
    </linearGradient>
    <radialGradient
       cx="15.414371"
       cy="13.078408"
       r="6.65625"
       fx="15.414371"
       fy="13.078408"
       id="radialGradient2653"
       xlink:href="#linearGradient4467"
       gradientUnits="userSpaceOnUse"
       gradientTransform="matrix(1.0064485,0,0,0.8130167,-3.3276971,-0.5826922)" />
    <linearGradient
       id="linearGradient4454">
      <stop
         id="stop4456"
         style="stop-color:#a1a1a1;stop-opacity:0.20784314"
         offset="0" />
      <stop
         id="stop4458"
         style="stop-color:#a1a1a1;stop-opacity:0.67843139"
         offset="1" />
    </linearGradient>
    <radialGradient
       cx="18.240929"
       cy="21.817987"
       r="8.3085051"
       fx="18.240929"
       fy="21.817987"
       id="radialGradient2651"
       xlink:href="#linearGradient4454"
       gradientUnits="userSpaceOnUse" />
    <linearGradient
       id="linearGradient11114">
      <stop
         id="stop11116"
         style="stop-color:#242424;stop-opacity:0.99215686"
         offset="0" />
      <stop
         id="stop11118"
         style="stop-color:#656565;stop-opacity:1"
         offset="1" />
    </linearGradient>
    <linearGradient
       x1="-172.65306"
       y1="99.667191"
       x2="-166.63983"
       y2="93.653961"
       id="linearGradient2649"
       xlink:href="#linearGradient11114"
       gradientUnits="userSpaceOnUse"
       gradientTransform="matrix(0.1323262,0,0,0.1375548,41.439475,5.0886772)" />
    <linearGradient
       id="linearGradient8265-821-176-38-919-66-249">
      <stop
         id="stop2687"
         style="stop-color:#ffffff;stop-opacity:0.27450982"
         offset="0" />
      <stop
         id="stop2689"
         style="stop-color:#ffffff;stop-opacity:0.07843138"
         offset="1" />
    </linearGradient>
    <linearGradient
       x1="18.03083"
       y1="16.407909"
       x2="20.054544"
       y2="24.627615"
       id="linearGradient3404"
       xlink:href="#linearGradient8265-821-176-38-919-66-249"
       gradientUnits="userSpaceOnUse" />
    <linearGradient
       id="linearGradient3752">
      <stop
         id="stop3754"
         style="stop-color:#ffffff;stop-opacity:1"
         offset="0" />
      <stop
         id="stop3760"
         style="stop-color:#ffffff;stop-opacity:1"
         offset="0.84754151" />
      <stop
         id="stop3756"
         style="stop-color:#ffffff;stop-opacity:0"
         offset="1" />
    </linearGradient>
    <radialGradient
       cx="4.02005"
       cy="5.5926585"
       r="10.273108"
       fx="4.02005"
       fy="5.5926585"
       id="radialGradient3402"
       xlink:href="#linearGradient3752"
       gradientUnits="userSpaceOnUse"
       gradientTransform="matrix(-1.6802223e-2,1.3942814,-1.79662,-2.1650729e-2,-5.3658054,-19.339419)" />
    <linearGradient
       id="linearGradient3390-178-986-453">
      <stop
         id="stop3624"
         style="stop-color:#bb5e12;stop-opacity:1"
         offset="0" />
      <stop
         id="stop3626"
         style="stop-color:#cd8033;stop-opacity:1"
         offset="1" />
    </linearGradient>
    <linearGradient
       x1="9.7045717"
       y1="20.882006"
       x2="9.7045717"
       y2="4.3030405"
       id="linearGradient3400"
       xlink:href="#linearGradient3390-178-986-453"
       gradientUnits="userSpaceOnUse"
       gradientTransform="matrix(0.9945751,0,0,0.9945751,-19.857339,-19.77827)" />
    <linearGradient
       id="linearGradient7012-661-145-733-759-865-745-661-970-94">
      <stop
         id="stop3618"
         style="stop-color:#edd563;stop-opacity:1"
         offset="0" />
      <stop
         id="stop3620"
         style="stop-color:#e08223;stop-opacity:1"
         offset="1" />
    </linearGradient>
    <radialGradient
       cx="7.8185525"
       cy="8.5608768"
       r="11.268134"
       fx="7.8185525"
       fy="8.5608768"
       id="radialGradient3398"
       xlink:href="#linearGradient7012-661-145-733-759-865-745-661-970-94"
       gradientUnits="userSpaceOnUse"
       gradientTransform="matrix(1.6899516,0,0,1.0436086,-24.967043,-20.53429)" />
    <linearGradient
       id="linearGradient5157">
      <stop
         id="stop5159"
         style="stop-color:#c1c1c1;stop-opacity:1"
         offset="0" />
      <stop
         id="stop5161"
         style="stop-color:#909090;stop-opacity:1"
         offset="1" />
    </linearGradient>
    <linearGradient
       x1="9.8763561"
       y1="2.6014566"
       x2="9.8763561"
       y2="23.061668"
       id="linearGradient3396"
       xlink:href="#linearGradient5157"
       gradientUnits="userSpaceOnUse"
       gradientTransform="translate(-19.518072,-21.496043)" />
    <linearGradient
       id="linearGradient11111">
      <stop
         id="stop11113"
         style="stop-color:#ffffff;stop-opacity:1"
         offset="0" />
      <stop
         id="stop11115"
         style="stop-color:#cdcdcd;stop-opacity:1"
         offset="0.91013825" />
      <stop
         id="stop11117"
         style="stop-color:#a1a1a1;stop-opacity:1"
         offset="1" />
    </linearGradient>
    <linearGradient
       x1="-28.531403"
       y1="17.955765"
       x2="-28.531403"
       y2="37.502914"
       id="linearGradient3394"
       xlink:href="#linearGradient11111"
       gradientUnits="userSpaceOnUse"
       gradientTransform="translate(14.859932,-35.997365)" />
    <radialGradient
       cx="605.71429"
       cy="486.64789"
       r="117.14286"
       fx="605.71429"
       fy="486.64789"
       id="radialGradient3392"
       xlink:href="#linearGradient5060"
       gradientUnits="userSpaceOnUse"
       gradientTransform="matrix(-2.774389,0,0,1.969706,112.7623,-872.8854)" />
    <linearGradient
       id="linearGradient5060">
      <stop
         id="stop5062"
         style="stop-color:#000000;stop-opacity:1"
         offset="0" />
      <stop
         id="stop5064"
         style="stop-color:#000000;stop-opacity:0"
         offset="1" />
    </linearGradient>
    <radialGradient
       cx="605.71429"
       cy="486.64789"
       r="117.14286"
       fx="605.71429"
       fy="486.64789"
       id="radialGradient3390"
       xlink:href="#linearGradient5060"
       gradientUnits="userSpaceOnUse"
       gradientTransform="matrix(2.774389,0,0,1.969706,-1891.633,-872.8854)" />
    <linearGradient
       id="linearGradient5048">
      <stop
         id="stop5050"
         style="stop-color:#000000;stop-opacity:0"
         offset="0" />
      <stop
         id="stop5056"
         style="stop-color:#000000;stop-opacity:1"
         offset="0.5" />
      <stop
         id="stop5052"
         style="stop-color:#000000;stop-opacity:0"
         offset="1" />
    </linearGradient>
    <linearGradient
       x1="302.85715"
       y1="366.64789"
       x2="302.85715"
       y2="609.50507"
       id="linearGradient3388"
       xlink:href="#linearGradient5048"
       gradientUnits="userSpaceOnUse"
       gradientTransform="matrix(2.774389,0,0,1.969706,-1892.179,-872.8854)" />
  </defs>
  <g
     id="layer1">
    <g
       transform="translate(3.630422e-2,-1.2165904e-7)"
       id="g2589">
      <g
         transform="translate(19.518072,21.496043)"
         id="g3377">
        <g
           transform="matrix(0.5459263,0,0,0.5168524,-20.520108,-22.074225)"
           id="g3490"
           style="stroke-width:1.88256383;stroke-miterlimit:4;stroke-dasharray:none">
          <g
             transform="matrix(2.165152e-2,0,0,1.485743e-2,43.0076,42.68539)"
             id="g5022"
             style="stroke-width:104.96237946;stroke-miterlimit:4;stroke-dasharray:none;display:inline">
            <rect
               width="1339.6335"
               height="478.35718"
               x="-1559.2523"
               y="-150.69685"
               id="rect2527"
               style="opacity:0.40206185;fill:url(#linearGradient3388);fill-opacity:1;fill-rule:nonzero;stroke:none;stroke-width:104.96237946;stroke-linecap:round;stroke-linejoin:miter;marker:none;marker-start:none;marker-mid:none;marker-end:none;stroke-miterlimit:4;stroke-dasharray:none;stroke-dashoffset:0;stroke-opacity:1;visibility:visible;display:inline;overflow:visible" />
            <path
               d="M -219.61876,-150.68038 C -219.61876,-150.68038 -219.61876,327.65041 -219.61876,327.65041 C -76.744594,328.55086 125.78146,220.48075 125.78138,88.454235 C 125.78138,-43.572302 -33.655436,-150.68036 -219.61876,-150.68038 z"
               id="path2529"
               style="opacity:0.40206185;fill:url(#radialGradient3390);fill-opacity:1;fill-rule:nonzero;stroke:none;stroke-width:104.96237946;stroke-linecap:round;stroke-linejoin:miter;marker:none;marker-start:none;marker-mid:none;marker-end:none;stroke-miterlimit:4;stroke-dasharray:none;stroke-dashoffset:0;stroke-opacity:1;visibility:visible;display:inline;overflow:visible" />
            <path
               d="M -1559.2523,-150.68038 C -1559.2523,-150.68038 -1559.2523,327.65041 -1559.2523,327.65041 C -1702.1265,328.55086 -1904.6525,220.48075 -1904.6525,88.454235 C -1904.6525,-43.572302 -1745.2157,-150.68036 -1559.2523,-150.68038 z"
               id="path2531"
               style="opacity:0.40206185;fill:url(#radialGradient3392);fill-opacity:1;fill-rule:nonzero;stroke:none;stroke-width:104.96237946;stroke-linecap:round;stroke-linejoin:miter;marker:none;marker-start:none;marker-mid:none;marker-end:none;stroke-miterlimit:4;stroke-dasharray:none;stroke-dashoffset:0;stroke-opacity:1;visibility:visible;display:inline;overflow:visible" />
          </g>
        </g>
        <path
           d="M -18.840791,-18.926548 C -18.92633,-18.926548 -18.99966,-18.833801 -18.99966,-18.738005 C -18.99966,-12.868845 -19.042736,-6.4939157 -19.048803,-0.5132834 C -19.019719,0.3817516 -18.511562,0.9918586 -18.159138,0.9950586 C -17.146402,1.0042536 -17.619866,0.9910296 -17.110603,0.9950586 C -10.64027,0.9789596 -3.5316864,0.9168856 2.9386446,0.9007876 C 2.9928586,0.9077056 1.4619296,0.7930626 1.4770506,-0.5447074 C 1.4770516,-5.2176544 0.97500356,-11.731699 0.97500356,-16.404648 C 0.97500356,-16.591526 0.95956356,-16.695534 0.94322956,-16.781733 C 0.93061556,-16.848296 0.91453356,-16.880603 0.87968256,-16.907428 C 0.85182056,-16.931879 0.82513356,-16.964471 0.78436156,-16.970276 L -8.0357773,-16.970276 C -8.851093,-16.970276 -9.0378335,-18.962239 -10.249467,-18.962239 L -18.840791,-18.926548 z"
           id="path3496"
           style="fill:url(#linearGradient3394);fill-opacity:1;stroke:url(#linearGradient3396);stroke-width:1.01114547;stroke-linecap:round;stroke-linejoin:round;stroke-miterlimit:4;stroke-dasharray:none;stroke-opacity:1;display:inline" />
        <path
           d="M -16.018718,-14.948917 C -5.4488164,-14.948917 -2.9882744,-14.948457 3.9747866,-14.976456 C 3.9747866,-13.406012 4.2329426,1.0638186 3.4906746,1.0638186 C 2.7766266,1.0638186 -10.554976,0.9694676 -17.518035,0.9974666 C -16.046351,0.9974666 -16.018718,0.3747186 -16.018718,-14.948917 z"
           id="path3498"
           style="fill:url(#radialGradient3398);fill-opacity:1;stroke:url(#linearGradient3400);stroke-width:1;stroke-linecap:round;stroke-linejoin:round;stroke-miterlimit:4;stroke-dasharray:none;stroke-opacity:1;display:inline" />
        <path
           d="M 3.4207266,-13.887201 C 3.4207266,-13.887201 -13.411074,-13.793591 -14.976069,-13.97957 C -15.059008,-0.1501364 -15.477017,0.4594716 -15.477017,0.4594716"
           id="path3211"
           style="opacity:0.4;fill:none;fill-rule:evenodd;stroke:url(#radialGradient3402);stroke-width:0.98119503;stroke-linecap:butt;stroke-linejoin:miter;stroke-miterlimit:4;stroke-dasharray:none;stroke-opacity:1;display:inline" />
        <path
           d="M 3.21875,5.34375 C 1.6798019,5.34375 0.40625,6.617302 0.40625,8.15625 L 0.40625,24.15625 C 0.41214423,24.442483 0.55466957,24.768827 0.78125,24.96875 C 1.0078275,25.168671 1.2974446,25.253022 1.625,25.21875 C 1.635415,25.219016 1.645835,25.219016 1.65625,25.21875 L 46.65625,18.09375 C 47.178023,18.01146 47.586456,17.55942 47.59375,17.03125 L 47.59375,8.15625 C 47.59375,6.617302 46.320198,5.34375 44.78125,5.34375 L 3.21875,5.34375 z"
           transform="matrix(0.4450331,0,0,0.4023652,-16.698867,-17.646182)"
           id="path2608"
           style="opacity:1;fill:url(#linearGradient3404);fill-opacity:1;fill-rule:evenodd;stroke:none;stroke-width:1.00213289;stroke-linecap:round;stroke-linejoin:round;stroke-miterlimit:4;stroke-dasharray:none;stroke-dashoffset:0;stroke-opacity:1" />
      </g>
    </g>
    <rect
       width="7"
       height="1"
       rx="0.53846157"
       ry="0.5"
       x="2"
       y="4"
       id="rect2545"
       style="opacity:1;fill:#edbd74;fill-opacity:1;fill-rule:nonzero;stroke:none;stroke-width:1;stroke-linecap:butt;stroke-linejoin:miter;marker:none;marker-start:none;marker-mid:none;marker-end:none;stroke-miterlimit:4;stroke-dasharray:none;stroke-dashoffset:0;stroke-opacity:1;visibility:visible;display:block;overflow:visible;enable-background:accumulate" />
  </g>
  <g
     transform="matrix(1.0321144,0,0,1.0265858,8.4524665e-2,0.8150387)"
     id="g3968"
     style="display:inline">
    <path
       d="M 16.835527,15.327332 L 22.752192,21.051512 L 21.932059,22.208525 L 16.036823,16.016494 L 16.835527,15.327332 z"
       id="path11112"
       style="fill:url(#linearGradient2649);fill-opacity:1;fill-rule:evenodd;stroke:#333333;stroke-width:0.75;stroke-linecap:round;stroke-linejoin:round;stroke-miterlimit:4;stroke-dasharray:none;stroke-opacity:1" />
    <path
       d="M 248.35479,110.29199 A 5.3124018,2.6562009 0 1 1 237.72999,110.29199 A 5.3124018,2.6562009 0 1 1 248.35479,110.29199 z"
       transform="matrix(0.1311877,-0.152415,0.1466215,0.1363713,-25.682419,43.655661)"
       id="path13082"
       style="fill:#3e3e3e;fill-opacity:1;stroke:none;stroke-width:4.25330353;stroke-linecap:round;stroke-linejoin:round;stroke-miterlimit:4;stroke-dasharray:none;stroke-opacity:1" />
    <path
       d="M 25.897786,18.478292 A 8.3085051,8.3085051 0 1 1 9.280776,18.478292 A 8.3085051,8.3085051 0 1 1 25.897786,18.478292 z"
       transform="matrix(0.4879693,0,0,0.494916,5.030665,3.3199676)"
       id="path4452"
       style="fill:url(#radialGradient2651);fill-opacity:1;fill-rule:evenodd;stroke:none;stroke-width:1.52615714;stroke-linecap:round;stroke-linejoin:miter;marker:none;marker-start:none;marker-mid:none;marker-end:none;stroke-miterlimit:4;stroke-dasharray:none;stroke-dashoffset:0;stroke-opacity:1;visibility:visible" />
    <path
       d="M 13.446684,8.9252989 C 11.425378,8.9252989 9.7885819,10.447634 9.7885819,12.32759 C 9.7885819,12.87053 9.9517238,13.370086 10.195037,13.825719 C 10.681144,13.992362 11.197525,14.105743 11.745591,14.105743 C 14.140824,14.105743 16.053735,12.350676 16.20155,10.157404 C 15.529683,9.4189608 14.56744,8.9252989 13.446684,8.9252989 z"
       id="path4462"
       style="opacity:0.83422457;fill:url(#radialGradient2653);fill-opacity:1;fill-rule:evenodd;stroke:none;stroke-width:0.75;stroke-linecap:round;stroke-linejoin:miter;marker:none;marker-start:none;marker-mid:none;marker-end:none;stroke-miterlimit:4;stroke-dasharray:none;stroke-dashoffset:0;stroke-opacity:1;visibility:visible;display:inline;overflow:visible" />
    <path
       d="M 13.524565,8.3589321 C 11.034645,8.3589321 9.0130671,10.296693 9.0130684,12.683311 C 9.0130684,15.069929 11.034645,17.00769 13.524565,17.00769 C 16.014483,17.00769 18.036061,15.069929 18.036061,12.683311 C 18.036061,10.296694 16.014485,8.3589321 13.524565,8.3589321 z M 13.578322,8.6426389 C 15.806816,8.6426389 17.618407,10.37533 17.618407,12.511368 C 17.618407,14.647406 15.806816,16.380097 13.578322,16.380097 C 11.349827,16.380097 9.5423732,14.647406 9.5423732,12.511368 C 9.5423732,10.37533 11.349827,8.6426389 13.578322,8.6426389 z"
       id="path2298"
       style="fill:url(#linearGradient2655);fill-opacity:1;stroke:url(#linearGradient2657);stroke-width:0.75;stroke-linecap:round;stroke-linejoin:round;stroke-miterlimit:4;stroke-dasharray:none;stroke-opacity:1" />
    <path
       d="M 48.577332,9.920532 C 30.657402,9.920532 16.139832,23.33446 16.139832,39.858033 C 16.139832,56.381604 30.657392,69.795535 48.577332,69.795533 C 66.497262,69.795533 81.046082,56.381602 81.046082,39.858033 C 81.046082,23.334461 66.497252,9.920532 48.577332,9.920532 z M 48.764832,11.076782 C 65.605742,11.076782 79.296082,23.673148 79.296082,39.201783 C 79.296082,54.730415 65.605742,67.326783 48.764832,67.326783 C 31.923912,67.326785 18.264832,54.730417 18.264832,39.201783 C 18.264832,23.673148 31.923912,11.076782 48.764832,11.076782 z"
       transform="matrix(0.1323262,0,0,0.1375548,7.1254574,7.1189744)"
       id="path4267"
       style="fill:url(#linearGradient2659);fill-opacity:1;stroke:none;stroke-width:5.55904865;stroke-linecap:round;stroke-linejoin:round;stroke-miterlimit:4;stroke-dasharray:none;stroke-opacity:1;display:inline" />
  </g>
</svg>
