<?xml version="1.0" encoding="UTF-8" standalone="no"?>
<!-- Created with Inkscape (http://www.inkscape.org/) -->
<svg
   xmlns:svg="http://www.w3.org/2000/svg"
   xmlns="http://www.w3.org/2000/svg"
   xmlns:xlink="http://www.w3.org/1999/xlink"
   width="32"
   height="32"
   id="svg11300"
   version="1.0">
  <defs
     id="defs3">
    <linearGradient
       id="linearGradient5460">
      <stop
         style="stop-color:#e5e5e5;stop-opacity:1.0000000;"
         offset="0.0000000"
         id="stop5462" />
      <stop
         style="stop-color:#c8c8c8;stop-opacity:1.0000000;"
         offset="1.0000000"
         id="stop5464" />
    </linearGradient>
    <linearGradient
       id="linearGradient2296"
       inkscape:collect="always">
      <stop
         id="stop2298"
         offset="0"
         style="stop-color:#ffffff;stop-opacity:1;" />
      <stop
         id="stop2300"
         offset="1"
         style="stop-color:#ffffff;stop-opacity:0;" />
    </linearGradient>
    <linearGradient
       id="linearGradient3116">
      <stop
         id="stop3118"
         offset="0.0000000"
         style="stop-color:#e5e5e5;stop-opacity:1.0000000;" />
      <stop
         id="stop3120"
         offset="1.0000000"
         style="stop-color:#dfdfdf;stop-opacity:1" />
    </linearGradient>
    <linearGradient
       id="linearGradient3702">
      <stop
         style="stop-color:black;stop-opacity:0;"
         offset="0"
         id="stop3704" />
      <stop
         id="stop3710"
         offset="0.5"
         style="stop-color:black;stop-opacity:1;" />
      <stop
         style="stop-color:black;stop-opacity:0;"
         offset="1"
         id="stop3706" />
    </linearGradient>
    <linearGradient
       inkscape:collect="always"
       id="linearGradient3688">
      <stop
         style="stop-color:black;stop-opacity:1;"
         offset="0"
         id="stop3690" />
      <stop
         style="stop-color:black;stop-opacity:0;"
         offset="1"
         id="stop3692" />
    </linearGradient>
    <linearGradient
       inkscape:collect="always"
       xlink:href="#linearGradient2296"
       id="linearGradient6474"
       gradientUnits="userSpaceOnUse"
       gradientTransform="matrix(0.969324,0.303467,-0.313034,0.999884,-26.51354,-28.87764)"
       x1="48"
       y1="18.534204"
       x2="78"
       y2="18.534204" />
    <linearGradient
       inkscape:collect="always"
       xlink:href="#linearGradient5460"
       id="linearGradient6476"
       gradientUnits="userSpaceOnUse"
       gradientTransform="matrix(0.5187824,0,0,0.6590778,60.004987,18.317722)"
       x1="35.321308"
       y1="24.984463"
       x2="51.861248"
       y2="41.370472" />
    <linearGradient
       inkscape:collect="always"
       xlink:href="#linearGradient3116"
       id="linearGradient6478"
       gradientUnits="userSpaceOnUse"
       gradientTransform="matrix(0.4857952,0,0,0.634091,60.975564,19.067895)"
       x1="34.561821"
       y1="17.249048"
       x2="50.808903"
       y2="44.769524" />
    <radialGradient
       inkscape:collect="always"
       xlink:href="#linearGradient2296"
       id="radialGradient6480"
       gradientUnits="userSpaceOnUse"
       gradientTransform="matrix(1,0,0,1.2952244,0,-10.292693)"
       cx="70.792343"
       cy="26.912399"
       fx="70.792343"
       fy="26.912399"
       r="8.4837179" />
    <linearGradient
       inkscape:collect="always"
       xlink:href="#linearGradient2296"
       id="linearGradient6482"
       gradientUnits="userSpaceOnUse"
       gradientTransform="matrix(0.5499243,-8.0753332e-3,7.3215326e-3,0.557543,44.691038,20.056938)"
       x1="54.287079"
       y1="9.1136208"
       x2="68.843483"
       y2="38.118332" />
    <linearGradient
       inkscape:collect="always"
       xlink:href="#linearGradient2296"
       id="linearGradient6488"
       gradientUnits="userSpaceOnUse"
       gradientTransform="matrix(0.969324,0.303467,-0.313034,0.999884,-26.51354,-28.87764)"
       x1="48"
       y1="18.534204"
       x2="78"
       y2="18.534204" />
    <linearGradient
       inkscape:collect="always"
       xlink:href="#linearGradient5460"
       id="linearGradient6490"
       gradientUnits="userSpaceOnUse"
       gradientTransform="matrix(0.5187824,0,0,0.6590778,51.011793,22.333414)"
       x1="35.321308"
       y1="24.984463"
       x2="51.861248"
       y2="41.370472" />
    <linearGradient
       inkscape:collect="always"
       xlink:href="#linearGradient3116"
       id="linearGradient6492"
       gradientUnits="userSpaceOnUse"
       gradientTransform="matrix(0.4858104,0,0,0.6340904,51.981615,23.083497)"
       x1="34.561821"
       y1="17.249048"
       x2="50.808903"
       y2="44.769524" />
    <radialGradient
       inkscape:collect="always"
       xlink:href="#linearGradient2296"
       id="radialGradient6494"
       gradientUnits="userSpaceOnUse"
       gradientTransform="matrix(1,0,0,1.2951855,0,-11.476681)"
       cx="61.7999"
       cy="31.362047"
       fx="61.7999"
       fy="31.362047"
       r="8.4839725" />
    <linearGradient
       inkscape:collect="always"
       xlink:href="#linearGradient2296"
       id="linearGradient6496"
       gradientUnits="userSpaceOnUse"
       gradientTransform="matrix(0.5499243,-8.0753332e-3,7.3215326e-3,0.557543,35.691039,24.05694)"
       x1="54.287079"
       y1="9.1136208"
       x2="68.843483"
       y2="38.118332" />
    <radialGradient
       inkscape:collect="always"
       xlink:href="#linearGradient3688"
       id="radialGradient5561"
       gradientUnits="userSpaceOnUse"
       gradientTransform="matrix(1.2022703,0,0,1.3,12.992878,-84.799998)"
       cx="4.9929786"
       cy="43.5"
       fx="4.9929786"
       fy="43.5"
       r="2.5" />
    <radialGradient
       inkscape:collect="always"
       xlink:href="#linearGradient3688"
       id="radialGradient5563"
       gradientUnits="userSpaceOnUse"
       gradientTransform="matrix(1.2022703,0,0,1.3,-10.007122,-84.799999)"
       cx="4.9929786"
       cy="43.5"
       fx="4.9929786"
       fy="43.5"
       r="2.5" />
    <linearGradient
       inkscape:collect="always"
       xlink:href="#linearGradient3702"
       id="linearGradient5565"
       gradientUnits="userSpaceOnUse"
       gradientTransform="matrix(0.5357143,0,0,0.9285714,-1.357143,-12.142855)"
       x1="25.058096"
       y1="47.027729"
       x2="25.058096"
       y2="39.999443" />
    <radialGradient
       inkscape:collect="always"
       xlink:href="#linearGradient3688"
       id="radialGradient5567"
       gradientUnits="userSpaceOnUse"
       gradientTransform="matrix(1.2022703,0,0,1.3,12.992878,-84.799998)"
       cx="4.9929786"
       cy="43.5"
       fx="4.9929786"
       fy="43.5"
       r="2.5" />
    <radialGradient
       inkscape:collect="always"
       xlink:href="#linearGradient3688"
       id="radialGradient5569"
       gradientUnits="userSpaceOnUse"
       gradientTransform="matrix(1.2022703,0,0,1.3,-10.007122,-84.799999)"
       cx="4.9929786"
       cy="43.5"
       fx="4.9929786"
       fy="43.5"
       r="2.5" />
    <linearGradient
       inkscape:collect="always"
       xlink:href="#linearGradient3702"
       id="linearGradient5571"
       gradientUnits="userSpaceOnUse"
       gradientTransform="matrix(0.5357143,0,0,0.9285714,-1.357143,-12.142855)"
       x1="25.058096"
       y1="47.027729"
       x2="25.058096"
       y2="39.999443" />
  </defs>
  <g
     id="g5573">
    <g
       transform="matrix(1,0,0,1.0769231,8.9999998,-5.9230787)"
       id="g6557"
       style="display:inline;enable-background:new">
      <rect
         style="opacity:0.4;fill:url(#radialGradient5567);fill-opacity:1;stroke:none;stroke-width:1;stroke-linecap:round;stroke-linejoin:miter;stroke-miterlimit:4;stroke-dasharray:none;stroke-opacity:1;display:inline;enable-background:new"
         id="rect6559"
         width="2.9999998"
         height="6.5"
         x="19"
         y="-31.5"
         transform="scale(1,-1)" />
      <rect
         style="opacity:0.4;fill:url(#radialGradient5569);fill-opacity:1;stroke:none;stroke-width:1;stroke-linecap:round;stroke-linejoin:miter;stroke-miterlimit:4;stroke-dasharray:none;stroke-opacity:1"
         id="rect6561"
         width="2.9999998"
         height="6.5"
         x="-4"
         y="-31.5"
         transform="scale(-1,-1)" />
      <rect
         style="opacity:0.4;fill:url(#linearGradient5571);fill-opacity:1;stroke:none;stroke-width:1;stroke-linecap:round;stroke-linejoin:miter;stroke-miterlimit:4;stroke-dasharray:none;stroke-opacity:1"
         id="rect6563"
         width="15"
         height="6.5000005"
         x="4"
         y="25.000002" />
    </g>
    <g
       transform="translate(-58,-21)"
       id="g7310">
      <g
         id="g7266"
         transform="matrix(0.5062713,-0.1251058,0.1335911,0.4741126,62.476409,29.944543)"
         style="stroke-width:1.97087538;stroke-miterlimit:4;stroke-dasharray:none;display:inline;enable-background:new">
        <path
           sodipodi:nodetypes="ccccccc"
           id="path7268"
           d="M 11.249051,13.68551 C 22.267512,21.50188 31.322859,13.953532 40.328776,22.789518 L 45.504535,4.7780871 L 44.31062,2.2533867 L 19.506897,-5.5996203 L 16.789787,-4.2944189 L 11.249051,13.68551 z"
           style="opacity:0.51648356;fill:url(#linearGradient6474);fill-opacity:1;fill-rule:evenodd;stroke:none;stroke-width:1.97087538;stroke-linecap:butt;stroke-linejoin:miter;stroke-miterlimit:4;stroke-dasharray:none;stroke-opacity:1" />
      </g>
      <rect
         style="fill:url(#linearGradient6476);fill-opacity:1;fill-rule:nonzero;stroke:#888a85;stroke-width:0.99964768;stroke-linecap:round;stroke-linejoin:miter;stroke-miterlimit:4;stroke-dasharray:none;stroke-dashoffset:0;stroke-opacity:1;display:inline;enable-background:new"
         id="rect7270"
         width="17.967001"
         height="22.975193"
         x="69.575844"
         y="23.375439"
         ry="1.6648581"
         rx="1.7603528"
         transform="matrix(0.9999985,1.7441914e-3,-1.6986926e-3,0.9999986,0,0)" />
      <rect
         style="fill:url(#linearGradient6478);fill-opacity:1;fill-rule:nonzero;stroke:url(#radialGradient6480);stroke-width:1.00443971;stroke-linecap:round;stroke-linejoin:miter;stroke-miterlimit:4;stroke-dasharray:none;stroke-dashoffset:0;stroke-opacity:1;display:inline;enable-background:new"
         id="rect7272"
         width="15.962996"
         height="20.972197"
         x="70.578453"
         y="24.377865"
         ry="0.79977906"
         rx="0.80954504"
         transform="matrix(0.9999985,1.732309e-3,-1.7088087e-3,0.9999985,0,0)" />
      <path
         style="fill:#000000;fill-opacity:1;fill-rule:evenodd;stroke:none;stroke-width:0.99999988;stroke-linecap:butt;stroke-linejoin:miter;stroke-miterlimit:4;stroke-dasharray:none;stroke-opacity:1;display:inline;enable-background:new"
         d="M 72.463371,25 C 71.417482,25.782314 70.994081,25.999955 71.000062,26.431539 C 71.005881,26.851084 71.708791,27.208197 72.307677,26.936348 C 72.376656,27.124233 72.395996,27.33483 72.07184,27.5 C 72.09836,27.499633 72.9288,27.5 72.9288,27.5 C 72.634584,27.330675 72.617671,27.112653 72.700737,26.902242 C 73.371993,27.212 74.007362,26.856788 73.999936,26.368436 C 73.992347,25.856384 73.597803,25.698544 72.463371,25 z"
         id="path7175"
         sodipodi:nodetypes="csccccsc" />
      <path
         style="opacity:0.51648356;fill:url(#linearGradient6482);fill-opacity:1;fill-rule:evenodd;stroke:none;stroke-width:1;stroke-linecap:butt;stroke-linejoin:miter;stroke-miterlimit:4;stroke-dasharray:none;stroke-opacity:1;display:inline;enable-background:new"
         d="M 71.105025,35.134592 C 78.091598,37.250038 80.050428,31.76201 86.173078,34.728069 L 86.179778,25.247689 C 86.185398,24.711367 85.931588,24.354274 85.142328,24.364372 L 72.201106,24.181155 C 71.458148,24.179247 70.994155,24.814645 71.022721,25.29348 L 71.105025,35.134592 z"
         id="path7274"
         sodipodi:nodetypes="ccccccc" />
      <path
         style="fill:#000000;fill-opacity:1;fill-rule:evenodd;stroke:none;stroke-width:0.99999988;stroke-linecap:butt;stroke-linejoin:miter;stroke-miterlimit:4;stroke-dasharray:none;stroke-opacity:1"
         d="M 78.604951,31.002918 C 75.346948,33.924206 74.028032,34.736918 74.046665,36.348524 C 74.064785,37.915175 76.25439,39.248695 78.119954,38.233566 C 78.334826,38.935155 78.39507,39.721563 77.385307,40.338333 C 77.467921,40.336961 80.054784,40.338333 80.054784,40.338333 C 79.138286,39.706047 79.085603,38.891917 79.344356,38.106205 C 81.435357,39.262895 83.414567,37.936474 83.391429,36.11289 C 83.367791,34.200799 82.138764,33.611395 78.604951,31.002918 z"
         id="path7173"
         sodipodi:nodetypes="csccccsc" />
      <path
         style="fill:#000000;fill-opacity:1;fill-rule:evenodd;stroke:none;stroke-width:0.99999988;stroke-linecap:butt;stroke-linejoin:miter;stroke-miterlimit:4;stroke-dasharray:none;stroke-opacity:1;display:inline;enable-background:new"
         d="M 84.463371,45.00382 C 83.417481,44.221506 82.994081,44.003865 83.000062,43.572281 C 83.005879,43.152736 83.708791,42.795623 84.307677,43.067471 C 84.376655,42.879587 84.395995,42.668989 84.07184,42.50382 C 84.098359,42.504187 84.9288,42.50382 84.9288,42.50382 C 84.634584,42.673145 84.617671,42.891167 84.700737,43.101578 C 85.371992,42.79182 86.007363,43.147032 85.999936,43.635383 C 85.992347,44.147436 85.597801,44.305276 84.463371,45.00382 z"
         id="path7177"
         sodipodi:nodetypes="csccccsc" />
    </g>
    <g
       transform="matrix(1,0,0,1.0769227,0,-1.923067)"
       id="g6552">
      <rect
         style="opacity:0.4;fill:url(#radialGradient5561);fill-opacity:1;stroke:none;stroke-width:1;stroke-linecap:round;stroke-linejoin:miter;stroke-miterlimit:4;stroke-dasharray:none;stroke-opacity:1;display:inline;enable-background:new"
         id="rect6464"
         width="2.9999998"
         height="6.5"
         x="19"
         y="-31.5"
         transform="scale(1,-1)" />
      <rect
         style="opacity:0.4;fill:url(#radialGradient5563);fill-opacity:1;stroke:none;stroke-width:1;stroke-linecap:round;stroke-linejoin:miter;stroke-miterlimit:4;stroke-dasharray:none;stroke-opacity:1"
         id="rect7457"
         width="2.9999998"
         height="6.5"
         x="-4"
         y="-31.5"
         transform="scale(-1,-1)" />
      <rect
         style="opacity:0.4;fill:url(#linearGradient5565);fill-opacity:1;stroke:none;stroke-width:1;stroke-linecap:round;stroke-linejoin:miter;stroke-miterlimit:4;stroke-dasharray:none;stroke-opacity:1"
         id="rect7459"
         width="15"
         height="6.5000005"
         x="4"
         y="25.000002" />
    </g>
    <g
       transform="translate(-58,-21)"
       id="g7342">
      <g
         id="g7181"
         transform="matrix(0.5062713,-0.1251058,0.1335911,0.4741126,53.47641,33.944545)"
         style="stroke-width:1.97087538;stroke-miterlimit:4;stroke-dasharray:none">
        <path
           sodipodi:nodetypes="ccccccc"
           id="path7183"
           d="M 11.249051,13.68551 C 22.267512,21.50188 31.322859,13.953532 40.328776,22.789518 L 45.504535,4.7780871 L 44.31062,2.2533867 L 19.506897,-5.5996203 L 16.789787,-4.2944189 L 11.249051,13.68551 z"
           style="opacity:0.51648356;fill:url(#linearGradient6488);fill-opacity:1;fill-rule:evenodd;stroke:none;stroke-width:1.97087538;stroke-linecap:butt;stroke-linejoin:miter;stroke-miterlimit:4;stroke-dasharray:none;stroke-opacity:1" />
      </g>
      <rect
         style="fill:url(#linearGradient6490);fill-opacity:1;fill-rule:nonzero;stroke:#888a85;stroke-width:0.99964756;stroke-linecap:round;stroke-linejoin:miter;stroke-miterlimit:4;stroke-dasharray:none;stroke-dashoffset:0;stroke-opacity:1"
         id="rect7185"
         width="17.967001"
         height="22.975189"
         x="60.582649"
         y="27.39113"
         ry="1.6648579"
         rx="1.7603528"
         transform="matrix(0.9999985,1.7441914e-3,-1.6986928e-3,0.9999986,0,0)" />
      <rect
         style="fill:url(#linearGradient6492);fill-opacity:1;fill-rule:nonzero;stroke:url(#radialGradient6494);stroke-width:1.00445485;stroke-linecap:round;stroke-linejoin:miter;stroke-miterlimit:4;stroke-dasharray:none;stroke-dashoffset:0;stroke-opacity:1"
         id="rect7187"
         width="15.96349"
         height="20.972181"
         x="61.584805"
         y="28.393461"
         ry="0.80000001"
         rx="0.80000001"
         transform="matrix(0.9999985,1.7322541e-3,-1.7088631e-3,0.9999985,0,0)" />
      <path
         style="fill:#cc0000;fill-opacity:1;fill-rule:evenodd;stroke:none;stroke-width:0.99999988;stroke-linecap:butt;stroke-linejoin:miter;stroke-miterlimit:4;stroke-dasharray:none;stroke-opacity:1"
         d="M 69.448246,36.845487 C 71.382833,34.916216 74.024313,36.711111 73.999831,38.547603 C 73.97745,40.226477 72.700979,41.025737 69.490422,44 C 66.152634,41.209245 64.975312,40.56415 65.000391,38.572217 C 65.025741,36.510263 67.298896,34.971253 69.448246,36.845487 z"
         id="path7189"
         sodipodi:nodetypes="czczc" />
      <path
         style="fill:#cc0000;fill-opacity:1;fill-rule:evenodd;stroke:none;stroke-width:0.99999988;stroke-linecap:butt;stroke-linejoin:miter;stroke-miterlimit:4;stroke-dasharray:none;stroke-opacity:1;display:inline;enable-background:new"
         d="M 63.482749,29.264215 C 64.127611,28.661317 65.008104,29.222222 64.999943,29.796126 C 64.992484,30.320773 64.566993,30.570542 63.496807,31.5 C 62.384211,30.627888 61.991771,30.426298 62.00013,29.803817 C 62.008582,29.159455 62.766298,28.678517 63.482749,29.264215 z"
         id="path7193"
         sodipodi:nodetypes="czczc" />
      <path
         style="opacity:0.51648356;fill:url(#linearGradient6496);fill-opacity:1;fill-rule:evenodd;stroke:none;stroke-width:1;stroke-linecap:butt;stroke-linejoin:miter;stroke-miterlimit:4;stroke-dasharray:none;stroke-opacity:1"
         d="M 62.105026,39.134594 C 69.091595,41.25004 71.050433,35.762012 77.173078,38.728071 L 77.179781,29.247691 C 77.185397,28.711369 76.931591,28.354276 76.142332,28.364374 L 63.201107,28.181157 C 62.458149,28.179249 61.994156,28.814647 62.022722,29.293482 L 62.105026,39.134594 z"
         id="path7191"
         sodipodi:nodetypes="ccccccc" />
      <path
         style="fill:#cc0000;fill-opacity:1;fill-rule:evenodd;stroke:none;stroke-width:0.99999988;stroke-linecap:butt;stroke-linejoin:miter;stroke-miterlimit:4;stroke-dasharray:none;stroke-opacity:1;display:inline;enable-background:new"
         d="M 75.50625,48.739863 C 76.141125,49.34276 77.007978,48.781855 76.999945,48.207951 C 76.992599,47.683303 76.5737,47.433534 75.520092,46.504077 C 74.424731,47.376188 74.038369,47.577781 74.046599,48.200259 C 74.054918,48.844621 74.800899,49.32556 75.50625,48.739863 z"
         id="path7195"
         sodipodi:nodetypes="czczc" />
    </g>
  </g>
</svg>
