<?xml version="1.0" encoding="UTF-8" standalone="no"?>
<!-- Created with Inkscape (http://www.inkscape.org/) -->
<svg
   xmlns:svg="http://www.w3.org/2000/svg"
   xmlns="http://www.w3.org/2000/svg"
   xmlns:xlink="http://www.w3.org/1999/xlink"
   width="48"
   height="48"
   id="svg11300"
   version="1.0">
  <defs
     id="defs3">
    <linearGradient
       id="linearGradient6482">
      <stop
         style="stop-color:#cd8033;stop-opacity:1;"
         offset="0"
         id="stop6484" />
      <stop
         style="stop-color:#bb5e12;stop-opacity:1;"
         offset="1"
         id="stop6486" />
    </linearGradient>
    <linearGradient
       id="linearGradient7962">
      <stop
         style="stop-color:#ffffff;stop-opacity:1;"
         offset="0"
         id="stop7964" />
      <stop
         style="stop-color:#ffffff;stop-opacity:0;"
         offset="1"
         id="stop7966" />
    </linearGradient>
    <linearGradient
       id="linearGradient6288">
      <stop
         style="stop-color:#969696;stop-opacity:1;"
         offset="0"
         id="stop6290" />
      <stop
         style="stop-color:#bebebe;stop-opacity:1;"
         offset="1"
         id="stop6292" />
    </linearGradient>
    <linearGradient
       id="linearGradient6280">
      <stop
         style="stop-color:#ffffff;stop-opacity:1;"
         offset="0"
         id="stop6282" />
      <stop
         style="stop-color:#dcdcdc;stop-opacity:1;"
         offset="1"
         id="stop6284" />
    </linearGradient>
    <linearGradient
       id="linearGradient4103">
      <stop
         style="stop-color:#edd563;stop-opacity:1;"
         offset="0"
         id="stop4105" />
      <stop
         style="stop-color:#e08223;stop-opacity:1;"
         offset="1"
         id="stop4107" />
    </linearGradient>
    <linearGradient
       id="linearGradient5113"
       collect="always">
      <stop
         id="stop5115"
         offset="0"
         style="stop-color:white;stop-opacity:1;" />
      <stop
         id="stop5117"
         offset="1"
         style="stop-color:white;stop-opacity:0;" />
    </linearGradient>
    <linearGradient
       id="linearGradient2264">
      <stop
         id="stop2266"
         offset="0"
         style="stop-color:#d7e866;stop-opacity:1;" />
      <stop
         id="stop2268"
         offset="1"
         style="stop-color:#8cab2a;stop-opacity:1;" />
    </linearGradient>
    <linearGradient
       id="linearGradient4103-772-865-112-606">
      <stop
         style="stop-color:#a7bce2;stop-opacity:1;"
         offset="0"
         id="stop139214" />
      <stop
         style="stop-color:#5077b1;stop-opacity:1;"
         offset="1"
         id="stop139216" />
    </linearGradient>
    <linearGradient
       collect="always"
       id="linearGradient3688">
      <stop
         style="stop-color:black;stop-opacity:1;"
         offset="0"
         id="stop3690" />
      <stop
         style="stop-color:black;stop-opacity:0;"
         offset="1"
         id="stop3692" />
    </linearGradient>
    <linearGradient
       id="linearGradient3702">
      <stop
         style="stop-color:black;stop-opacity:0;"
         offset="0"
         id="stop3704" />
      <stop
         id="stop3710"
         offset="0.5"
         style="stop-color:black;stop-opacity:1;" />
      <stop
         style="stop-color:black;stop-opacity:0;"
         offset="1"
         id="stop3706" />
    </linearGradient>
    <linearGradient
       collect="always"
       xlink:href="#linearGradient4103-772-865-112-606"
       id="linearGradient5582"
       gradientUnits="userSpaceOnUse"
       gradientTransform="translate(-5,-5)"
       x1="45"
       y1="24.999998"
       x2="45"
       y2="48" />
    <linearGradient
       collect="always"
       xlink:href="#linearGradient2264"
       id="linearGradient5585"
       gradientUnits="userSpaceOnUse"
       gradientTransform="translate(-4.9999918,-5.0000004)"
       x1="37"
       y1="35.000004"
       x2="37"
       y2="48" />
    <linearGradient
       collect="always"
       xlink:href="#linearGradient4103"
       id="linearGradient5588"
       gradientUnits="userSpaceOnUse"
       gradientTransform="translate(-5,-5)"
       x1="28.999998"
       y1="30"
       x2="28.999998"
       y2="48" />
    <linearGradient
       collect="always"
       xlink:href="#linearGradient6482"
       id="linearGradient5590"
       gradientUnits="userSpaceOnUse"
       gradientTransform="translate(-5,-5)"
       x1="27.944542"
       y1="30"
       x2="28.11091"
       y2="48" />
    <linearGradient
       collect="always"
       xlink:href="#linearGradient7962"
       id="linearGradient5614"
       gradientUnits="userSpaceOnUse"
       gradientTransform="translate(-5,-5.999999)"
       x1="29"
       y1="7.9375"
       x2="29"
       y2="40.9375" />
    <linearGradient
       collect="always"
       xlink:href="#linearGradient6280"
       id="linearGradient5626"
       gradientUnits="userSpaceOnUse"
       gradientTransform="matrix(0.9999197,0,0,1.1850567,-4.9976719,-7.5712438)"
       x1="9.4142141"
       y1="9.4142122"
       x2="48.850956"
       y2="34.939339" />
    <linearGradient
       collect="always"
       xlink:href="#linearGradient6288"
       id="linearGradient5628"
       gradientUnits="userSpaceOnUse"
       gradientTransform="matrix(0.9999197,0,0,1.1850567,-4.9976719,-7.5712438)"
       x1="48.850956"
       y1="34.939339"
       x2="9.4142141"
       y2="9.4142122" />
    <radialGradient
       collect="always"
       xlink:href="#linearGradient5113"
       id="radialGradient6407"
       cx="5.0848947"
       cy="0.023987105"
       fx="5.0848947"
       fy="0.023987105"
       r="20.000002"
       gradientTransform="matrix(1,0,0,0.775,0,4.1625014)"
       gradientUnits="userSpaceOnUse" />
    <radialGradient
       collect="always"
       xlink:href="#linearGradient7962"
       id="radialGradient6409"
       cx="22.585787"
       cy="32.165943"
       fx="22.585787"
       fy="32.165943"
       r="2"
       gradientTransform="matrix(1.1915243,3.5301307e-2,-8.7913145e-2,2.9673305,-1.497918,-69.58052)"
       gradientUnits="userSpaceOnUse" />
    <radialGradient
       collect="always"
       xlink:href="#linearGradient7962"
       id="radialGradient6411"
       cx="30.850952"
       cy="34.828655"
       fx="30.850952"
       fy="34.828655"
       r="1.9999996"
       gradientTransform="matrix(0.5745234,9.8904205e-7,-4.0201317e-6,2.3352493,13.1265,-49.429823)"
       gradientUnits="userSpaceOnUse" />
    <radialGradient
       collect="always"
       xlink:href="#linearGradient7962"
       id="radialGradient6413"
       cx="38.497398"
       cy="29.631218"
       fx="38.497398"
       fy="29.631218"
       r="2.0000007"
       gradientTransform="matrix(1.1447576,-6.1182517e-2,0.2486949,4.6532139,-12.941919,-113.83612)"
       gradientUnits="userSpaceOnUse" />
    <radialGradient
       collect="always"
       xlink:href="#linearGradient3688"
       id="radialGradient6415"
       gradientUnits="userSpaceOnUse"
       gradientTransform="matrix(2.2071755,0,0,1.5999984,42.315319,-13.885907)"
       cx="4.9929786"
       cy="43.5"
       fx="4.9929786"
       fy="43.5"
       r="2.5" />
    <radialGradient
       collect="always"
       xlink:href="#linearGradient3688"
       id="radialGradient6417"
       gradientUnits="userSpaceOnUse"
       gradientTransform="matrix(2.2071755,0,0,1.5999984,-33.529439,-125.31396)"
       cx="4.9929786"
       cy="43.5"
       fx="4.9929786"
       fy="43.5"
       r="2.5" />
    <linearGradient
       collect="always"
       xlink:href="#linearGradient3702"
       id="linearGradient6419"
       gradientUnits="userSpaceOnUse"
       gradientTransform="matrix(1.1015037,0,0,1.142856,11.48629,5.9997877)"
       x1="25.058096"
       y1="47.027729"
       x2="25.058096"
       y2="39.999443" />
    <radialGradient
       collect="always"
       xlink:href="#linearGradient3688"
       id="radialGradient6421"
       gradientUnits="userSpaceOnUse"
       gradientTransform="matrix(2.0140075,0,0,1.0000001,41.93085,12.214021)"
       cx="4.9929786"
       cy="43.5"
       fx="4.9929786"
       fy="43.5"
       r="2.5" />
    <radialGradient
       collect="always"
       xlink:href="#linearGradient3688"
       id="radialGradient6423"
       gradientUnits="userSpaceOnUse"
       gradientTransform="matrix(2.0140075,0,0,1.0000001,-33.913894,-99.21403)"
       cx="4.9929786"
       cy="43.5"
       fx="4.9929786"
       fy="43.5"
       r="2.5" />
    <linearGradient
       collect="always"
       xlink:href="#linearGradient3702"
       id="linearGradient6425"
       gradientUnits="userSpaceOnUse"
       gradientTransform="matrix(1.0051021,0,0,0.7142858,13.799922,24.642594)"
       x1="25.058096"
       y1="47.027729"
       x2="25.058096"
       y2="39.999443" />
  </defs>
  <g
     id="g6427">
    <g
       style="opacity:0.9"
       transform="matrix(1.1467577,0,0,1.125001,-19.487781,-28.178332)"
       id="g6970">
      <rect
         style="opacity:0.26234818999999998;fill:url(#radialGradient6415);fill-opacity:1;stroke:none;stroke-width:1;stroke-linecap:round;stroke-linejoin:miter;stroke-miterlimit:4;stroke-dasharray:none;stroke-opacity:1"
         id="rect3701"
         width="5.5075183"
         height="7.9999919"
         x="53.343433"
         y="51.714027" />
      <rect
         style="opacity:0.26234818999999998;fill:url(#radialGradient6417);fill-opacity:1;stroke:none;stroke-width:1;stroke-linecap:round;stroke-linejoin:miter;stroke-miterlimit:4;stroke-dasharray:none;stroke-opacity:1"
         id="rect3703"
         width="5.5075183"
         height="7.9999919"
         x="-22.501328"
         y="-59.71402"
         transform="scale(-1,-1)" />
      <rect
         style="opacity:0.26234818999999998;fill:url(#linearGradient6419);fill-opacity:1;stroke:none;stroke-width:1;stroke-linecap:round;stroke-linejoin:miter;stroke-miterlimit:4;stroke-dasharray:none;stroke-opacity:1"
         id="rect3705"
         width="30.842104"
         height="7.9999924"
         x="22.501328"
         y="51.714027" />
      <rect
         style="opacity:0.40000000000000002;fill:url(#radialGradient6421);fill-opacity:1;stroke:none;stroke-width:1;stroke-linecap:round;stroke-linejoin:miter;stroke-miterlimit:4;stroke-dasharray:none;stroke-opacity:1"
         id="rect3717"
         width="5.0255103"
         height="5.0000005"
         x="51.993801"
         y="53.214027" />
      <rect
         style="opacity:0.40000000000000002;fill:url(#radialGradient6423);fill-opacity:1;stroke:none;stroke-width:1;stroke-linecap:round;stroke-linejoin:miter;stroke-miterlimit:4;stroke-dasharray:none;stroke-opacity:1"
         id="rect3719"
         width="5.0255103"
         height="5.0000005"
         x="-23.850945"
         y="-58.214027"
         transform="scale(-1,-1)" />
      <rect
         style="opacity:0.40000000000000002;fill:url(#linearGradient6425);fill-opacity:1;stroke:none;stroke-width:1;stroke-linecap:round;stroke-linejoin:miter;stroke-miterlimit:4;stroke-dasharray:none;stroke-opacity:1"
         id="rect3721"
         width="28.142859"
         height="5.000001"
         x="23.850945"
         y="53.214027" />
    </g>
    <rect
       y="2.5011549"
       x="3.501153"
       height="33"
       width="40.997696"
       id="rect5508"
       style="fill:url(#linearGradient5626);fill-opacity:1;fill-rule:evenodd;stroke:url(#linearGradient5628);stroke-width:1.00230563;stroke-linecap:round;stroke-linejoin:round;stroke-miterlimit:4;stroke-dasharray:none;stroke-dashoffset:0;stroke-opacity:1" />
    <rect
       y="5.5117054"
       x="25.511703"
       height="26.976591"
       width="15.976592"
       id="rect7919"
       style="fill:none;fill-opacity:1;fill-rule:evenodd;stroke:#bebebe;stroke-width:1.02340627;stroke-linecap:round;stroke-linejoin:miter;stroke-miterlimit:4;stroke-dasharray:none;stroke-dashoffset:0;stroke-opacity:1;display:inline;enable-background:new" />
    <rect
       y="5.5123024"
       x="14.5123"
       height="26.975397"
       width="10.975399"
       id="rect7917"
       style="fill:none;fill-opacity:1;fill-rule:evenodd;stroke:#bebebe;stroke-width:1.02460182;stroke-linecap:round;stroke-linejoin:miter;stroke-miterlimit:4;stroke-dasharray:none;stroke-dashoffset:0;stroke-opacity:1;display:inline;enable-background:new" />
    <rect
       y="6.5057158"
       x="6.5057163"
       height="25.988567"
       width="3.9885678"
       id="rect7913"
       style="fill:none;fill-opacity:1;fill-rule:evenodd;stroke:#bebebe;stroke-width:1.01143217;stroke-linecap:round;stroke-linejoin:miter;stroke-miterlimit:4;stroke-dasharray:none;stroke-dashoffset:0;stroke-opacity:1" />
    <rect
       y="5.5141106"
       x="10.514109"
       height="26.971781"
       width="3.9717829"
       id="rect7923"
       style="fill:none;fill-opacity:1;fill-rule:evenodd;stroke:#bebebe;stroke-width:1.02821672;stroke-linecap:round;stroke-linejoin:miter;stroke-miterlimit:4;stroke-dasharray:none;stroke-dashoffset:0;stroke-opacity:1;display:inline;enable-background:new" />
    <rect
       y="5.5006104"
       x="6.5006104"
       height="3.9987795"
       width="34.998779"
       id="rect7905"
       style="fill:#deaa76;fill-opacity:1;fill-rule:evenodd;stroke:#cd8033;stroke-width:1.00122046;stroke-linecap:round;stroke-linejoin:miter;stroke-miterlimit:4;stroke-dasharray:none;stroke-dashoffset:0;stroke-opacity:1" />
    <rect
       y="13.499419"
       x="6.4994202"
       height="3.0011594"
       width="35.00116"
       id="rect7907"
       style="fill:#fed995;fill-opacity:1;fill-rule:evenodd;stroke:#c7af64;stroke-width:0.99884051;stroke-linecap:round;stroke-linejoin:miter;stroke-miterlimit:4;stroke-dasharray:none;stroke-dashoffset:0;stroke-opacity:1" />
    <rect
       y="20.496849"
       x="6.496851"
       height="2.0062988"
       width="35.006298"
       id="rect7909"
       style="fill:#fed995;fill-opacity:1;fill-rule:evenodd;stroke:#beaf6d;stroke-width:0.99370164;stroke-linecap:round;stroke-linejoin:miter;stroke-miterlimit:4;stroke-dasharray:none;stroke-dashoffset:0;stroke-opacity:1;display:inline;enable-background:new" />
    <rect
       y="25.496851"
       x="6.496851"
       height="2.0062988"
       width="35.006298"
       id="rect7911"
       style="fill:#fed995;fill-opacity:1;fill-rule:evenodd;stroke:#beaf6d;stroke-width:0.99370164;stroke-linecap:round;stroke-linejoin:miter;stroke-miterlimit:4;stroke-dasharray:none;stroke-dashoffset:0;stroke-opacity:1;display:inline;enable-background:new" />
    <rect
       y="30.496849"
       x="6.496851"
       height="2.0062988"
       width="35.006298"
       id="rect7921"
       style="fill:#fed995;fill-opacity:1;fill-rule:evenodd;stroke:#beaf6d;stroke-width:0.99370164;stroke-linecap:round;stroke-linejoin:miter;stroke-miterlimit:4;stroke-dasharray:none;stroke-dashoffset:0;stroke-opacity:1;display:inline;enable-background:new" />
    <path
       nodetypes="cccccccccc"
       id="rect7955"
       d="M 7,6.000001 L 7,7.000001 L 41,7.000001 L 41,6.000001 L 7,6.000001 z M 7,14 L 7,15 L 41,15 L 41,14 L 7,14 z"
       style="opacity:0.3;fill:url(#linearGradient5614);fill-opacity:1;fill-rule:evenodd;stroke:none;stroke-width:1;stroke-linecap:round;stroke-linejoin:miter;stroke-miterlimit:4;stroke-dasharray:none;stroke-dashoffset:0;stroke-opacity:1" />
    <rect
       y="5.0000019"
       x="10"
       height="4"
       width="1"
       id="rect7925"
       style="fill:#cd8033;fill-opacity:1;fill-rule:evenodd;stroke:none;stroke-width:1;stroke-linecap:round;stroke-linejoin:miter;stroke-miterlimit:4;stroke-dasharray:none;stroke-dashoffset:0;stroke-opacity:1" />
    <rect
       y="5.0000019"
       x="14"
       height="4"
       width="1"
       id="rect7927"
       style="fill:#cd8033;fill-opacity:1;fill-rule:evenodd;stroke:none;stroke-width:1;stroke-linecap:round;stroke-linejoin:miter;stroke-miterlimit:4;stroke-dasharray:none;stroke-dashoffset:0;stroke-opacity:1;display:inline;enable-background:new" />
    <rect
       y="5.0000019"
       x="25"
       height="4"
       width="1"
       id="rect7929"
       style="fill:#cd8033;fill-opacity:1;fill-rule:evenodd;stroke:none;stroke-width:1;stroke-linecap:round;stroke-linejoin:miter;stroke-miterlimit:4;stroke-dasharray:none;stroke-dashoffset:0;stroke-opacity:1;display:inline;enable-background:new" />
    <rect
       y="13"
       x="10"
       height="4"
       width="1"
       id="rect7931"
       style="fill:#beaf6d;fill-opacity:1;fill-rule:evenodd;stroke:none;stroke-width:1;stroke-linecap:round;stroke-linejoin:miter;stroke-miterlimit:4;stroke-dasharray:none;stroke-dashoffset:0;stroke-opacity:1;display:inline;enable-background:new" />
    <rect
       y="13"
       x="14"
       height="4"
       width="1"
       id="rect7933"
       style="fill:#beaf6d;fill-opacity:1;fill-rule:evenodd;stroke:none;stroke-width:1;stroke-linecap:round;stroke-linejoin:miter;stroke-miterlimit:4;stroke-dasharray:none;stroke-dashoffset:0;stroke-opacity:1;display:inline;enable-background:new" />
    <rect
       y="13"
       x="25"
       height="4"
       width="1"
       id="rect7935"
       style="fill:#beaf6d;fill-opacity:1;fill-rule:evenodd;stroke:none;stroke-width:1;stroke-linecap:round;stroke-linejoin:miter;stroke-miterlimit:4;stroke-dasharray:none;stroke-dashoffset:0;stroke-opacity:1;display:inline;enable-background:new" />
    <rect
       y="20"
       x="10"
       height="3"
       width="1"
       id="rect7937"
       style="fill:#beaf6d;fill-opacity:1;fill-rule:evenodd;stroke:none;stroke-width:1;stroke-linecap:round;stroke-linejoin:miter;stroke-miterlimit:4;stroke-dasharray:none;stroke-dashoffset:0;stroke-opacity:1;display:inline;enable-background:new" />
    <rect
       y="20"
       x="25"
       height="3"
       width="1"
       id="rect7939"
       style="fill:#beaf6d;fill-opacity:1;fill-rule:evenodd;stroke:none;stroke-width:1;stroke-linecap:round;stroke-linejoin:miter;stroke-miterlimit:4;stroke-dasharray:none;stroke-dashoffset:0;stroke-opacity:1;display:inline;enable-background:new" />
    <rect
       y="20"
       x="14"
       height="3"
       width="1"
       id="rect7941"
       style="fill:#beaf6d;fill-opacity:1;fill-rule:evenodd;stroke:none;stroke-width:1;stroke-linecap:round;stroke-linejoin:miter;stroke-miterlimit:4;stroke-dasharray:none;stroke-dashoffset:0;stroke-opacity:1;display:inline;enable-background:new" />
    <rect
       y="25"
       x="10"
       height="3"
       width="1"
       id="rect7943"
       style="fill:#beaf6d;fill-opacity:1;fill-rule:evenodd;stroke:none;stroke-width:1;stroke-linecap:round;stroke-linejoin:miter;stroke-miterlimit:4;stroke-dasharray:none;stroke-dashoffset:0;stroke-opacity:1;display:inline;enable-background:new" />
    <rect
       y="25"
       x="14"
       height="3"
       width="1"
       id="rect7945"
       style="fill:#beaf6d;fill-opacity:1;fill-rule:evenodd;stroke:none;stroke-width:1;stroke-linecap:round;stroke-linejoin:miter;stroke-miterlimit:4;stroke-dasharray:none;stroke-dashoffset:0;stroke-opacity:1;display:inline;enable-background:new" />
    <rect
       y="25"
       x="25"
       height="3"
       width="1"
       id="rect7947"
       style="fill:#beaf6d;fill-opacity:1;fill-rule:evenodd;stroke:none;stroke-width:1;stroke-linecap:round;stroke-linejoin:miter;stroke-miterlimit:4;stroke-dasharray:none;stroke-dashoffset:0;stroke-opacity:1;display:inline;enable-background:new" />
    <rect
       y="30"
       x="10"
       height="3"
       width="1"
       id="rect7949"
       style="fill:#beaf6d;fill-opacity:1;fill-rule:evenodd;stroke:none;stroke-width:1;stroke-linecap:round;stroke-linejoin:miter;stroke-miterlimit:4;stroke-dasharray:none;stroke-dashoffset:0;stroke-opacity:1;display:inline;enable-background:new" />
    <rect
       y="30"
       x="14"
       height="3"
       width="1"
       id="rect7951"
       style="fill:#beaf6d;fill-opacity:1;fill-rule:evenodd;stroke:none;stroke-width:1;stroke-linecap:round;stroke-linejoin:miter;stroke-miterlimit:4;stroke-dasharray:none;stroke-dashoffset:0;stroke-opacity:1;display:inline;enable-background:new" />
    <rect
       y="30"
       x="25"
       height="3"
       width="1"
       id="rect7953"
       style="fill:#beaf6d;fill-opacity:1;fill-rule:evenodd;stroke:none;stroke-width:1;stroke-linecap:round;stroke-linejoin:miter;stroke-miterlimit:4;stroke-dasharray:none;stroke-dashoffset:0;stroke-opacity:1;display:inline;enable-background:new" />
    <rect
       y="3.5002956"
       x="4.5002928"
       height="29.999414"
       width="38.999416"
       id="rect7970"
       style="opacity:0.80000000000000004;fill:none;fill-opacity:1;fill-rule:evenodd;stroke:url(#radialGradient6407);stroke-width:1.00058508000000002;stroke-linecap:round;stroke-linejoin:miter;stroke-miterlimit:4;stroke-dasharray:none;stroke-dashoffset:0;stroke-opacity:1" />
    <path
       id="rect8008"
       d="M 18,44 L 18,45 L 19,45 L 19,44 L 18,44 z M 20,44 L 20,45 L 21,45 L 21,44 L 20,44 z M 22,44 L 22,45 L 23,45 L 23,44 L 22,44 z M 24,44 L 24,45 L 25,45 L 25,44 L 24,44 z M 26,44 L 26,45 L 27,45 L 27,44 L 26,44 z M 28,44 L 28,45 L 29,45 L 29,44 L 28,44 z M 30,44 L 30,45 L 31,45 L 31,44 L 30,44 z M 32,44 L 32,45 L 33,45 L 33,44 L 32,44 z M 34,44 L 34,45 L 35,45 L 35,44 L 34,44 z M 36,44 L 36,45 L 37,45 L 37,44 L 36,44 z M 38,44 L 38,45 L 39,45 L 39,44 L 38,44 z M 40,44 L 40,45 L 41,45 L 41,44 L 40,44 z M 42,44 L 42,45 L 43,45 L 43,44 L 42,44 z M 44,44 L 44,45 L 45,45 L 45,44 L 44,44 z"
       style="fill:#cd8033;fill-opacity:1;fill-rule:evenodd;stroke:none;stroke-width:1;stroke-linecap:round;stroke-linejoin:miter;stroke-miterlimit:4;stroke-dasharray:none;stroke-dashoffset:0;stroke-opacity:1;display:inline;enable-background:new" />
    <path
       nodetypes="cccccccccccccccccccccccccccccccccccccccccccccccccccccc"
       id="path8037"
       d="M 14,16 L 14,18 L 18,18 L 18,19 L 16,19 L 16,20 L 18,20 L 18,21 L 16,21 L 16,22 L 18,22 L 18,23 L 14,23 L 14,24 L 18,24 L 18,25 L 16,25 L 16,26 L 18,26 L 18,27 L 16,27 L 16,28 L 18,28 L 18,29 L 14,29 L 14,30 L 18,30 L 18,31 L 16,31 L 16,32 L 18,32 L 18,33 L 16,33 L 16,34 L 18,34 L 18,35 L 14,35 L 14,36 L 18,36 L 18,37 L 16,37 L 16,38 L 18,38 L 18,39 L 16,39 L 16,40 L 18,40 L 18,42 L 19,42 L 45,42 L 45,41 L 19,41 L 19,16 L 14,16 z"
       style="opacity:0.2;fill:#464646;fill-opacity:1;fill-rule:evenodd;stroke:none;stroke-width:1;stroke-linecap:round;stroke-linejoin:miter;stroke-miterlimit:4;stroke-dasharray:none;stroke-dashoffset:0;stroke-opacity:1;display:inline;enable-background:new" />
    <path
       id="rect8055"
       d="M 17,44 L 17,45 L 18,45 L 18,44 L 17,44 z M 19,44 L 19,45 L 20,45 L 20,44 L 19,44 z M 21,44 L 21,45 L 22,45 L 22,44 L 21,44 z M 23,44 L 23,45 L 24,45 L 24,44 L 23,44 z M 25,44 L 25,45 L 26,45 L 26,44 L 25,44 z M 27,44 L 27,45 L 28,45 L 28,44 L 27,44 z M 29,44 L 29,45 L 30,45 L 30,44 L 29,44 z M 31,44 L 31,45 L 32,45 L 32,44 L 31,44 z M 33,44 L 33,45 L 34,45 L 34,44 L 33,44 z M 35,44 L 35,45 L 36,45 L 36,44 L 35,44 z M 37,44 L 37,45 L 38,45 L 38,44 L 37,44 z M 39,44 L 39,45 L 40,45 L 40,44 L 39,44 z M 41,44 L 41,45 L 42,45 L 42,44 L 41,44 z M 43,44 L 43,45 L 44,45 L 44,44 L 43,44 z"
       style="opacity:0.2;fill:#464646;fill-opacity:1;fill-rule:evenodd;stroke:none;stroke-width:1;stroke-linecap:round;stroke-linejoin:miter;stroke-miterlimit:4;stroke-dasharray:none;stroke-dashoffset:0;stroke-opacity:1;display:inline;enable-background:new" />
    <rect
       y="25.497139"
       x="21.497137"
       height="17.005724"
       width="5.0057235"
       id="rect8085"
       style="fill:url(#linearGradient5588);fill-opacity:1;fill-rule:evenodd;stroke:url(#linearGradient5590);stroke-width:0.99427646;stroke-linecap:round;stroke-linejoin:miter;stroke-miterlimit:4;stroke-dasharray:none;stroke-dashoffset:0;stroke-opacity:1" />
    <rect
       y="30.488728"
       x="29.488724"
       height="12.022551"
       width="5.022553"
       id="rect8087"
       style="fill:url(#linearGradient5585);fill-opacity:1;fill-rule:evenodd;stroke:#42770c;stroke-width:0.9774462;stroke-linecap:round;stroke-linejoin:miter;stroke-miterlimit:4;stroke-dasharray:none;stroke-dashoffset:0;stroke-opacity:1;display:inline;enable-background:new" />
    <rect
       y="20.503574"
       x="37.503578"
       height="21.992849"
       width="4.9928474"
       id="rect8089"
       style="fill:url(#linearGradient5582);fill-opacity:1;fill-rule:evenodd;stroke:#0854a9;stroke-width:1.00715113;stroke-linecap:round;stroke-linejoin:miter;stroke-miterlimit:4;stroke-dasharray:none;stroke-dashoffset:0;stroke-opacity:1;display:inline;enable-background:new" />
    <path
       id="rect7980"
       d="M 14,16 L 14,17 L 17,17 L 17,18 L 16,18 L 16,19 L 17,19 L 17,20 L 16,20 L 16,21 L 17,21 L 17,22 L 14,22 L 14,23 L 17,23 L 17,24 L 16,24 L 16,25 L 17,25 L 17,26 L 16,26 L 16,27 L 17,27 L 17,28 L 14,28 L 14,29 L 17,29 L 17,30 L 16,30 L 16,31 L 17,31 L 17,32 L 16,32 L 16,33 L 17,33 L 17,34 L 14,34 L 14,35 L 17,35 L 17,36 L 16,36 L 16,37 L 17,37 L 17,38 L 16,38 L 16,39 L 17,39 L 17,43 L 18,43 L 45,43 L 45,42 L 18,42 L 18,16 L 14,16 z"
       style="fill:#464646;fill-opacity:1;fill-rule:evenodd;stroke:none;stroke-width:1;stroke-linecap:round;stroke-linejoin:miter;stroke-miterlimit:4;stroke-dasharray:none;stroke-dashoffset:0;stroke-opacity:1" />
    <path
       id="path6330"
       d="M 22.497662,41.502338 L 22.497662,26.497662 L 25.502339,26.497662 L 25.502339,41.502338"
       style="opacity:0.59999999999999998;fill:none;fill-opacity:1;fill-rule:evenodd;stroke:url(#radialGradient6409);stroke-width:0.99532294000000021;stroke-linecap:square;stroke-linejoin:miter;stroke-miterlimit:4;stroke-dashoffset:0;stroke-opacity:1" />
    <path
       id="path6340"
       d="M 30.497558,41.502442 L 30.497558,31.497558 L 33.502442,31.497558 L 33.502442,41.502442"
       style="opacity:0.59999999999999998;fill:none;fill-opacity:1;fill-rule:evenodd;stroke:url(#radialGradient6411);stroke-width:0.99511516000000000;stroke-linecap:square;stroke-linejoin:miter;stroke-miterlimit:4;stroke-dasharray:none;stroke-dashoffset:0;stroke-opacity:1;display:inline;enable-background:new" />
    <path
       id="path6344"
       d="M 38.501617,41.498382 L 38.501617,21.501617 L 41.498382,21.501617 L 41.498382,41.498382"
       style="opacity:0.59999999999999998;fill:none;fill-opacity:1;fill-rule:evenodd;stroke:url(#radialGradient6413);stroke-width:1.00323629000000003;stroke-linecap:square;stroke-linejoin:miter;stroke-miterlimit:4;stroke-dasharray:none;stroke-dashoffset:0;stroke-opacity:1;display:inline;enable-background:new" />
  </g>
</svg>
