<?xml version="1.0" encoding="UTF-8" standalone="no"?>
<!-- Created with Inkscape (http://www.inkscape.org/) -->
<svg
   xmlns:svg="http://www.w3.org/2000/svg"
   xmlns="http://www.w3.org/2000/svg"
   xmlns:xlink="http://www.w3.org/1999/xlink"
   width="48"
   height="48"
   id="svg11300"
   version="1.0">
  <defs
     id="defs3">
    <linearGradient
       id="linearGradient5460">
      <stop
         style="stop-color:#e5e5e5;stop-opacity:1.0000000;"
         offset="0.0000000"
         id="stop5462" />
      <stop
         style="stop-color:#c8c8c8;stop-opacity:1.0000000;"
         offset="1.0000000"
         id="stop5464" />
    </linearGradient>
    <linearGradient
       id="linearGradient2296"
       inkscape:collect="always">
      <stop
         id="stop2298"
         offset="0"
         style="stop-color:#ffffff;stop-opacity:1;" />
      <stop
         id="stop2300"
         offset="1"
         style="stop-color:#ffffff;stop-opacity:0;" />
    </linearGradient>
    <linearGradient
       id="linearGradient3116">
      <stop
         id="stop3118"
         offset="0.0000000"
         style="stop-color:#e5e5e5;stop-opacity:1.0000000;" />
      <stop
         id="stop3120"
         offset="1.0000000"
         style="stop-color:#dfdfdf;stop-opacity:1" />
    </linearGradient>
    <linearGradient
       id="linearGradient3702">
      <stop
         style="stop-color:black;stop-opacity:0;"
         offset="0"
         id="stop3704" />
      <stop
         id="stop3710"
         offset="0.5"
         style="stop-color:black;stop-opacity:1;" />
      <stop
         style="stop-color:black;stop-opacity:0;"
         offset="1"
         id="stop3706" />
    </linearGradient>
    <linearGradient
       inkscape:collect="always"
       id="linearGradient3688">
      <stop
         style="stop-color:black;stop-opacity:1;"
         offset="0"
         id="stop3690" />
      <stop
         style="stop-color:black;stop-opacity:0;"
         offset="1"
         id="stop3692" />
    </linearGradient>
    <linearGradient
       inkscape:collect="always"
       xlink:href="#linearGradient2296"
       id="linearGradient6424"
       gradientUnits="userSpaceOnUse"
       gradientTransform="matrix(0.969324,0.303467,-0.313034,0.999884,-26.51354,-28.87764)"
       x1="48"
       y1="18.534204"
       x2="78"
       y2="18.534204" />
    <linearGradient
       inkscape:collect="always"
       xlink:href="#linearGradient2296"
       id="linearGradient6436"
       gradientUnits="userSpaceOnUse"
       gradientTransform="matrix(0.869923,-1.2689951e-2,1.3406503e-2,0.8761486,-36.670258,2.5190229)"
       x1="54.287079"
       y1="9.1136208"
       x2="68.843483"
       y2="38.118332" />
    <linearGradient
       inkscape:collect="always"
       xlink:href="#linearGradient3116"
       id="linearGradient6441"
       gradientUnits="userSpaceOnUse"
       gradientTransform="matrix(0.7594396,0,0,0.9967147,-10.445355,1.1420554)"
       x1="34.561821"
       y1="17.249048"
       x2="50.808903"
       y2="44.769524" />
    <radialGradient
       inkscape:collect="always"
       xlink:href="#linearGradient2296"
       id="radialGradient6443"
       gradientUnits="userSpaceOnUse"
       gradientTransform="matrix(1,0,0,1.3086506,-5.0101896,-15.856636)"
       cx="10.185099"
       cy="20.631657"
       fx="10.185099"
       fy="20.631657"
       r="12.97739" />
    <linearGradient
       inkscape:collect="always"
       xlink:href="#linearGradient5460"
       id="linearGradient6446"
       gradientUnits="userSpaceOnUse"
       gradientTransform="matrix(0.7782624,0,0,1.0030321,-10.791192,0.790029)"
       x1="35.321308"
       y1="24.984463"
       x2="51.861248"
       y2="41.370472" />
    <linearGradient
       inkscape:collect="always"
       xlink:href="#linearGradient2296"
       id="linearGradient6462"
       gradientUnits="userSpaceOnUse"
       gradientTransform="matrix(0.969324,0.303467,-0.313034,0.999884,-26.51354,-28.87764)"
       x1="48"
       y1="18.534204"
       x2="78"
       y2="18.534204" />
    <linearGradient
       inkscape:collect="always"
       xlink:href="#linearGradient2296"
       id="linearGradient6475"
       gradientUnits="userSpaceOnUse"
       gradientTransform="matrix(0.869923,-1.2689951e-2,1.3406503e-2,0.8761486,-22.672053,-3.4827791)"
       x1="54.287079"
       y1="9.1136208"
       x2="68.843483"
       y2="38.118332" />
    <linearGradient
       inkscape:collect="always"
       xlink:href="#linearGradient3116"
       id="linearGradient6479"
       gradientUnits="userSpaceOnUse"
       gradientTransform="matrix(0.7594396,0,0,0.9967147,3.5426311,-4.8841207)"
       x1="34.561821"
       y1="17.249048"
       x2="50.808903"
       y2="44.769524" />
    <radialGradient
       inkscape:collect="always"
       xlink:href="#linearGradient2296"
       id="radialGradient6481"
       gradientUnits="userSpaceOnUse"
       gradientTransform="matrix(1,0,0,1.3086506,-5.0101896,-13.996654)"
       cx="24.260418"
       cy="14.132573"
       fx="24.260418"
       fy="14.132573"
       r="12.97739" />
    <linearGradient
       inkscape:collect="always"
       xlink:href="#linearGradient5460"
       id="linearGradient6484"
       gradientUnits="userSpaceOnUse"
       gradientTransform="matrix(0.7782624,0,0,1.0030321,3.1969407,-5.2365324)"
       x1="35.321308"
       y1="24.984463"
       x2="51.861248"
       y2="41.370472" />
    <radialGradient
       inkscape:collect="always"
       xlink:href="#linearGradient3688"
       id="radialGradient6494"
       gradientUnits="userSpaceOnUse"
       gradientTransform="matrix(2.003784,0,0,1.4,27.98813,-17.4)"
       cx="4.9929786"
       cy="43.5"
       fx="4.9929786"
       fy="43.5"
       r="2.5" />
    <radialGradient
       inkscape:collect="always"
       xlink:href="#linearGradient3688"
       id="radialGradient6496"
       gradientUnits="userSpaceOnUse"
       gradientTransform="matrix(2.003784,0,0,1.4,-20.01187,-104.4)"
       cx="4.9929786"
       cy="43.5"
       fx="4.9929786"
       fy="43.5"
       r="2.5" />
    <linearGradient
       inkscape:collect="always"
       xlink:href="#linearGradient3702"
       id="linearGradient6498"
       gradientUnits="userSpaceOnUse"
       x1="25.058096"
       y1="47.027729"
       x2="25.058096"
       y2="39.999443" />
    <radialGradient
       inkscape:collect="always"
       xlink:href="#linearGradient3688"
       id="radialGradient6500"
       gradientUnits="userSpaceOnUse"
       gradientTransform="matrix(2.003784,0,0,1.4,27.98813,-17.4)"
       cx="4.9929786"
       cy="43.5"
       fx="4.9929786"
       fy="43.5"
       r="2.5" />
    <radialGradient
       inkscape:collect="always"
       xlink:href="#linearGradient3688"
       id="radialGradient6502"
       gradientUnits="userSpaceOnUse"
       gradientTransform="matrix(2.003784,0,0,1.4,-20.01187,-104.4)"
       cx="4.9929786"
       cy="43.5"
       fx="4.9929786"
       fy="43.5"
       r="2.5" />
    <linearGradient
       inkscape:collect="always"
       xlink:href="#linearGradient3702"
       id="linearGradient6504"
       gradientUnits="userSpaceOnUse"
       x1="25.058096"
       y1="47.027729"
       x2="25.058096"
       y2="39.999443" />
  </defs>
  <g
     id="g6506">
    <g
       transform="matrix(0.7499997,0,0,0.7777785,13.000001,3.4444095)"
       inkscape:label="Shadow"
       id="g7130"
       style="display:inline;enable-background:new">
      <g
         transform="translate(-2e-6,2.838692e-5)"
         inkscape:label="Shadow"
         id="g7132"
         style="display:inline">
        <g
           transform="matrix(1.052632,0,0,1.285713,-1.263158,-13.42854)"
           style="opacity:0.4"
           id="g7134">
          <rect
             style="opacity:1;fill:url(#radialGradient6500);fill-opacity:1;stroke:none;stroke-width:1;stroke-linecap:round;stroke-linejoin:miter;stroke-miterlimit:4;stroke-dasharray:none;stroke-opacity:1"
             id="rect7136"
             width="5"
             height="7"
             x="38"
             y="40" />
          <rect
             style="opacity:1;fill:url(#radialGradient6502);fill-opacity:1;stroke:none;stroke-width:1;stroke-linecap:round;stroke-linejoin:miter;stroke-miterlimit:4;stroke-dasharray:none;stroke-opacity:1"
             id="rect7138"
             width="5"
             height="7"
             x="-10"
             y="-47"
             transform="scale(-1,-1)" />
          <rect
             style="opacity:1;fill:url(#linearGradient6504);fill-opacity:1;stroke:none;stroke-width:1;stroke-linecap:round;stroke-linejoin:miter;stroke-miterlimit:4;stroke-dasharray:none;stroke-opacity:1"
             id="rect7140"
             width="28"
             height="7.0000005"
             x="10"
             y="40" />
        </g>
      </g>
    </g>
    <g
       style="stroke-width:1.25171566;stroke-miterlimit:4;stroke-dasharray:none;display:inline;enable-background:new"
       transform="matrix(0.8008931,-0.1965967,0.211334,0.7450423,5.495629,12.05506)"
       id="g6536">
      <path
         style="opacity:0.51648356;fill:url(#linearGradient6462);fill-opacity:1;fill-rule:evenodd;stroke:none;stroke-width:1.25171566;stroke-linecap:butt;stroke-linejoin:miter;stroke-miterlimit:4;stroke-dasharray:none;stroke-opacity:1"
         d="M 11.249051,13.68551 C 22.267512,21.50188 31.322859,13.953532 40.328776,22.789518 L 45.504535,4.7780871 L 44.31062,2.2533867 L 19.506897,-5.5996203 L 16.789787,-4.2944189 L 11.249051,13.68551 z"
         id="path6538"
         sodipodi:nodetypes="ccccccc" />
    </g>
    <rect
       transform="matrix(0.9999984,1.7694236e-3,-1.67447e-3,0.9999986,0,0)"
       rx="2.6408303"
       ry="2.5337005"
       y="2.4606693"
       x="17.554857"
       height="34.965298"
       width="26.953573"
       id="rect6540"
       style="fill:url(#linearGradient6484);fill-opacity:1;fill-rule:nonzero;stroke:#888a85;stroke-width:1;stroke-linecap:round;stroke-linejoin:miter;stroke-miterlimit:4;stroke-dasharray:none;stroke-dashoffset:0;stroke-opacity:1;display:inline;enable-background:new" />
    <rect
       transform="matrix(0.9999985,1.7418268e-3,-1.6994717e-3,0.9999986,0,0)"
       rx="1.9233968"
       ry="1.7255259"
       y="3.4625199"
       x="18.554743"
       height="32.965771"
       width="24.954815"
       id="rect6542"
       style="fill:url(#linearGradient6479);fill-opacity:1;fill-rule:nonzero;stroke:url(#radialGradient6481);stroke-width:0.99996448;stroke-linecap:round;stroke-linejoin:miter;stroke-miterlimit:4;stroke-dasharray:none;stroke-dashoffset:0;stroke-opacity:1;display:inline;enable-background:new" />
    <path
       sodipodi:nodetypes="csccccsc"
       id="path6605"
       d="M 21.951161,5 C 20.556642,6.252397 19.992107,6.600817 20.000083,7.291735 C 20.007839,7.96338 20.945054,8.535078 21.743569,8.099878 C 21.835541,8.40066 21.861327,8.737803 21.429119,9.002221 C 21.46448,9.001633 22.571733,9.002221 22.571733,9.002221 C 22.179445,8.731151 22.156895,8.382123 22.267649,8.045277 C 23.162657,8.541166 24.009817,7.972511 23.999914,7.190715 C 23.989796,6.370975 23.463736,6.118291 21.951161,5 z"
       style="fill:#000000;fill-opacity:1;fill-rule:evenodd;stroke:none;stroke-width:0.99999988;stroke-linecap:butt;stroke-linejoin:miter;stroke-miterlimit:4;stroke-dasharray:none;stroke-opacity:1;display:inline;enable-background:new" />
    <path
       sodipodi:nodetypes="ccccccc"
       id="path6546"
       d="M 19.162723,20.21094 C 30.222001,23.535251 33.302815,14.911111 42.998205,19.572112 L 42.977788,4.674206 C 42.984918,3.831408 42.582244,3.270255 41.333713,3.286119 L 20.860821,2.998205 C 19.685495,2.995209 18.953561,3.993701 19.00032,4.746165 L 19.162723,20.21094 z"
       style="opacity:0.51648356;fill:url(#linearGradient6475);fill-opacity:1;fill-rule:evenodd;stroke:none;stroke-width:1;stroke-linecap:butt;stroke-linejoin:miter;stroke-miterlimit:4;stroke-dasharray:none;stroke-opacity:1;display:inline;enable-background:new" />
    <path
       sodipodi:nodetypes="csccccsc"
       id="path3059"
       d="M 30.830522,14 C 25.948662,18.38165 23.972371,19.60064 24.000291,22.017892 C 24.027442,24.367718 27.308392,26.367869 30.103792,24.845274 C 30.425762,25.89759 30.516032,27.077126 29.002982,28.002221 C 29.126772,28.000163 33.002982,28.002221 33.002982,28.002221 C 31.629682,27.053853 31.550742,25.832737 31.938462,24.654245 C 35.071662,26.389168 38.037352,24.399664 38.002682,21.664464 C 37.967262,18.796512 36.125662,17.912464 30.830522,14 z"
       style="fill:#000000;fill-opacity:1;fill-rule:evenodd;stroke:none;stroke-width:0.99999988;stroke-linecap:butt;stroke-linejoin:miter;stroke-miterlimit:4;stroke-dasharray:none;stroke-opacity:1" />
    <path
       sodipodi:nodetypes="csccccsc"
       id="path6607"
       d="M 39.951161,35 C 38.556642,33.747603 37.992107,33.399183 38.000083,32.708265 C 38.007839,32.03662 38.945054,31.464922 39.743569,31.900122 C 39.835541,31.59934 39.861327,31.262197 39.429119,30.997779 C 39.46448,30.998367 40.571733,30.997779 40.571733,30.997779 C 40.179445,31.268849 40.156895,31.617877 40.267649,31.954723 C 41.162657,31.458834 42.009817,32.027489 41.999914,32.809285 C 41.989796,33.629025 41.463736,33.881709 39.951161,35 z"
       style="fill:#000000;fill-opacity:1;fill-rule:evenodd;stroke:none;stroke-width:0.99999988;stroke-linecap:butt;stroke-linejoin:miter;stroke-miterlimit:4;stroke-dasharray:none;stroke-opacity:1;display:inline;enable-background:new" />
    <g
       style="opacity:1"
       transform="matrix(0.7499997,0,0,0.7777787,-0.9999988,9.4444028)"
       inkscape:label="Shadow"
       id="g7056">
      <g
         transform="translate(-2e-6,2.838692e-5)"
         inkscape:label="Shadow"
         id="g2033"
         style="display:inline">
        <g
           transform="matrix(1.052632,0,0,1.285713,-1.263158,-13.42854)"
           style="opacity:0.4"
           id="g3712">
          <rect
             style="opacity:1;fill:url(#radialGradient6494);fill-opacity:1;stroke:none;stroke-width:1;stroke-linecap:round;stroke-linejoin:miter;stroke-miterlimit:4;stroke-dasharray:none;stroke-opacity:1"
             id="rect2801"
             width="5"
             height="7"
             x="38"
             y="40" />
          <rect
             style="opacity:1;fill:url(#radialGradient6496);fill-opacity:1;stroke:none;stroke-width:1;stroke-linecap:round;stroke-linejoin:miter;stroke-miterlimit:4;stroke-dasharray:none;stroke-opacity:1"
             id="rect3696"
             width="5"
             height="7"
             x="-10"
             y="-47"
             transform="scale(-1,-1)" />
          <rect
             style="opacity:1;fill:url(#linearGradient6498);fill-opacity:1;stroke:none;stroke-width:1;stroke-linecap:round;stroke-linejoin:miter;stroke-miterlimit:4;stroke-dasharray:none;stroke-opacity:1"
             id="rect3700"
             width="28"
             height="7.0000005"
             x="10"
             y="40" />
        </g>
      </g>
    </g>
    <g
       style="stroke-width:1.25171566;stroke-miterlimit:4;stroke-dasharray:none"
       transform="matrix(0.8008931,-0.1965967,0.211334,0.7450423,-8.5025753,18.056862)"
       id="g3042">
      <path
         style="opacity:0.51648356;fill:url(#linearGradient6424);fill-opacity:1;fill-rule:evenodd;stroke:none;stroke-width:1.25171566;stroke-linecap:butt;stroke-linejoin:miter;stroke-miterlimit:4;stroke-dasharray:none;stroke-opacity:1"
         d="M 11.249051,13.68551 C 22.267512,21.50188 31.322859,13.953532 40.328776,22.789518 L 45.504535,4.7780871 L 44.31062,2.2533867 L 19.506897,-5.5996203 L 16.789787,-4.2944189 L 11.249051,13.68551 z"
         id="path3055"
         sodipodi:nodetypes="ccccccc" />
    </g>
    <rect
       transform="matrix(0.9999984,1.7694234e-3,-1.67447e-3,0.9999986,0,0)"
       rx="2.6408303"
       ry="2.5337005"
       y="8.4872303"
       x="3.5667241"
       height="34.965298"
       width="26.953573"
       id="rect7756"
       style="fill:url(#linearGradient6446);fill-opacity:1;fill-rule:nonzero;stroke:#888a85;stroke-width:1;stroke-linecap:round;stroke-linejoin:miter;stroke-miterlimit:4;stroke-dasharray:none;stroke-dashoffset:0;stroke-opacity:1" />
    <rect
       transform="matrix(0.9999985,1.7418268e-3,-1.6994719e-3,0.9999986,0,0)"
       rx="1.9233968"
       ry="1.7255256"
       y="9.4886971"
       x="4.5667577"
       height="32.965771"
       width="24.954815"
       id="rect7758"
       style="fill:url(#linearGradient6441);fill-opacity:1;fill-rule:nonzero;stroke:url(#radialGradient6443);stroke-width:0.99996436;stroke-linecap:round;stroke-linejoin:miter;stroke-miterlimit:4;stroke-dasharray:none;stroke-dashoffset:0;stroke-opacity:1" />
    <path
       sodipodi:nodetypes="czczc"
       id="path920"
       d="M 16.919494,22.373916 C 19.928851,19.238851 24.03782,22.155554 23.999737,25.139854 C 23.964923,27.868024 21.9793,29.166823 16.9851,34 C 11.792986,29.465022 9.961597,28.416744 10.000609,25.179852 C 10.040041,21.829177 13.576059,19.328286 16.919494,22.373916 z"
       style="fill:#cc0000;fill-opacity:1;fill-rule:evenodd;stroke:none;stroke-width:0.99999988;stroke-linecap:butt;stroke-linejoin:miter;stroke-miterlimit:4;stroke-dasharray:none;stroke-opacity:1" />
    <path
       sodipodi:nodetypes="czczc"
       id="path6639"
       d="M 7.976998,11.422743 C 8.836815,10.458108 10.010806,11.355555 9.999925,12.273801 C 9.989978,13.113238 9.422657,13.512869 7.995743,15 C 6.512282,13.604622 5.989028,13.282075 6.000174,12.286108 C 6.011441,11.255131 7.021731,10.485627 7.976998,11.422743 z"
       style="fill:#cc0000;fill-opacity:1;fill-rule:evenodd;stroke:none;stroke-width:0.99999988;stroke-linecap:butt;stroke-linejoin:miter;stroke-miterlimit:4;stroke-dasharray:none;stroke-opacity:1;display:inline;enable-background:new" />
    <path
       sodipodi:nodetypes="ccccccc"
       id="path3820"
       d="M 5.164518,26.212742 C 16.223796,29.537053 19.30461,20.912913 29,25.573914 L 28.979583,10.676008 C 28.986713,9.83321 28.584039,9.272057 27.335508,9.287921 L 6.862616,9.000007 C 5.68729,8.997011 4.9553568,9.995503 5.002115,10.747967 L 5.164518,26.212742 z"
       style="opacity:0.51648356;fill:url(#linearGradient6436);fill-opacity:1;fill-rule:evenodd;stroke:none;stroke-width:1;stroke-linecap:butt;stroke-linejoin:miter;stroke-miterlimit:4;stroke-dasharray:none;stroke-opacity:1" />
    <path
       sodipodi:nodetypes="czczc"
       id="path6641"
       d="M 25.976998,40.577257 C 26.836815,41.541892 28.010806,40.644445 27.999925,39.726199 C 27.989978,38.886762 27.422657,38.487131 25.995743,37 C 24.512282,38.395378 23.989028,38.717925 24.000174,39.713892 C 24.011441,40.744869 25.021731,41.514373 25.976998,40.577257 z"
       style="fill:#cc0000;fill-opacity:1;fill-rule:evenodd;stroke:none;stroke-width:0.99999988;stroke-linecap:butt;stroke-linejoin:miter;stroke-miterlimit:4;stroke-dasharray:none;stroke-opacity:1;display:inline;enable-background:new" />
  </g>
</svg>
