<?xml version="1.0" encoding="UTF-8" standalone="no"?>
<!-- Created with Inkscape (http://www.inkscape.org/) -->
<svg
   xmlns:svg="http://www.w3.org/2000/svg"
   xmlns="http://www.w3.org/2000/svg"
   xmlns:xlink="http://www.w3.org/1999/xlink"
   width="22"
   height="22"
   id="svg11300"
   version="1.0">
  <defs
     id="defs3">
    <linearGradient
       id="linearGradient6482">
      <stop
         style="stop-color:#cd8033;stop-opacity:1;"
         offset="0"
         id="stop6484" />
      <stop
         style="stop-color:#bb5e12;stop-opacity:1;"
         offset="1"
         id="stop6486" />
    </linearGradient>
    <linearGradient
       id="linearGradient7962">
      <stop
         style="stop-color:#ffffff;stop-opacity:1;"
         offset="0"
         id="stop7964" />
      <stop
         style="stop-color:#ffffff;stop-opacity:0;"
         offset="1"
         id="stop7966" />
    </linearGradient>
    <linearGradient
       id="linearGradient6288">
      <stop
         style="stop-color:#969696;stop-opacity:1;"
         offset="0"
         id="stop6290" />
      <stop
         style="stop-color:#bebebe;stop-opacity:1;"
         offset="1"
         id="stop6292" />
    </linearGradient>
    <linearGradient
       id="linearGradient6280">
      <stop
         style="stop-color:#ffffff;stop-opacity:1;"
         offset="0"
         id="stop6282" />
      <stop
         style="stop-color:#dcdcdc;stop-opacity:1;"
         offset="1"
         id="stop6284" />
    </linearGradient>
    <linearGradient
       id="linearGradient4103">
      <stop
         style="stop-color:#edd563;stop-opacity:1;"
         offset="0"
         id="stop4105" />
      <stop
         style="stop-color:#e08223;stop-opacity:1;"
         offset="1"
         id="stop4107" />
    </linearGradient>
    <linearGradient
       id="linearGradient2264">
      <stop
         id="stop2266"
         offset="0"
         style="stop-color:#d7e866;stop-opacity:1;" />
      <stop
         id="stop2268"
         offset="1"
         style="stop-color:#8cab2a;stop-opacity:1;" />
    </linearGradient>
    <linearGradient
       id="linearGradient4103-772-865-112-606">
      <stop
         style="stop-color:#a7bce2;stop-opacity:1;"
         offset="0"
         id="stop139214" />
      <stop
         style="stop-color:#5077b1;stop-opacity:1;"
         offset="1"
         id="stop139216" />
    </linearGradient>
    <linearGradient
       inkscape:collect="always"
       xlink:href="#linearGradient7962"
       id="linearGradient5572"
       gradientUnits="userSpaceOnUse"
       gradientTransform="matrix(0.4705883,0,0,0.9999983,-2.6470647,-8.99998)"
       x1="29"
       y1="7.9375"
       x2="29"
       y2="40.9375" />
    <linearGradient
       inkscape:collect="always"
       xlink:href="#linearGradient6280"
       id="linearGradient5584"
       gradientUnits="userSpaceOnUse"
       gradientTransform="matrix(0.5121769,0,0,0.5555263,-3.8531339,-4.2215847)"
       x1="9.4142141"
       y1="9.4142122"
       x2="48.850956"
       y2="34.939339" />
    <linearGradient
       inkscape:collect="always"
       xlink:href="#linearGradient6288"
       id="linearGradient5586"
       gradientUnits="userSpaceOnUse"
       gradientTransform="matrix(0.5121769,0,0,0.5555263,-3.8531339,-4.2215847)"
       x1="48.850956"
       y1="34.939339"
       x2="9.4142141"
       y2="9.4142122" />
    <linearGradient
       inkscape:collect="always"
       xlink:href="#linearGradient4103-772-865-112-606"
       id="linearGradient6382"
       gradientUnits="userSpaceOnUse"
       gradientTransform="matrix(0.4008719,0,0,0.4547607,-0.539223,-2.098764)"
       x1="45"
       y1="24.999998"
       x2="45"
       y2="48" />
    <linearGradient
       inkscape:collect="always"
       xlink:href="#linearGradient2264"
       id="linearGradient6385"
       gradientUnits="userSpaceOnUse"
       gradientTransform="matrix(0.3986572,0,0,0.4992507,-1.250273,-4.218919)"
       x1="37"
       y1="35.000004"
       x2="37"
       y2="48" />
    <linearGradient
       inkscape:collect="always"
       xlink:href="#linearGradient4103"
       id="linearGradient6388"
       gradientUnits="userSpaceOnUse"
       gradientTransform="matrix(0.3991942,0,0,0.4703273,-2.076603,-2.842772)"
       x1="28.999998"
       y1="30"
       x2="28.999998"
       y2="48" />
    <linearGradient
       inkscape:collect="always"
       xlink:href="#linearGradient6482"
       id="linearGradient6390"
       gradientUnits="userSpaceOnUse"
       gradientTransform="translate(-95,-29)"
       x1="103.00001"
       y1="40"
       x2="103.00001"
       y2="49.000004" />
  </defs>
  <g
     id="g6393">
    <rect
       y="0.50012094"
       x="0.5001213"
       height="14.999758"
       width="20.999758"
       id="rect6776"
       style="fill:url(#linearGradient5584);fill-opacity:1;fill-rule:evenodd;stroke:url(#linearGradient5586);stroke-width:1.00024259;stroke-linecap:round;stroke-linejoin:round;stroke-miterlimit:4;stroke-dasharray:none;stroke-dashoffset:0;stroke-opacity:1" />
    <path
       sodipodi:nodetypes="ccccc"
       id="path6942"
       d="M 2,7 L 2,8 L 20.000009,8 L 20.000009,7 L 2,7 z"
       style="fill:#fed995;fill-opacity:1;fill-rule:evenodd;stroke:none;stroke-width:1.00851488;stroke-linecap:round;stroke-linejoin:miter;stroke-miterlimit:4;stroke-dashoffset:0;stroke-opacity:1;display:inline;enable-background:new" />
    <path
       sodipodi:nodetypes="ccccc"
       id="path6944"
       d="M 2,10 L 2,11 L 20.000009,11 L 20.000009,10 L 2,10 z"
       style="fill:#fed995;fill-opacity:1;fill-rule:evenodd;stroke:none;stroke-width:1.00851488;stroke-linecap:round;stroke-linejoin:miter;stroke-miterlimit:4;stroke-dashoffset:0;stroke-opacity:1;display:inline;enable-background:new" />
    <rect
       y="2.5001395"
       x="12.50054"
       height="10.999722"
       width="6.999722"
       id="rect6778"
       style="fill:none;fill-opacity:1;fill-rule:evenodd;stroke:#bebebe;stroke-width:1.00027812;stroke-linecap:round;stroke-linejoin:miter;stroke-miterlimit:4;stroke-dasharray:none;stroke-dashoffset:0;stroke-opacity:1;display:inline;enable-background:new" />
    <rect
       y="2.5001836"
       x="2.5001836"
       height="10.999633"
       width="1.9996328"
       id="rect6782"
       style="fill:none;fill-opacity:1;fill-rule:evenodd;stroke:#bebebe;stroke-width:1.00036716;stroke-linecap:round;stroke-linejoin:miter;stroke-miterlimit:4;stroke-dasharray:none;stroke-dashoffset:0;stroke-opacity:1" />
    <path
       sodipodi:nodetypes="ccccc"
       id="path5590"
       d="M 3,13 L 3,14 L 19,14 L 19,13 L 3,13 z"
       style="fill:#fed995;fill-opacity:1;fill-rule:evenodd;stroke:none;stroke-width:1.00851488;stroke-linecap:round;stroke-linejoin:miter;stroke-miterlimit:4;stroke-dashoffset:0;stroke-opacity:1;display:inline;enable-background:new" />
    <rect
       y="2.5001554"
       x="4.5001554"
       height="10.999689"
       width="2.9996886"
       id="rect6786"
       style="fill:none;fill-opacity:1;fill-rule:evenodd;stroke:#bebebe;stroke-width:1.00031114;stroke-linecap:round;stroke-linejoin:miter;stroke-miterlimit:4;stroke-dasharray:none;stroke-dashoffset:0;stroke-opacity:1;display:inline;enable-background:new" />
    <rect
       y="2.5001605"
       x="7.5001607"
       height="10.999679"
       width="4.9996781"
       id="rect6931"
       style="fill:none;fill-opacity:1;fill-rule:evenodd;stroke:#bebebe;stroke-width:1.00032175;stroke-linecap:round;stroke-linejoin:miter;stroke-miterlimit:4;stroke-dasharray:none;stroke-dashoffset:0;stroke-opacity:1;display:inline;enable-background:new" />
    <path
       sodipodi:nodetypes="ccccc"
       id="rect6933"
       d="M 2,9 L 2,10 L 20.000009,10 L 20.000009,9 L 2,9 z"
       style="fill:#c7af64;fill-opacity:1;fill-rule:evenodd;stroke:none;stroke-width:1.00851488;stroke-linecap:round;stroke-linejoin:miter;stroke-miterlimit:4;stroke-dashoffset:0;stroke-opacity:1;display:inline;enable-background:new" />
    <path
       sodipodi:nodetypes="ccccc"
       id="path6940"
       d="M 2,6 L 2,7 L 20.000009,7 L 20.000009,6 L 2,6 z"
       style="fill:#c7af64;fill-opacity:1;fill-rule:evenodd;stroke:none;stroke-width:1.00851488;stroke-linecap:round;stroke-linejoin:miter;stroke-miterlimit:4;stroke-dashoffset:0;stroke-opacity:1;display:inline;enable-background:new" />
    <rect
       y="2.5283053"
       x="2.5283005"
       height="1.9433854"
       width="16.943392"
       id="rect6790"
       style="fill:#deaa76;fill-opacity:1;fill-rule:evenodd;stroke:#cd8033;stroke-width:1.05661559;stroke-linecap:round;stroke-linejoin:miter;stroke-miterlimit:4;stroke-dasharray:none;stroke-dashoffset:0;stroke-opacity:1" />
    <path
       sodipodi:nodetypes="ccccc"
       id="path6794"
       d="M 2.9999911,3 L 2.9999911,4 L 19,4 L 19,3 L 2.9999911,3 z"
       style="opacity:0.1;fill:url(#linearGradient5572);fill-opacity:1;fill-rule:evenodd;stroke:none;stroke-width:1;stroke-linecap:round;stroke-linejoin:miter;stroke-miterlimit:4;stroke-dasharray:none;stroke-dashoffset:0;stroke-opacity:1" />
    <rect
       y="1.9997292"
       x="3.9999919"
       height="3.0005531"
       width="1"
       id="rect6796"
       style="fill:#cd8033;fill-opacity:1;fill-rule:evenodd;stroke:none;stroke-width:1;stroke-linecap:round;stroke-linejoin:miter;stroke-miterlimit:4;stroke-dasharray:none;stroke-dashoffset:0;stroke-opacity:1" />
    <rect
       transform="scale(-1,1)"
       y="2"
       x="-7.9999871"
       height="3.0005531"
       width="1"
       id="rect6798"
       style="fill:#cd8033;fill-opacity:1;fill-rule:evenodd;stroke:none;stroke-width:1;stroke-linecap:round;stroke-linejoin:miter;stroke-miterlimit:4;stroke-dasharray:none;stroke-dashoffset:0;stroke-opacity:1;display:inline;enable-background:new" />
    <rect
       y="2"
       x="10.999987"
       height="3"
       width="1"
       id="rect6800"
       style="fill:#cd8033;fill-opacity:1;fill-rule:evenodd;stroke:none;stroke-width:1;stroke-linecap:round;stroke-linejoin:miter;stroke-miterlimit:4;stroke-dasharray:none;stroke-dashoffset:0;stroke-opacity:1;display:inline;enable-background:new" />
    <path
       sodipodi:nodetypes="ccccc"
       id="path5588"
       d="M 2,12 L 2,13 L 20.000009,13 L 20.000009,12 L 2,12 z"
       style="fill:#c7af64;fill-opacity:1;fill-rule:evenodd;stroke:none;stroke-width:1.00851488;stroke-linecap:round;stroke-linejoin:miter;stroke-miterlimit:4;stroke-dashoffset:0;stroke-opacity:1;display:inline;enable-background:new" />
    <path
       sodipodi:nodetypes="ccccccccccccccccccc"
       id="path6946"
       d="M 4,8 L 4,10 L 6,10 L 6,12 L 4,12 L 4,13 L 6,13 L 6,15 L 4,15 L 4,16 L 6,16 L 6,18 L 4,18 L 4,19 L 21,19 L 21,18 L 7,18 L 7,8 L 4,8 z"
       style="opacity:0.2;fill:#464646;fill-opacity:1;fill-rule:evenodd;stroke:none;stroke-width:1;stroke-linecap:round;stroke-linejoin:miter;stroke-miterlimit:4;stroke-dasharray:none;stroke-dashoffset:0;stroke-opacity:1;display:inline;enable-background:new" />
    <rect
       y="11.500881"
       x="8.5008774"
       height="7.9982562"
       width="1.9982564"
       id="rect6824"
       style="fill:url(#linearGradient6388);fill-opacity:1;fill-rule:evenodd;stroke:url(#linearGradient6390);stroke-width:1.00174439;stroke-linecap:round;stroke-linejoin:miter;stroke-miterlimit:4;stroke-dasharray:none;stroke-dashoffset:0;stroke-opacity:1" />
    <rect
       y="13.498876"
       x="12.498863"
       height="6.0022702"
       width="2.0022771"
       id="rect6826"
       style="fill:url(#linearGradient6385);fill-opacity:1;fill-rule:evenodd;stroke:#42770c;stroke-width:0.99772954;stroke-linecap:round;stroke-linejoin:miter;stroke-miterlimit:4;stroke-dasharray:none;stroke-dashoffset:0;stroke-opacity:1;display:inline;enable-background:new" />
    <rect
       y="9.4992609"
       x="16.499252"
       height="10.001487"
       width="2.0014906"
       id="rect6828"
       style="fill:url(#linearGradient6382);fill-opacity:1;fill-rule:evenodd;stroke:#0854a9;stroke-width:0.99851143;stroke-linecap:round;stroke-linejoin:miter;stroke-miterlimit:4;stroke-dasharray:none;stroke-dashoffset:0;stroke-opacity:1;display:inline;enable-background:new" />
    <path
       sodipodi:nodetypes="cccccccccccccccccccccc"
       id="path6830"
       d="M 4,8 L 4,9 L 5,9 L 5,11 L 4,11 L 4,12 L 5,12 L 5,14 L 4,14 L 4,15 L 5,15 L 5,17 L 4,17 L 4,18 L 5,18 L 5,20 L 6.09524,20 L 21,20 L 21,19 L 6.09524,19 L 6.09524,8 L 4,8 z"
       style="fill:#464646;fill-opacity:1;fill-rule:evenodd;stroke:none;stroke-width:1;stroke-linecap:round;stroke-linejoin:miter;stroke-miterlimit:4;stroke-dasharray:none;stroke-dashoffset:0;stroke-opacity:1" />
    <path
       id="path6913"
       d="M 5,21 L 5,22 L 6,22 L 6,21 L 5,21 z M 7,21 L 7,22 L 8,22 L 8,21 L 7,21 z M 9,21 L 9,22 L 10,22 L 10,21 L 9,21 z M 11,21 L 11,22 L 12,22 L 12,21 L 11,21 z M 13,21 L 13,22 L 14,22 L 14,21 L 13,21 z M 15,21 L 15,22 L 16,22 L 16,21 L 15,21 z M 17,21 L 17,22 L 18,22 L 18,21 L 17,21 z M 19,21 L 19,22 L 20,22 L 20,21 L 19,21 z"
       style="opacity:0.2;fill:#464646;fill-opacity:1;fill-rule:evenodd;stroke:none;stroke-width:1;stroke-linecap:round;stroke-linejoin:miter;stroke-miterlimit:4;stroke-dasharray:none;stroke-dashoffset:0;stroke-opacity:1;display:inline;enable-background:new"
       sodipodi:nodetypes="cccccccccccccccccccccccccccccccccccccccc" />
    <path
       id="path6915"
       d="M 6,21 L 6,22 L 7,22 L 7,21 L 6,21 z M 8,21 L 8,22 L 9,22 L 9,21 L 8,21 z M 10,21 L 10,22 L 11,22 L 11,21 L 10,21 z M 12,21 L 12,22 L 13,22 L 13,21 L 12,21 z M 14,21 L 14,22 L 15,22 L 15,21 L 14,21 z M 16,21 L 16,22 L 17,22 L 17,21 L 16,21 z M 18,21 L 18,22 L 19,22 L 19,21 L 18,21 z M 20,21 L 20,22 L 21,22 L 21,21 L 20,21 z"
       style="fill:#cd8033;fill-opacity:1;fill-rule:evenodd;stroke:none;stroke-width:1;stroke-linecap:round;stroke-linejoin:miter;stroke-miterlimit:4;stroke-dasharray:none;stroke-dashoffset:0;stroke-opacity:1;display:inline;enable-background:new"
       sodipodi:nodetypes="cccccccccccccccccccccccccccccccccccccccc" />
  </g>
</svg>
