<?xml version="1.0" encoding="UTF-8" standalone="no"?>
<!-- Created with Inkscape (http://www.inkscape.org/) -->
<svg
   xmlns:svg="http://www.w3.org/2000/svg"
   xmlns="http://www.w3.org/2000/svg"
   xmlns:xlink="http://www.w3.org/1999/xlink"
   width="22"
   height="22"
   id="svg11300"
   version="1.0">
  <defs
     id="defs3">
    <linearGradient
       inkscape:collect="always"
       id="linearGradient6344">
      <stop
         style="stop-color:#ffffff;stop-opacity:1;"
         offset="0"
         id="stop6346" />
      <stop
         style="stop-color:#ffffff;stop-opacity:0;"
         offset="1"
         id="stop6348" />
    </linearGradient>
    <linearGradient
       id="linearGradient6761">
      <stop
         id="stop6763"
         offset="0"
         style="stop-color:#f0f0f0;stop-opacity:1;" />
      <stop
         style="stop-color:#c8c8c8;stop-opacity:1;"
         offset="0.62007451"
         id="stop6765" />
      <stop
         id="stop6767"
         offset="0.8129741"
         style="stop-color:#a0a0a0;stop-opacity:1;" />
      <stop
         style="stop-color:#a0a0a0;stop-opacity:1;"
         offset="0.91870362"
         id="stop6769" />
      <stop
         id="stop6771"
         offset="0.98263478"
         style="stop-color:#c8c8c8;stop-opacity:1;" />
      <stop
         id="stop6773"
         offset="1"
         style="stop-color:#dcdcdc;stop-opacity:1;" />
    </linearGradient>
    <linearGradient
       id="linearGradient6369">
      <stop
         style="stop-color:#8e8e8e;stop-opacity:1;"
         offset="0"
         id="stop6371" />
      <stop
         id="stop6373"
         offset="0.51944989"
         style="stop-color:#737373;stop-opacity:1;" />
      <stop
         style="stop-color:#5a5a5a;stop-opacity:1;"
         offset="0.68466324"
         id="stop6375" />
      <stop
         id="stop6377"
         offset="0.7648505"
         style="stop-color:#5a5a5a;stop-opacity:1;" />
      <stop
         style="stop-color:#595959;stop-opacity:1;"
         offset="0.91404903"
         id="stop6379" />
      <stop
         style="stop-color:#555555;stop-opacity:1;"
         offset="1"
         id="stop6381" />
    </linearGradient>
    <linearGradient
       id="linearGradient2264">
      <stop
         id="stop2266"
         offset="0"
         style="stop-color:#d7e866;stop-opacity:1;" />
      <stop
         id="stop2268"
         offset="1"
         style="stop-color:#8cab2a;stop-opacity:1;" />
    </linearGradient>
    <linearGradient
       inkscape:collect="always"
       id="linearGradient4222">
      <stop
         style="stop-color:#ffffff;stop-opacity:1;"
         offset="0"
         id="stop4224" />
      <stop
         style="stop-color:#ffffff;stop-opacity:0;"
         offset="1"
         id="stop4226" />
    </linearGradient>
    <linearGradient
       inkscape:collect="always"
       xlink:href="#linearGradient6761"
       id="linearGradient5560"
       gradientUnits="userSpaceOnUse"
       gradientTransform="matrix(0.546942,0,0,0.5547211,-4.3173069,-5.7938375)"
       x1="10.865535"
       y1="47.685928"
       x2="21.079702"
       y2="23.251602" />
    <linearGradient
       inkscape:collect="always"
       xlink:href="#linearGradient6369"
       id="linearGradient5562"
       gradientUnits="userSpaceOnUse"
       gradientTransform="matrix(0.546942,0,0,0.5547211,-4.3173069,-5.7938375)"
       x1="13.340408"
       y1="48.039482"
       x2="22.516865"
       y2="20.627432" />
    <linearGradient
       inkscape:collect="always"
       xlink:href="#linearGradient2264"
       id="linearGradient5566"
       gradientUnits="userSpaceOnUse"
       gradientTransform="matrix(0.5734971,0,0,0.5610748,-6.9092097,-4.2376525)"
       x1="39.787907"
       y1="12.287908"
       x2="43.348965"
       y2="16.181141" />
    <radialGradient
       inkscape:collect="always"
       xlink:href="#linearGradient6344"
       id="radialGradient6350"
       cx="15.392599"
       cy="4.7309699"
       fx="15.392599"
       fy="4.7309699"
       r="3.1047995"
       gradientTransform="matrix(1,0,0,0.8500189,0,0.5458021)"
       gradientUnits="userSpaceOnUse" />
    <radialGradient
       inkscape:collect="always"
       xlink:href="#linearGradient4222"
       id="radialGradient6352"
       cx="7.0351195"
       cy="10.831757"
       fx="7.0351195"
       fy="10.831757"
       r="6.9044476"
       gradientTransform="matrix(0.6543553,0,0,0.7872284,2.4316513,3.284161)"
       gradientUnits="userSpaceOnUse" />
  </defs>
  <g
     id="g6354">
    <path
       id="path5540"
       d="M 14.963319,13.38616 C 14.879846,12.903771 14.708104,12.407176 14.50729,11.987685 C 14.497232,11.962218 14.484,11.935011 14.46666,11.905906 C 14.394588,11.762088 14.31985,11.627976 14.243834,11.508939 C 14.126451,11.257522 14.042282,10.963307 14.042282,10.586788 C 14.042282,8.8400385 14.195956,8.4222828 14.464434,8.1727744 C 14.948071,7.7229616 15.180206,7.028143 14.687988,6.5703625 C 14.494621,6.3905051 14.27402,6.2993642 14.032587,6.2993642 C 13.722388,6.2993642 13.39021,6.4558273 13.072375,6.7516014 C 12.378218,7.300873 12.618758,8.4851816 12.618758,9.5464671 C 12.618758,10.032148 11.587201,10.375918 11.173422,10.471562 C 9.9667415,10.476243 6.5358477,10.649861 5.4202763,12.168756 C 4.415005,13.536907 0.27241794,20.300029 0.27241794,21.377256 C 0.27241794,21.472904 0.35588112,21.55053 0.45871961,21.55053 C 2.2026778,21.55053 14.074496,15.581853 14.551622,15.149023 C 14.956984,14.780992 15.09953,14.171424 14.963319,13.38616 z"
       style="fill:url(#XMLID_8_);stroke-width:1;stroke-miterlimit:4;stroke-dasharray:none" />
    <path
       sodipodi:nodetypes="ccccccccc"
       id="path5542"
       d="M 18.039459,0.85874351 C 16.462619,1.7733751 13.228171,4.7926441 12.878854,5.6416199 C 12.6156,5.8813872 12.754439,7.3764544 13.12027,7.6160285 L 13.759018,8.2219517 C 14.30434,8.7185272 15.719863,8.4492412 16.083823,8.1658958 C 17.386722,7.2191232 20.678198,4.2892693 21.019378,3.7262786 C 21.564678,3.0164658 21.69348,1.744159 21.147984,1.2475838 L 20.698541,0.83817408 C 20.153461,0.34198433 18.947398,0.43343619 18.039459,0.85874351 z"
       style="fill:url(#linearGradient5566);fill-opacity:1;stroke:#3d7406;stroke-width:1.00325549;stroke-miterlimit:4;stroke-dasharray:none;stroke-opacity:1;display:inline;enable-background:new" />
    <path
       sodipodi:nodetypes="cc"
       id="path6730"
       d="M 14.290401,5.7782763 C 16.051281,4.0751957 17.763467,2.4622868 19.5,1.5"
       style="opacity:0.59999999999999998;fill:none;fill-rule:evenodd;stroke:url(#radialGradient6350);stroke-width:1;stroke-linecap:round;stroke-linejoin:miter;stroke-miterlimit:4;stroke-dasharray:none;stroke-opacity:1" />
    <path
       id="path5548"
       d="M 14.894024,5.3525859 C 14.593932,5.3503616 14.290892,5.5308179 14.039437,5.785963 C 13.502514,6.330273 13.646323,6.9665192 13.646323,8.8715979 C 13.646323,9.4298055 12.209653,10.033047 11.851674,10.033047 C 11.833917,10.032834 11.818276,10.033047 11.800383,10.033047 C 10.655321,10.033047 6.9293127,10.195982 5.7840096,11.783884 C 4.638752,13.371782 0.34879084,20.588733 0.34879084,21.647524 C 2.0666038,21.647524 14.544517,15.357126 15.184627,14.76551 C 15.958836,14.04973 15.582415,12.606507 15.082034,11.645204 C 15.085441,11.64073 15.079908,11.633213 15.082034,11.627868 C 15.095938,11.59312 15.092301,11.546991 15.047859,11.471856 C 14.779679,11.018455 14.637676,10.564257 14.637676,9.9290375 C 14.637676,8.3256415 14.804089,7.5064452 15.201696,7.1034264 C 15.559698,6.7403579 15.876105,6.0540791 15.423893,5.5952783 C 15.254324,5.4232264 15.074088,5.353923 14.894024,5.3525859 z"
       style="fill:url(#linearGradient5560);fill-opacity:1;stroke:url(#linearGradient5562);stroke-width:0.70513111;stroke-linejoin:round;stroke-miterlimit:4;stroke-dasharray:none;stroke-opacity:1" />
    <path
       id="path5550"
       d="M 14.206223,7.9220505 C 13.817043,8.283841 13.52436,9.1023759 13.52436,10.541739 C 13.52436,11.111974 14.0311,11.564038 14.293608,11.971225 C 14.829014,12.801368 10.549122,10.629413 11.062417,10.629413 C 11.412838,10.629413 12.805041,10.134205 12.805041,9.6331033 C 12.805041,7.9229152 12.678568,7.3627299 13.204124,6.8741044 C 13.59792,6.5076353 14.113627,6.2811701 14.556293,6.6930358 C 14.998936,7.1049017 14.55648,7.5961256 14.206223,7.9220505 z"
       style="fill:url(#XMLID_12_);stroke-width:1;stroke-miterlimit:4;stroke-dasharray:none" />
    <path
       id="path5552"
       d="M 11.104677,10.644659 C 10.027862,10.644659 6.6509842,10.800607 5.5739715,12.266482 C 4.543549,13.669112 0.80188278,19.818855 0.48070249,21.218541 C 0.51293105,21.523844 4.4580255,19.758383 7.592336,18.27501 C 10.856348,16.730295 14.047846,15.196672 14.355072,14.917876 C 15.432051,13.94063 14.259302,11.550525 13.721077,11.306212 C 13.182686,11.062071 12.185787,10.466365 11.104677,10.644659 z"
       style="fill:url(#XMLID_13_);stroke-width:1;stroke-miterlimit:4;stroke-dasharray:none" />
    <path
       id="path5554"
       d="M 11.277552,10.607233 C 11.845215,10.505524 12.805041,10.071652 12.805041,9.6331033 L 13.605202,10.014127 C 13.605202,10.897116 13.802138,11.338614 14.119389,11.717211 C 14.167664,11.796222 11.196535,10.621616 11.277552,10.607233 z"
       style="fill:url(#XMLID_14_);stroke-width:1;stroke-miterlimit:4;stroke-dasharray:none" />
    <path
       sodipodi:nodetypes="cccc"
       id="path6385"
       d="M 12.376095,10.410273 C 12.403925,11.161376 7.6015812,10.562057 6.5450546,12.057765 C 4.7181248,14.869955 3.1211977,17.149691 1.6018319,20.460028 C 5.9752997,18.828216 10.187974,16.597072 14.589727,14.116994"
       style="opacity:0.6;fill:none;fill-opacity:1;stroke:url(#radialGradient6352);stroke-width:0.82099999999999984;stroke-linejoin:miter;stroke-miterlimit:4;stroke-dasharray:none;stroke-opacity:1;display:inline;enable-background:new" />
    <path
       transform="matrix(0.7399493,0,0,0.6448492,-65.744077,-17.756025)"
       d="M 109.1875,37.25 A 0.34375,0.40625 0 1 1 108.5,37.25 A 0.34375,0.40625 0 1 1 109.1875,37.25 z"
       sodipodi:ry="0.40625"
       sodipodi:rx="0.34375"
       sodipodi:cy="37.25"
       sodipodi:cx="108.84375"
       id="path6361"
       style="fill:none;fill-opacity:1;fill-rule:evenodd;stroke:#ffffff;stroke-width:0.69899999999999995;stroke-linecap:square;stroke-linejoin:miter;stroke-miterlimit:4;stroke-dasharray:none;stroke-dashoffset:0;stroke-opacity:1;opacity:0.6"
       sodipodi:type="arc" />
    <path
       sodipodi:nodetypes="ccccc"
       id="rect6775"
       d="M 14.095203,6.6310308 C 14.266085,6.0923619 15.056794,6.7902904 14.714909,7.0951236 C 14.160743,7.6203286 14.115795,8.7586016 14.198485,10 L 13.596,9.75936 C 14.265149,9.3620196 13.936352,7.7719021 14.095203,6.6310308 z"
       style="opacity:0.6;fill:#ffffff;fill-opacity:1;fill-rule:evenodd;stroke:none;stroke-width:1;stroke-linecap:round;stroke-linejoin:miter;stroke-miterlimit:4;stroke-dashoffset:0;stroke-opacity:1" />
  </g>
</svg>
