<?xml version="1.0" encoding="UTF-8" standalone="no"?>
<!-- Created with Inkscape (http://www.inkscape.org/) -->
<svg
   xmlns:svg="http://www.w3.org/2000/svg"
   xmlns="http://www.w3.org/2000/svg"
   xmlns:xlink="http://www.w3.org/1999/xlink"
   version="1.0"
   width="16"
   height="16"
   id="svg2733">
  <defs
     id="defs2735">
    <radialGradient
       cx="605.71429"
       cy="486.64789"
       r="117.14286"
       fx="605.71429"
       fy="486.64789"
       id="radialGradient2677"
       xlink:href="#linearGradient5060"
       gradientUnits="userSpaceOnUse"
       gradientTransform="matrix(-2.774389,0,0,1.969706,112.7623,-872.8854)" />
    <linearGradient
       id="linearGradient5060">
      <stop
         id="stop5062"
         style="stop-color:#000000;stop-opacity:1"
         offset="0" />
      <stop
         id="stop5064"
         style="stop-color:#000000;stop-opacity:0"
         offset="1" />
    </linearGradient>
    <radialGradient
       cx="605.71429"
       cy="486.64789"
       r="117.14286"
       fx="605.71429"
       fy="486.64789"
       id="radialGradient2675"
       xlink:href="#linearGradient5060"
       gradientUnits="userSpaceOnUse"
       gradientTransform="matrix(2.774389,0,0,1.969706,-1891.633,-872.8854)" />
    <linearGradient
       id="linearGradient5048">
      <stop
         id="stop5050"
         style="stop-color:#000000;stop-opacity:0"
         offset="0" />
      <stop
         id="stop5056"
         style="stop-color:#000000;stop-opacity:1"
         offset="0.5" />
      <stop
         id="stop5052"
         style="stop-color:#000000;stop-opacity:0"
         offset="1" />
    </linearGradient>
    <linearGradient
       x1="302.85715"
       y1="366.64789"
       x2="302.85715"
       y2="609.50507"
       id="linearGradient2673"
       xlink:href="#linearGradient5048"
       gradientUnits="userSpaceOnUse"
       gradientTransform="matrix(2.774389,0,0,1.969706,-1892.179,-872.8854)" />
    <linearGradient
       id="linearGradient3390-178-986-453">
      <stop
         id="stop3624"
         style="stop-color:#bb5e12;stop-opacity:1"
         offset="0" />
      <stop
         id="stop3626"
         style="stop-color:#cd8033;stop-opacity:1"
         offset="1" />
    </linearGradient>
    <linearGradient
       x1="10.318256"
       y1="14.992862"
       x2="4.1760364"
       y2="4.0514131"
       id="linearGradient2692"
       xlink:href="#linearGradient3390-178-986-453"
       gradientUnits="userSpaceOnUse"
       gradientTransform="matrix(1.0083043,0,0,1.0006232,-8.2398426e-4,-6.6205e-3)" />
    <linearGradient
       id="linearGradient7012-661-145-733-759-865-745-661-970-94">
      <stop
         id="stop3618"
         style="stop-color:#edd563;stop-opacity:1"
         offset="0" />
      <stop
         id="stop3620"
         style="stop-color:#e08223;stop-opacity:1"
         offset="1" />
    </linearGradient>
    <linearGradient
       x1="126.69791"
       y1="58.583481"
       x2="169.22964"
       y2="238.3999"
       id="linearGradient2690"
       xlink:href="#linearGradient7012-661-145-733-759-865-745-661-970-94"
       gradientUnits="userSpaceOnUse"
       gradientTransform="matrix(5.4893416e-2,1.3851317e-2,2.572632e-3,5.248166e-2,-0.7128009,-0.2674105)" />
    <linearGradient
       id="linearGradient8265-821-176-38-919-66-249">
      <stop
         id="stop2687"
         style="stop-color:#ffffff;stop-opacity:0.27450982"
         offset="0" />
      <stop
         id="stop2689"
         style="stop-color:#ffffff;stop-opacity:0.07843138"
         offset="1" />
    </linearGradient>
    <linearGradient
       x1="18.03083"
       y1="16.407909"
       x2="20.054544"
       y2="24.627615"
       id="linearGradient2687"
       xlink:href="#linearGradient8265-821-176-38-919-66-249"
       gradientUnits="userSpaceOnUse"
       gradientTransform="matrix(0.2966887,0,0,0.3520695,1.8805021,2.1186294)" />
  </defs>
  <g
     id="layer1">
    <g
       transform="matrix(0.3639508,0,0,0.3445682,-0.6448509,-0.3854516)"
       id="layer6">
      <g
         transform="matrix(2.165152e-2,0,0,1.485743e-2,43.0076,42.68539)"
         id="g2488"
         style="display:inline">
        <rect
           width="1339.6335"
           height="478.35718"
           x="-1559.2523"
           y="-150.69685"
           id="rect2490"
           style="opacity:0.40206185;fill:url(#linearGradient2673);fill-opacity:1;fill-rule:nonzero;stroke:none;stroke-width:1;stroke-linecap:round;stroke-linejoin:miter;marker:none;marker-start:none;marker-mid:none;marker-end:none;stroke-miterlimit:4;stroke-dasharray:none;stroke-dashoffset:0;stroke-opacity:1;visibility:visible;display:inline;overflow:visible" />
        <path
           d="M -219.61876,-150.68038 C -219.61876,-150.68038 -219.61876,327.65041 -219.61876,327.65041 C -76.744594,328.55086 125.78146,220.48075 125.78138,88.454235 C 125.78138,-43.572302 -33.655436,-150.68036 -219.61876,-150.68038 z"
           id="path2492"
           style="opacity:0.40206185;fill:url(#radialGradient2675);fill-opacity:1;fill-rule:nonzero;stroke:none;stroke-width:1;stroke-linecap:round;stroke-linejoin:miter;marker:none;marker-start:none;marker-mid:none;marker-end:none;stroke-miterlimit:4;stroke-dasharray:none;stroke-dashoffset:0;stroke-opacity:1;visibility:visible;display:inline;overflow:visible" />
        <path
           d="M -1559.2523,-150.68038 C -1559.2523,-150.68038 -1559.2523,327.65041 -1559.2523,327.65041 C -1702.1265,328.55086 -1904.6525,220.48075 -1904.6525,88.454235 C -1904.6525,-43.572302 -1745.2157,-150.68036 -1559.2523,-150.68038 z"
           id="path2494"
           style="opacity:0.40206185;fill:url(#radialGradient2677);fill-opacity:1;fill-rule:nonzero;stroke:none;stroke-width:1;stroke-linecap:round;stroke-linejoin:miter;marker:none;marker-start:none;marker-mid:none;marker-end:none;stroke-miterlimit:4;stroke-dasharray:none;stroke-dashoffset:0;stroke-opacity:1;visibility:visible;display:inline;overflow:visible" />
      </g>
    </g>
    <path
       d="M 0.60149736,1.5214532 C 0.54523936,1.5214532 0.49700936,1.5817982 0.49700936,1.6441262 C 0.49700936,6.2486955 0.50038347,10.295318 0.49635402,14.50138 C 5.2026801,14.477413 9.9114628,14.453124 14.61887,14.435859 C 14.201741,14.435859 13.506541,14.36577 13.516486,13.495372 C 13.520028,9.8983425 13.539447,6.0870191 13.527263,2.5145161 L 7.4753142,2.5145161 C 6.9978261,2.5145161 6.3790565,1.5214532 5.9492307,1.5214532 L 0.60149736,1.5214532 z"
       id="rect2196"
       style="fill:#ffffff;fill-opacity:1;stroke:#a8a8a8;stroke-width:0.97899997;stroke-linecap:round;stroke-linejoin:round;stroke-miterlimit:4;stroke-dasharray:none;stroke-opacity:1;display:inline" />
    <path
       d="M 2.5253881,4.5240135 C 3.1817521,4.5240135 15.00543,4.5554065 15.514389,4.5554065 C 15.514389,5.1708195 15.489705,14.513481 15.460322,14.513481 C 10.901479,14.531235 3.8009221,14.499586 2.4735081,14.499586 C 2.4735081,13.338115 2.5253881,6.9142575 2.5253881,4.5240135 z"
       id="rect3086"
       style="fill:url(#linearGradient2690);fill-opacity:1;stroke:url(#linearGradient2692);stroke-width:0.95339239;stroke-linecap:round;stroke-linejoin:round;stroke-miterlimit:4;stroke-dasharray:none;stroke-opacity:1;display:inline" />
    <path
       d="M 2.8354689,4.0000008 C 2.3788803,4.0000008 2.0010319,4.4483796 2.0010319,4.9901963 L 2.0010319,10.623308 C 2.0027806,10.724082 2.0450663,10.838978 2.1122901,10.909365 C 2.1795131,10.979751 2.2654393,11.009448 2.3626212,10.997382 C 2.3657113,10.997476 2.3688027,10.997476 2.3718928,10.997382 L 15.722884,8.4888869 C 15.877688,8.4599151 15.998866,8.3007656 16.00103,8.1148131 L 16.00103,4.9901963 C 16.00103,4.4483796 15.623181,4.0000008 15.166593,4.0000008 L 2.8354689,4.0000008 z"
       id="path2509"
       style="fill:url(#linearGradient2687);fill-opacity:1;fill-rule:evenodd;stroke:none;stroke-width:1.00213289;stroke-linecap:round;stroke-linejoin:round;stroke-miterlimit:4;stroke-dasharray:none;stroke-dashoffset:0;stroke-opacity:1" />
    <path
       d="M 3.4989691,13.999999 L 3.4989691,5.5 L 14.998969,5.5"
       id="path2406"
       style="opacity:0.35;fill:none;fill-rule:evenodd;stroke:#ffffff;stroke-width:1px;stroke-linecap:butt;stroke-linejoin:miter;stroke-opacity:1" />
  </g>
  <g
     transform="translate(23.316838,2.0527036)"
     id="g2509">
    <path
       d="M -11.665385,9.0166474 L -7.624336,12.903953 L -8.184481,13.689683 L -12.434184,9.4846584 L -11.665385,9.0166474 z"
       id="path11112"
       style="fill:#1a1a1a;fill-opacity:1;fill-rule:evenodd;stroke:#1a1a1a;stroke-width:0.49333107;stroke-linecap:round;stroke-linejoin:round;stroke-miterlimit:4;stroke-dasharray:none;stroke-opacity:1" />
    <path
       d="M 247.90924,110.29199 C 247.90924,111.75897 245.73028,112.94819 243.04239,112.94819 C 240.3545,112.94819 238.17554,111.75897 238.17554,110.29199 C 238.17554,108.82501 240.3545,107.63579 243.04239,107.63579 C 245.73028,107.63579 247.90924,108.82501 247.90924,110.29199 L 247.90924,110.29199 z"
       transform="matrix(8.9690459e-2,-0.115328,0.1149645,8.5943176e-2,-42.327779,31.892002)"
       id="path13082"
       style="fill:#1a1a1a;fill-opacity:1;stroke:none;stroke-width:2.58193302;stroke-linecap:round;stroke-linejoin:round;stroke-miterlimit:4;stroke-dasharray:none;stroke-opacity:1" />
    <path
       d="M 25.897786,18.478292 C 25.898498,23.067456 22.178445,26.788086 17.589281,26.788086 C 13.000117,26.788086 9.280064,23.067456 9.280776,18.478292 C 9.280064,13.889128 13.000117,10.168498 17.589281,10.168498 C 22.178445,10.168498 25.898498,13.889128 25.897786,18.478292 z"
       transform="matrix(0.3418431,0,0,0.344734,-19.859398,0.6821159)"
       id="path4452"
       style="opacity:0.4;fill:#ffffff;fill-opacity:1;fill-rule:evenodd;stroke:none;stroke-width:0.98458618;stroke-linecap:round;stroke-linejoin:miter;marker:none;marker-start:none;marker-mid:none;marker-end:none;stroke-miterlimit:4;stroke-dasharray:none;stroke-dashoffset:0;stroke-opacity:1;visibility:visible" />
    <path
       d="M -13.909062,4.19201 C -15.653357,4.19201 -17.069557,5.5417591 -17.069556,7.2041594 C -17.069556,8.8665604 -15.653357,10.216308 -13.909062,10.216308 C -12.164768,10.216308 -10.748568,8.8665604 -10.748568,7.2041594 C -10.748568,5.5417592 -12.164767,4.19201 -13.909062,4.19201 z M -13.871403,4.3896262 C -12.310249,4.3896262 -11.041152,5.5965331 -11.041152,7.084392 C -11.041152,8.5722514 -12.310249,9.7791574 -13.871403,9.7791574 C -15.432558,9.7791584 -16.698756,8.5722514 -16.698756,7.084392 C -16.698756,5.5965331 -15.432558,4.3896262 -13.871403,4.3896262 z"
       id="path2298"
       style="fill:#333333;fill-opacity:1;stroke:#1a1a1a;stroke-width:0.49333107;stroke-linecap:round;stroke-linejoin:round;stroke-miterlimit:4;stroke-dasharray:none;stroke-opacity:1" />
  </g>
</svg>
