<?xml version="1.0" encoding="UTF-8" standalone="no"?>
<!-- Created with Inkscape (http://www.inkscape.org/) -->
<svg
   xmlns:svg="http://www.w3.org/2000/svg"
   xmlns="http://www.w3.org/2000/svg"
   xmlns:xlink="http://www.w3.org/1999/xlink"
   version="1.0"
   width="24"
   height="24"
   id="svg2">
  <defs
     id="defs4">
    <linearGradient
       id="linearGradient8838">
      <stop
         id="stop8840"
         style="stop-color:#000000;stop-opacity:1"
         offset="0" />
      <stop
         id="stop8842"
         style="stop-color:#000000;stop-opacity:0"
         offset="1" />
    </linearGradient>
    <radialGradient
       cx="62.625"
       cy="4.625"
       r="10.625"
       fx="62.625"
       fy="4.625"
       id="radialGradient3400"
       xlink:href="#linearGradient8838"
       gradientUnits="userSpaceOnUse"
       gradientTransform="matrix(1,0,0,0.341176,0,3.047059)" />
    <linearGradient
       id="linearGradient4168">
      <stop
         id="stop4170"
         style="stop-color:#f8cd70;stop-opacity:1"
         offset="0" />
      <stop
         id="stop4172"
         style="stop-color:#cc9110;stop-opacity:1"
         offset="1" />
    </linearGradient>
    <linearGradient
       x1="20.137201"
       y1="4.4757133"
       x2="16.597107"
       y2="17.94278"
       id="linearGradient2478"
       xlink:href="#linearGradient4168"
       gradientUnits="userSpaceOnUse"
       gradientTransform="matrix(-0.3446423,-0.3446422,-0.3381098,0.3381098,27.882197,14.32142)" />
    <linearGradient
       id="linearGradient3266">
      <stop
         id="stop3268"
         style="stop-color:#bf8407;stop-opacity:1"
         offset="0" />
      <stop
         id="stop3270"
         style="stop-color:#bf8407;stop-opacity:0"
         offset="1" />
    </linearGradient>
    <linearGradient
       x1="33.686768"
       y1="35.773647"
       x2="37.039948"
       y2="29.856804"
       id="linearGradient2475"
       xlink:href="#linearGradient3266"
       gradientUnits="userSpaceOnUse"
       gradientTransform="matrix(-0.5097808,3.0679686e-2,3.0098127e-2,0.5001183,22.774393,0.5062031)" />
    <linearGradient
       id="linearGradient3276">
      <stop
         id="stop3278"
         style="stop-color:#cc9110;stop-opacity:1"
         offset="0" />
      <stop
         id="stop3280"
         style="stop-color:#cc9110;stop-opacity:0"
         offset="1" />
    </linearGradient>
    <linearGradient
       x1="31.226292"
       y1="34.600941"
       x2="34.96563"
       y2="26.842505"
       id="linearGradient2473"
       xlink:href="#linearGradient3276"
       gradientUnits="userSpaceOnUse"
       gradientTransform="matrix(-0.5097808,3.0679686e-2,3.0098127e-2,0.5001183,22.774393,0.5062031)" />
    <linearGradient
       id="linearGradient4873">
      <stop
         id="stop4875"
         style="stop-color:#ffffff;stop-opacity:1"
         offset="0" />
      <stop
         id="stop4877"
         style="stop-color:#ffffff;stop-opacity:0"
         offset="1" />
    </linearGradient>
    <linearGradient
       x1="32.325527"
       y1="5.0201149"
       x2="22.245434"
       y2="43.366352"
       id="linearGradient2470"
       xlink:href="#linearGradient4873"
       gradientUnits="userSpaceOnUse"
       gradientTransform="matrix(-0.3446423,-0.3446422,-0.3381098,0.3381098,27.882197,14.32142)" />
    <linearGradient
       id="linearGradient3319">
      <stop
         id="stop3321"
         style="stop-color:#ffffff;stop-opacity:0"
         offset="0" />
      <stop
         id="stop3323"
         style="stop-color:#ffffff;stop-opacity:0.27472529"
         offset="0.63129705" />
      <stop
         id="stop3325"
         style="stop-color:#ffffff;stop-opacity:0"
         offset="1" />
    </linearGradient>
    <linearGradient
       x1="28.116938"
       y1="41.67448"
       x2="39.686337"
       y2="28.50532"
       id="linearGradient2467"
       xlink:href="#linearGradient3319"
       gradientUnits="userSpaceOnUse"
       gradientTransform="matrix(-0.4865175,2.9279582e-2,2.8724737e-2,0.4772959,22.715721,1.9626372)" />
  </defs>
  <g
     id="layer1">
    <path
       d="M 73.25,4.625 A 10.625,3.625 0 1 1 52,4.625 A 10.625,3.625 0 1 1 73.25,4.625 z"
       transform="matrix(-1.0352941,0,0,1.2413793,77.028857,13.758621)"
       id="path8836"
       style="opacity:0.4;fill:url(#radialGradient3400);fill-opacity:1;fill-rule:evenodd;stroke:none;stroke-width:0.99999988;stroke-linecap:butt;stroke-linejoin:round;marker:none;marker-start:none;marker-mid:none;marker-end:none;stroke-miterlimit:4;stroke-dasharray:none;stroke-dashoffset:0;stroke-opacity:1;visibility:visible;display:inline;overflow:visible" />
    <path
       d="M 11.698155,18.816592 C 12.826883,18.882459 14.557207,18.473459 15.604271,17.426396 C 17.352104,15.678563 17.763094,11.53924 15.622151,9.4637811 C 14.755287,8.6234322 12.696644,7.5328709 11.503308,7.4999998 L 11.490364,10.5 L 5.393207,5.6907158 C 5.393207,5.6907158 11.490364,0.4999993 11.490364,0.4999993 L 11.504404,3.3225711 C 14.134508,3.3707095 16.625718,4.2422142 18.623433,6.1972466 C 22.687418,10.174402 22.680893,16.594127 18.79846,20.565462 C 16.813008,22.596377 14.212314,23.564617 11.601358,23.49403"
       id="path3372"
       style="fill:url(#linearGradient2478);fill-opacity:1;stroke:#bf8407;stroke-width:1.00474763;stroke-linecap:butt;stroke-linejoin:round;stroke-miterlimit:4;stroke-dasharray:none;stroke-opacity:1" />
    <path
       d="M 12.054925,23.462866 C 7.31189,23.799746 1.674531,20.503319 1.30881,14.28399 L 5.677657,14.859911 C 5.922856,17.391175 9.556863,19.176226 11.751356,18.86624"
       id="path3453"
       style="fill:url(#linearGradient2473);fill-opacity:1;stroke:url(#linearGradient2475);stroke-width:1.00474763;stroke-linecap:butt;stroke-linejoin:miter;stroke-miterlimit:4;stroke-dasharray:none;stroke-opacity:1" />
    <path
       d="M 11.691577,19.966046 C 13.138048,19.97895 15.176174,19.256693 16.2796,18.165281 C 18.85847,15.610922 18.688856,10.798158 16.309444,8.6058922 C 15.30536,7.6807819 13.750227,6.5571461 10.5,6.5571461 L 10.5,8.4832001 L 6.80742,5.6907158 C 6.80742,5.6907158 10.5,2.5663261 10.5,2.5663261 L 10.5,4.4103831 C 13.178814,4.289772 15.977585,4.9613854 17.978441,6.9622413 C 21.655009,10.63881 21.448481,16.5055 18.055658,19.898323 C 15.907814,22.046166 13.654834,22.623857 11.609872,22.470665"
       id="path3370"
       style="opacity:0.4;fill:none;fill-opacity:1;stroke:url(#linearGradient2470);stroke-width:1.00474763;stroke-linecap:butt;stroke-linejoin:miter;stroke-miterlimit:4;stroke-dasharray:none;stroke-opacity:1" />
    <path
       d="M 11.153512,22.343807 C 8.482038,22.510005 2.775107,20.279341 2.411248,14.233355 L 3.945532,13.946832 C 4.117904,16.810977 8.225411,19.932661 11.331953,19.998604"
       id="path2557"
       style="fill:none;fill-opacity:1;stroke:url(#linearGradient2467);stroke-width:1.00474763;stroke-linecap:butt;stroke-linejoin:round;stroke-miterlimit:4;stroke-dasharray:none;stroke-opacity:1" />
    <path
       d="M 13.751634,13.915468 A 1.1787115,1.1787115 0 1 1 11.394211,13.915468 A 1.1787115,1.1787115 0 1 1 13.751634,13.915468 z"
       transform="matrix(-1,0,0,1,24.087773,-9.41799e-2)"
       id="path3347"
       style="fill:#dca835;fill-opacity:1;stroke:#bf8407;stroke-width:1;stroke-linecap:round;stroke-linejoin:round;stroke-miterlimit:4;stroke-dasharray:none;stroke-dashoffset:0;stroke-opacity:1" />
  </g>
</svg>
