<?xml version="1.0" encoding="UTF-8" standalone="no"?>
<!-- Created with Inkscape (http://www.inkscape.org/) -->
<svg
   xmlns:svg="http://www.w3.org/2000/svg"
   xmlns="http://www.w3.org/2000/svg"
   xmlns:xlink="http://www.w3.org/1999/xlink"
   version="1.0"
   width="48"
   height="48"
   id="svg3380">
  <defs
     id="defs3382">
    <linearGradient
       id="linearGradient2372">
      <stop
         id="stop2374"
         style="stop-color:#ffffff;stop-opacity:1"
         offset="0" />
      <stop
         id="stop2376"
         style="stop-color:#ffffff;stop-opacity:0"
         offset="1" />
    </linearGradient>
    <linearGradient
       x1="28.739122"
       y1="144.11652"
       x2="26.256771"
       y2="125.39074"
       id="linearGradient2897"
       xlink:href="#linearGradient2372"
       gradientUnits="userSpaceOnUse"
       gradientTransform="matrix(0.2042479,0,0,0.2021646,-38.809585,-11.054086)" />
    <linearGradient
       x1="11.128633"
       y1="51.807358"
       x2="12.458002"
       y2="61.909195"
       id="linearGradient2895"
       xlink:href="#linearGradient3686"
       gradientUnits="userSpaceOnUse"
       gradientTransform="scale(1.3693064,0.7302968)" />
    <linearGradient
       id="linearGradient3668">
      <stop
         id="stop3670"
         style="stop-color:#bbd4ea;stop-opacity:1"
         offset="0" />
      <stop
         id="stop3672"
         style="stop-color:#6a92b8;stop-opacity:1"
         offset="1" />
    </linearGradient>
    <radialGradient
       cx="17.058823"
       cy="41.058823"
       r="5.7384715"
       fx="17.843975"
       fy="44.178165"
       id="radialGradient2893"
       xlink:href="#linearGradient3668"
       gradientUnits="userSpaceOnUse"
       gradientTransform="matrix(1,0,0,0.569469,0,17.67708)" />
    <linearGradient
       id="linearGradient3686">
      <stop
         id="stop3688"
         style="stop-color:#ffffff;stop-opacity:1"
         offset="0" />
      <stop
         id="stop3690"
         style="stop-color:#ffffff;stop-opacity:0"
         offset="1" />
    </linearGradient>
    <linearGradient
       x1="16.574366"
       y1="37.638168"
       x2="18.514551"
       y2="46.079796"
       id="linearGradient2891"
       xlink:href="#linearGradient3686"
       gradientUnits="userSpaceOnUse" />
    <linearGradient
       id="linearGradient7067">
      <stop
         id="stop7069"
         style="stop-color:#bbd4ea;stop-opacity:1"
         offset="0" />
      <stop
         id="stop7071"
         style="stop-color:#6a9ab8;stop-opacity:1"
         offset="1" />
    </linearGradient>
    <radialGradient
       cx="17.058823"
       cy="41.058823"
       r="5.7384715"
       fx="17.843975"
       fy="44.178165"
       id="radialGradient2889"
       xlink:href="#linearGradient7067"
       gradientUnits="userSpaceOnUse"
       gradientTransform="matrix(1,0,0,0.569469,0,17.67708)" />
    <linearGradient
       id="linearGradient6028">
      <stop
         id="stop6030"
         style="stop-color:#ffffff;stop-opacity:1"
         offset="0" />
      <stop
         id="stop6032"
         style="stop-color:#ffffff;stop-opacity:0"
         offset="1" />
    </linearGradient>
    <linearGradient
       x1="28.702885"
       y1="31.494707"
       x2="17.742729"
       y2="18.366575"
       id="linearGradient2887"
       xlink:href="#linearGradient6028"
       gradientUnits="userSpaceOnUse" />
    <linearGradient
       id="linearGradient6036">
      <stop
         id="stop6038"
         style="stop-color:#ffffff;stop-opacity:1"
         offset="0" />
      <stop
         id="stop6040"
         style="stop-color:#ffffff;stop-opacity:0"
         offset="1" />
    </linearGradient>
    <linearGradient
       x1="10.50172"
       y1="3.6100161"
       x2="48.798885"
       y2="54.698483"
       id="linearGradient2885"
       xlink:href="#linearGradient6036"
       gradientUnits="userSpaceOnUse"
       gradientTransform="matrix(0.618208,0,5.1062402e-2,0.6203704,-48.913775,10.970062)" />
    <linearGradient
       id="linearGradient4409">
      <stop
         id="stop4411"
         style="stop-color:#ffffff;stop-opacity:1"
         offset="0" />
      <stop
         id="stop4413"
         style="stop-color:#ffffff;stop-opacity:0"
         offset="1" />
    </linearGradient>
    <linearGradient
       x1="25.985928"
       y1="24.919628"
       x2="15.889072"
       y2="11.669628"
       id="linearGradient2883"
       xlink:href="#linearGradient4409"
       gradientUnits="userSpaceOnUse"
       gradientTransform="matrix(0.6253513,0,5.1652428e-2,0.6275435,-48.680339,11.403013)" />
    <linearGradient
       x1="12.2744"
       y1="32.4165"
       x2="35.391201"
       y2="14.2033"
       id="aigrd2"
       gradientUnits="userSpaceOnUse">
      <stop
         id="stop3043"
         style="stop-color:#fbfbfb;stop-opacity:1"
         offset="0" />
      <stop
         id="stop3045"
         style="stop-color:#b6b6b6;stop-opacity:1"
         offset="0.5" />
      <stop
         id="stop3047"
         style="stop-color:#e4e4e4;stop-opacity:1"
         offset="1" />
    </linearGradient>
    <linearGradient
       x1="12.2744"
       y1="32.4165"
       x2="35.391201"
       y2="14.2033"
       id="linearGradient2881"
       xlink:href="#aigrd2"
       gradientUnits="userSpaceOnUse"
       gradientTransform="matrix(0.7444658,0,6.1490976e-2,0.7470755,-51.867357,9.2193051)" />
    <linearGradient
       x1="14.9966"
       y1="11.1885"
       x2="32.511002"
       y2="34.307499"
       id="aigrd1"
       gradientUnits="userSpaceOnUse">
      <stop
         id="stop3034"
         style="stop-color:#ebebeb;stop-opacity:1"
         offset="0" />
      <stop
         id="stop3036"
         style="stop-color:#ffffff;stop-opacity:1"
         offset="0.5" />
      <stop
         id="stop3038"
         style="stop-color:#ebebeb;stop-opacity:1"
         offset="1" />
    </linearGradient>
    <linearGradient
       x1="14.9966"
       y1="11.1885"
       x2="32.511002"
       y2="34.307499"
       id="linearGradient2879"
       xlink:href="#aigrd1"
       gradientUnits="userSpaceOnUse"
       gradientTransform="matrix(0.7444658,0,6.1490976e-2,0.7470755,-51.867357,9.2193061)" />
    <linearGradient
       id="linearGradient8838">
      <stop
         id="stop8840"
         style="stop-color:#000000;stop-opacity:1"
         offset="0" />
      <stop
         id="stop8842"
         style="stop-color:#000000;stop-opacity:0"
         offset="1" />
    </linearGradient>
    <radialGradient
       cx="62.625"
       cy="4.625"
       r="10.625"
       fx="62.625"
       fy="4.625"
       id="radialGradient2877"
       xlink:href="#linearGradient8838"
       gradientUnits="userSpaceOnUse"
       gradientTransform="matrix(1,0,0,0.341176,0,3.047059)" />
    <linearGradient
       id="linearGradient3484">
      <stop
         id="stop3486"
         style="stop-color:#bdbdbd;stop-opacity:1"
         offset="0" />
      <stop
         id="stop3488"
         style="stop-color:#d0d0d0;stop-opacity:1"
         offset="1" />
    </linearGradient>
    <linearGradient
       id="linearGradient6404">
      <stop
         id="stop6406"
         style="stop-color:#f9f9f9;stop-opacity:1"
         offset="0" />
      <stop
         id="stop6408"
         style="stop-color:#c9c9c9;stop-opacity:1"
         offset="1" />
    </linearGradient>
    <linearGradient
       id="linearGradient5060-820">
      <stop
         id="stop2681"
         style="stop-color:#000000;stop-opacity:1"
         offset="0" />
      <stop
         id="stop2683"
         style="stop-color:#000000;stop-opacity:0"
         offset="1" />
    </linearGradient>
    <radialGradient
       cx="605.71429"
       cy="486.64789"
       r="117.14286"
       fx="605.71429"
       fy="486.64789"
       id="radialGradient7600-312"
       xlink:href="#linearGradient5060-820"
       gradientUnits="userSpaceOnUse"
       gradientTransform="matrix(-3.2129558e-2,0,0,3.7058823e-2,23.363215,25.412461)" />
    <linearGradient
       id="linearGradient5060-179">
      <stop
         id="stop2675"
         style="stop-color:#000000;stop-opacity:1"
         offset="0" />
      <stop
         id="stop2677"
         style="stop-color:#000000;stop-opacity:0"
         offset="1" />
    </linearGradient>
    <radialGradient
       cx="605.71429"
       cy="486.64789"
       r="117.14286"
       fx="605.71429"
       fy="486.64789"
       id="radialGradient7598-526"
       xlink:href="#linearGradient5060-179"
       gradientUnits="userSpaceOnUse"
       gradientTransform="matrix(3.2129565e-2,0,0,3.7058823e-2,24.636785,25.412461)" />
    <linearGradient
       id="linearGradient5048-585">
      <stop
         id="stop2667"
         style="stop-color:#000000;stop-opacity:0"
         offset="0" />
      <stop
         id="stop2669"
         style="stop-color:#000000;stop-opacity:1"
         offset="0.5" />
      <stop
         id="stop2671"
         style="stop-color:#000000;stop-opacity:0"
         offset="1" />
    </linearGradient>
    <linearGradient
       x1="302.85715"
       y1="366.64789"
       x2="302.85715"
       y2="609.50507"
       id="linearGradient7596-975"
       xlink:href="#linearGradient5048-585"
       gradientUnits="userSpaceOnUse"
       gradientTransform="matrix(8.2840237e-2,0,0,3.7058823e-2,-5.9408285,25.412461)" />
    <linearGradient
       id="linearGradient3390-178-986-453">
      <stop
         id="stop3624"
         style="stop-color:#bb5e12;stop-opacity:1"
         offset="0" />
      <stop
         id="stop3626"
         style="stop-color:#cd8033;stop-opacity:1"
         offset="1" />
    </linearGradient>
    <linearGradient
       id="linearGradient7012-661-145-733-759-865-745-661-970-94">
      <stop
         id="stop3618"
         style="stop-color:#edd563;stop-opacity:1"
         offset="0" />
      <stop
         id="stop3620"
         style="stop-color:#e08223;stop-opacity:1"
         offset="1" />
    </linearGradient>
    <linearGradient
       id="linearGradient6129-963-697-142-998-580-273">
      <stop
         id="stop2661"
         style="stop-color:#0a0a0a;stop-opacity:0.498"
         offset="0" />
      <stop
         id="stop2663"
         style="stop-color:#0a0a0a;stop-opacity:0"
         offset="1" />
    </linearGradient>
    <linearGradient
       id="linearGradient6087-437-184-795-110-662-495">
      <stop
         id="stop2693"
         style="stop-color:#ffffff;stop-opacity:0.40000001"
         offset="0" />
      <stop
         id="stop2695"
         style="stop-color:#ffffff;stop-opacity:0"
         offset="1" />
    </linearGradient>
    <linearGradient
       id="linearGradient8265-821-176-38-919-66-249">
      <stop
         id="stop2687"
         style="stop-color:#ffffff;stop-opacity:0.27450982"
         offset="0" />
      <stop
         id="stop2689"
         style="stop-color:#ffffff;stop-opacity:0.07843138"
         offset="1" />
    </linearGradient>
    <linearGradient
       x1="11.566265"
       y1="22.292103"
       x2="15.214532"
       y2="33.95525"
       id="linearGradient2768"
       xlink:href="#linearGradient8265-821-176-38-919-66-249"
       gradientUnits="userSpaceOnUse" />
    <radialGradient
       cx="7.2646537"
       cy="8.3021259"
       r="20.979567"
       fx="7.2646537"
       fy="8.3021259"
       id="radialGradient2771"
       xlink:href="#linearGradient6087-437-184-795-110-662-495"
       gradientUnits="userSpaceOnUse"
       gradientTransform="matrix(0,1.2079744,-1.6271642,0,26.371748,8.2664685)" />
    <linearGradient
       x1="22.934725"
       y1="49.629246"
       x2="22.809399"
       y2="36.657963"
       id="linearGradient2774"
       xlink:href="#linearGradient6129-963-697-142-998-580-273"
       gradientUnits="userSpaceOnUse"
       gradientTransform="matrix(1.1446925,0,0,0.9977536,-3.4661413,1.0988425)" />
    <radialGradient
       cx="63.969177"
       cy="14.113381"
       r="23.097054"
       fx="63.969177"
       fy="14.113381"
       id="radialGradient2777"
       xlink:href="#linearGradient7012-661-145-733-759-865-745-661-970-94"
       gradientUnits="userSpaceOnUse"
       gradientTransform="matrix(1.5646925,-9.5143002e-8,6.1772287e-8,1.015888,-86.212573,8.1461173)" />
    <linearGradient
       x1="82.453476"
       y1="45.114193"
       x2="65.340263"
       y2="15.943953"
       id="linearGradient2779"
       xlink:href="#linearGradient3390-178-986-453"
       gradientUnits="userSpaceOnUse"
       gradientTransform="translate(-53.765393,-0.1141929)" />
    <linearGradient
       x1="62.988873"
       y1="13.182598"
       x2="62.988873"
       y2="16.19013"
       id="linearGradient2786"
       xlink:href="#linearGradient6404"
       gradientUnits="userSpaceOnUse"
       gradientTransform="translate(-50.940898,0)" />
    <radialGradient
       cx="3"
       cy="5.01718"
       r="21"
       fx="3"
       fy="5.01718"
       id="radialGradient2788"
       xlink:href="#linearGradient3484"
       gradientUnits="userSpaceOnUse"
       gradientTransform="matrix(-1.274898e-8,1.7142916,-2.159331,-1.4599595e-8,12.809361,2.8570011)" />
  </defs>
  <path
     d="M 3.5062498,8.4999995 C 2.8159788,8.5076711 2.505808,8.8421456 2.505808,9.4999995 C 2.505808,15.014454 2.5320862,19.239576 2.5000001,24.25043 C 3.9354707,24.25043 45.499998,20.550698 45.499998,18.958166 L 45.499998,12.506647 C 45.499998,11.848794 44.945794,11.498976 44.255519,11.506647 L 24,11.506647 C 21.952517,11.506647 20.501109,8.4999995 19,8.4999995 L 3.5062498,8.4999995 z"
     id="path3468"
     style="fill:url(#linearGradient2786);fill-opacity:1;stroke:url(#radialGradient2788);stroke-width:1.00000012;stroke-linecap:round;stroke-linejoin:round;stroke-miterlimit:4;stroke-dasharray:none;stroke-opacity:1;display:inline" />
  <g
     transform="matrix(0.9583333,0,0,0.6666667,1.0000008,15)"
     id="g7591"
     style="opacity:0.4">
    <rect
       width="40"
       height="9"
       x="4"
       y="39"
       id="rect4173"
       style="opacity:1;fill:url(#linearGradient7596-975);fill-opacity:1;fill-rule:nonzero;stroke:none;stroke-width:1;stroke-linecap:round;stroke-linejoin:miter;marker:none;marker-start:none;marker-mid:none;marker-end:none;stroke-miterlimit:4;stroke-dasharray:none;stroke-dashoffset:0;stroke-opacity:1;visibility:visible;display:inline;overflow:visible" />
    <path
       d="M 44,39.00031 C 44,39.00031 44,47.999814 44,47.999814 C 45.654593,48.016755 48.000001,45.983481 48,43.499483 C 48,41.015484 46.153598,39.00031 44,39.00031 z"
       id="path5058"
       style="opacity:1;fill:url(#radialGradient7598-526);fill-opacity:1;fill-rule:nonzero;stroke:none;stroke-width:1;stroke-linecap:round;stroke-linejoin:miter;marker:none;marker-start:none;marker-mid:none;marker-end:none;stroke-miterlimit:4;stroke-dasharray:none;stroke-dashoffset:0;stroke-opacity:1;visibility:visible;display:inline;overflow:visible" />
    <path
       d="M 4,39.00031 C 4,39.00031 4,47.999814 4,47.999814 C 2.3454068,48.016755 0,45.983481 0,43.499483 C 0,41.015484 1.8464008,39.00031 4,39.00031 z"
       id="path5018"
       style="opacity:1;fill:url(#radialGradient7600-312);fill-opacity:1;fill-rule:nonzero;stroke:none;stroke-width:1;stroke-linecap:round;stroke-linejoin:miter;marker:none;marker-start:none;marker-mid:none;marker-end:none;stroke-miterlimit:4;stroke-dasharray:none;stroke-dashoffset:0;stroke-opacity:1;visibility:visible;display:inline;overflow:visible" />
  </g>
  <path
     d="M 2.1628556,16.525193 C 1.0901486,16.648887 1.6630856,17.927311 1.5775586,18.646205 C 1.9700906,27.116295 2.3664906,35.41566 2.7566056,43.885807 C 3.0984416,44.8515 4.3510406,44.356967 5.1447226,44.479557 C 18.338267,44.479557 31.531812,44.479557 44.725358,44.479557 C 45.814738,44.372906 45.361818,43.071876 45.515058,42.327295 C 45.907598,33.857205 46.303998,25.55784 46.694108,17.087693 C 46.442938,16.133404 45.174598,16.663679 44.430985,16.525193 C 30.341611,16.525193 16.252234,16.525193 2.1628556,16.525193 z"
     id="path3388"
     style="fill:url(#radialGradient2777);fill-opacity:1;stroke:url(#linearGradient2779);stroke-width:1;stroke-linecap:round;stroke-linejoin:round;stroke-miterlimit:4;stroke-dashoffset:0;stroke-opacity:1" />
  <path
     d="M 2.0582428,16.065146 L 45.954718,16.065549 C 46.588878,16.065549 46.999873,16.51016 46.999873,17.062916 L 45.755637,44.002247 C 45.755637,44.555002 45.245105,45 44.610947,45 L 3.4020122,45 C 2.7678523,45 2.2573195,44.555002 2.2573195,44.002247 L 1.0130886,17.0629 C 1.0130886,16.510143 1.4240829,16.065146 2.0582428,16.065146 z"
     id="path6127"
     style="opacity:0.4;fill:url(#linearGradient2774);fill-opacity:1;stroke:none;stroke-width:1;stroke-linecap:round;stroke-linejoin:round;stroke-miterlimit:4;stroke-dashoffset:0;stroke-opacity:1" />
  <path
     d="M 46.5,17.5 C 32.96875,17.5 16.03125,17.5 2.5,17.5 C 2.8854167,25.677083 3.2708333,33.854167 3.65625,42.03125"
     id="path2435"
     style="fill:none;fill-rule:evenodd;stroke:url(#radialGradient2771);stroke-width:0.99999976;stroke-linecap:round;stroke-linejoin:round;stroke-miterlimit:4;stroke-dasharray:none;stroke-opacity:1" />
  <path
     d="M 45.75,16 C 31.20041,16.073348 16.645416,15.978851 2.09375,16 C 0.28698984,16.411117 1.2593433,18.46661 1.1213236,19.771525 C 1.3433531,23.934872 1.4443903,28.116464 1.7417851,32.268407 C 16.742298,29.905609 31.66833,27.661153 46.40625,25.21875 C 47.187241,22.632172 47.193628,19.548156 47.063607,16.789526 C 46.834471,16.284964 46.276599,15.988682 45.75,16 z"
     id="path3455"
     style="fill:url(#linearGradient2768);fill-opacity:1;stroke:none;stroke-width:1;stroke-linecap:round;stroke-linejoin:round;stroke-miterlimit:4;stroke-dashoffset:0;stroke-opacity:1" />
  <path
     d="M -116.73151,-19.38319 C -120.56151,-19.38319 -123.67751,-16.27419 -123.67751,-12.45219 L -123.67751,60.58581 C -123.67751,64.40781 -120.56151,67.51681 -116.73151,67.51681 L -23.62351,67.51681 C -19.79351,67.51681 -16.67851,64.40781 -16.67851,60.58581 L -16.67851,-3.38619 C -16.67851,-7.20819 -19.79351,-10.31719 -23.62351,-10.31719 L -60.94851,-10.31719 C -63.74151,-10.31719 -67.27851,-11.80919 -69.74951,-14.03019 C -69.74951,-14.03019 -70.78451,-14.95819 -70.78451,-14.95819 C -72.89851,-16.85719 -76.15651,-19.38319 -80.03051,-19.38319 L -116.73151,-19.38319 L -116.73151,-19.38319 z"
     id="path2626"
     style="opacity:0.75;fill:url(#XMLID_17_)" />
  <path
     d="M -17.67751,60.58581 C -17.67751,63.84881 -20.35351,66.51681 -23.62251,66.51681 L -116.73151,66.51681 C -120.00151,66.51681 -122.67751,63.84881 -122.67751,60.58581 L -122.67751,-12.45219 C -122.67751,-15.71419 -120.00151,-18.38319 -116.73151,-18.38319 L -80.03051,-18.38319 C -76.75951,-18.38319 -73.88151,-16.39619 -71.45251,-14.21419 L -70.41851,-13.28619 C -67.98951,-11.10419 -64.21851,-9.31719 -60.94851,-9.31719 L -23.62251,-9.31719 C -20.35251,-9.31719 -17.67751,-6.64919 -17.67751,-3.38619 L -17.67751,60.58581 z"
     id="path2637"
     style="fill:url(#XMLID_18_)" />
  <path
     d="M -23.62251,-9.31619 L -60.94851,-9.31619 C -64.21851,-9.31619 -67.98951,-11.10319 -70.41851,-13.28519 L -71.45251,-14.21319 C -73.88051,-16.39519 -76.75951,-18.38219 -80.03051,-18.38219 L -116.73151,-18.38219 C -120.00151,-18.38319 -122.67751,-15.71419 -122.67751,-12.45219 L -122.67751,-11.45219 C -122.67751,-14.71419 -120.00151,-17.38319 -116.73151,-17.38319 L -80.03051,-17.38319 C -76.75951,-17.38319 -73.88151,-15.39619 -71.45251,-13.21419 L -70.41851,-12.28619 C -67.98951,-10.10419 -64.21851,-8.31719 -60.94851,-8.31719 L -23.62251,-8.31719 C -20.35251,-8.31719 -17.67751,-5.64919 -17.67751,-2.38619 L -17.67751,-3.38619 C -17.67751,-6.64819 -20.35351,-9.31619 -23.62251,-9.31619 z"
     id="path2639"
     style="fill:#ffffff" />
  <rect
     width="13"
     height="2"
     rx="1"
     ry="1"
     x="5"
     y="10"
     id="rect3562"
     style="opacity:1;fill:#edbd74;fill-opacity:1;fill-rule:nonzero;stroke:none;stroke-width:1;stroke-linecap:butt;stroke-linejoin:miter;marker:none;marker-start:none;marker-mid:none;marker-end:none;stroke-miterlimit:4;stroke-dasharray:none;stroke-dashoffset:0;stroke-opacity:1;visibility:visible;display:block;overflow:visible;enable-background:accumulate" />
  <g
     transform="translate(63.332568,6.4720412)"
     id="g2856">
    <path
       d="M 73.25,4.625 A 10.625,3.625 0 1 1 52,4.625 A 10.625,3.625 0 1 1 73.25,4.625 z"
       transform="matrix(1.360021,0,0,1.5980104,-118.05366,28.344373)"
       id="path8836"
       style="opacity:0.56043958;fill:url(#radialGradient2877);fill-opacity:1;fill-rule:evenodd;stroke:none;stroke-width:0.99999988;stroke-linecap:butt;stroke-linejoin:round;marker:none;marker-start:none;marker-mid:none;marker-end:none;stroke-miterlimit:4;stroke-dasharray:none;stroke-dashoffset:0;stroke-opacity:1;visibility:visible;display:inline;overflow:visible" />
    <path
       d="M -33.655828,13.402929 C -40.877147,13.402929 -46.204351,19.230119 -45.607888,26.476752 C -45.011426,33.723386 -38.724962,39.550577 -31.503642,39.550577 C -24.282322,39.550577 -18.955118,33.723386 -19.551583,26.476752 C -20.14804,19.230119 -26.434507,13.402929 -33.655828,13.402929 L -33.655828,13.402929 z M -32.321473,29.614471 C -34.033747,29.614471 -35.565063,28.195027 -35.706492,26.476752 C -35.847921,24.758479 -34.550269,23.339036 -32.837998,23.339036 C -31.125724,23.339036 -29.594405,24.758479 -29.45298,26.476752 C -29.311546,28.195027 -30.609199,29.614471 -32.321473,29.614471 z"
       id="path3040"
       style="fill:url(#linearGradient2879);fill-rule:nonzero;stroke:none;stroke-miterlimit:4" />
    <path
       d="M -33.655828,13.402929 C -40.877147,13.402929 -46.204351,19.230119 -45.607888,26.476752 C -45.011426,33.723386 -38.724962,39.550577 -31.503642,39.550577 C -24.282322,39.550577 -18.955118,33.723386 -19.551583,26.476752 C -20.14804,19.230119 -26.434507,13.402929 -33.655828,13.402929 L -33.655828,13.402929 z M -32.321473,29.614471 C -34.033747,29.614471 -35.565063,28.195027 -35.706492,26.476752 C -35.847921,24.758479 -34.550269,23.339036 -32.837998,23.339036 C -31.125724,23.339036 -29.594405,24.758479 -29.45298,26.476752 C -29.311546,28.195027 -30.609199,29.614471 -32.321473,29.614471 z"
       id="path3049"
       style="fill:url(#linearGradient2881);fill-rule:nonzero;stroke:#8e8e8e;stroke-width:0.98651576;stroke-miterlimit:4;stroke-opacity:1" />
    <path
       d="M -34.15629,13.79542 C -40.86516,14.050146 -45.749227,19.579709 -45.188019,26.398021 C -44.933605,29.48899 -43.609797,32.298429 -41.603992,34.484848 L -35.137805,28.579478 C -35.632457,28.050245 -35.89948,27.297301 -35.960585,26.554907 C -36.135707,24.42729 -34.807164,23.061136 -32.766588,23.061136 C -31.838617,23.061136 -30.873833,23.483742 -30.263492,24.157014 L -23.634509,18.330089 C -26.161303,15.55374 -29.788675,13.79542 -33.685577,13.79542 C -33.848641,13.79542 -33.995278,13.789306 -34.15629,13.79542 z"
       id="path3531"
       style="fill:url(#linearGradient2883);fill-opacity:1;fill-rule:nonzero;stroke:none;stroke-miterlimit:4;stroke-opacity:1" />
    <path
       d="M -33.101642,20.13595 C -36.630239,20.13595 -39.183064,23.018133 -38.898388,26.476752 C -38.606936,30.017721 -35.504368,32.817557 -32.057829,32.817557 C -28.529231,32.817557 -25.976403,29.935373 -26.261084,26.476752 C -26.552536,22.935785 -29.655099,20.13595 -33.101642,20.13595 L -33.101642,20.13595 z M -32.295058,29.935373 C -34.182451,29.935373 -35.870379,28.37076 -36.026273,26.476752 C -36.182166,24.582746 -34.7518,23.018133 -32.864412,23.018133 C -30.977019,23.018133 -29.289092,24.582746 -29.133196,26.476752 C -28.9773,28.37076 -30.407674,29.935373 -32.295058,29.935373 z"
       id="path3051"
       style="opacity:0.51098902;fill:#eeeeec;fill-rule:nonzero;stroke:none;stroke-miterlimit:4" />
    <path
       d="M -33.596623,14.197454 C -40.380556,14.197454 -45.385096,19.671658 -44.824762,26.479318 C -44.264426,33.286979 -38.358726,38.761183 -31.574791,38.761183 C -24.790863,38.761183 -19.786318,33.286979 -20.346658,26.479318 C -20.906991,19.671658 -26.812696,14.197454 -33.596623,14.197454 L -33.596623,14.197454 z"
       id="path5264"
       style="opacity:0.54644811;fill:none;fill-rule:nonzero;stroke:url(#linearGradient2885);stroke-width:0.98651576;stroke-miterlimit:4;stroke-opacity:1" />
    <path
       d="M 30.405591,24.930641 A 6.0987959,6.0987959 0 1 1 18.207999,24.930641 A 6.0987959,6.0987959 0 1 1 30.405591,24.930641 z"
       transform="matrix(0.6253513,0,5.1652428e-2,0.6275435,-49.036636,10.843633)"
       id="path6026"
       style="opacity:0.67213111;fill:none;fill-opacity:0.31638417;fill-rule:nonzero;stroke:url(#linearGradient2887);stroke-width:1.46539426;stroke-linecap:butt;stroke-linejoin:miter;marker:none;marker-start:none;marker-mid:none;marker-end:none;stroke-miterlimit:4;stroke-dashoffset:0;stroke-opacity:1;visibility:visible;display:inline;overflow:visible" />
    <path
       d="M 19.828288,17.854717 A 0.44991162,0.72862023 0 1 1 18.928464,17.854717 A 0.44991162,0.72862023 0 1 1 19.828288,17.854717 z"
       transform="matrix(1.4060662,0,0,0.8554945,-64.112017,18.010967)"
       id="path6089"
       style="fill:#ffffff;fill-opacity:0.37387384;fill-rule:evenodd;stroke:none;stroke-width:0.57255107;stroke-linecap:round;stroke-linejoin:miter;marker:none;marker-start:none;marker-mid:none;marker-end:none;stroke-miterlimit:4;stroke-dasharray:none;stroke-dashoffset:0;stroke-opacity:0.35585584;visibility:visible;display:inline;overflow:visible;enable-background:accumulate" />
    <path
       d="M 19.828288,17.854717 A 0.44991162,0.72862023 0 1 1 18.928464,17.854717 A 0.44991162,0.72862023 0 1 1 19.828288,17.854717 z"
       transform="matrix(1.4060662,0,0,0.8554945,-66.009833,18.010967)"
       id="path6087"
       style="fill:#ffffff;fill-opacity:0.37387384;fill-rule:evenodd;stroke:none;stroke-width:0.57255107;stroke-linecap:round;stroke-linejoin:miter;marker:none;marker-start:none;marker-mid:none;marker-end:none;stroke-miterlimit:4;stroke-dasharray:none;stroke-dashoffset:0;stroke-opacity:0.35585584;visibility:visible;display:inline;overflow:visible;enable-background:accumulate" />
    <path
       d="M 19.828288,17.854717 A 0.44991162,0.72862023 0 1 1 18.928464,17.854717 A 0.44991162,0.72862023 0 1 1 19.828288,17.854717 z"
       transform="matrix(0.7030331,0,0,0.8554945,-52.069888,18.634298)"
       id="path6083"
       style="fill:#2e3436;fill-opacity:1;fill-rule:evenodd;stroke:none;stroke-width:0.80970943;stroke-linecap:round;stroke-linejoin:miter;marker:none;marker-start:none;marker-mid:none;marker-end:none;stroke-miterlimit:4;stroke-dasharray:none;stroke-dashoffset:0;stroke-opacity:0.35585584;visibility:visible;display:inline;overflow:visible;enable-background:accumulate" />
    <path
       d="M 19.828288,17.854717 A 0.44991162,0.72862023 0 1 1 18.928464,17.854717 A 0.44991162,0.72862023 0 1 1 19.828288,17.854717 z"
       transform="matrix(0.7030331,0,0,0.8554945,-50.172072,18.634298)"
       id="path6085"
       style="fill:#2e3436;fill-opacity:1;fill-rule:evenodd;stroke:none;stroke-width:0.80970943;stroke-linecap:round;stroke-linejoin:miter;marker:none;marker-start:none;marker-mid:none;marker-end:none;stroke-miterlimit:4;stroke-dasharray:none;stroke-dashoffset:0;stroke-opacity:0.35585584;visibility:visible;display:inline;overflow:visible;enable-background:accumulate" />
    <path
       d="M -22.127103,12.426274 C -26.073451,13.032445 -29.707413,13.633378 -33.65327,14.24282 C -34.355029,14.532725 -34.175996,15.434654 -34.195401,16.05571 C -34.195401,20.315283 -34.195401,24.57485 -34.195401,28.834417 C -37.178336,27.963693 -40.372905,30.380463 -39.990609,33.129433 C -39.733992,34.855011 -37.478513,35.707896 -35.946708,35.287952 C -34.025098,34.899536 -32.476197,33.197688 -32.476197,30.972235 C -32.476197,26.930297 -32.540066,22.888367 -32.540066,18.84643 C -29.49034,18.425307 -26.169936,17.787907 -23.120202,17.366791 C -23.120202,20.5583 -23.120202,24.079843 -23.120202,27.271351 C -26.483067,26.736245 -28.836184,28.607182 -28.60906,31.303317 C -28.470993,32.954507 -26.718158,33.940424 -25.220961,33.673644 C -23.138728,33.446072 -21.226141,31.494019 -21.444726,29.273484 C -21.453066,23.918795 -21.429495,18.559816 -21.4537,13.207258 C -21.515233,12.835129 -21.713891,12.445641 -22.127103,12.426274 z"
       id="path3291"
       style="fill:#6a9ab8;fill-opacity:1;stroke:#39617a;stroke-width:1.79999995;stroke-linecap:round;stroke-linejoin:round;stroke-miterlimit:4;stroke-dasharray:none;stroke-opacity:1" />
    <path
       d="M -22.132101,12.350583 L -33.431516,14.158041 C -33.812453,14.158041 -34.109655,14.536522 -34.109655,15.007684 L -34.152227,30.003817 C -39.284058,30.646658 -34.341405,33.53686 -32.585711,31.648306 L -32.585711,18.747144 L -23.046171,17.168722 L -23.046171,28.214023 C -23.527933,28.05539 -24.419763,28.162161 -25.023365,28.249751 C -26.787628,28.505766 -28.217764,29.820227 -28.217764,31.205018 C -28.217764,32.58981 -26.787628,33.511248 -25.023365,33.255233 C -23.298283,33.004897 -21.890609,31.725087 -21.828958,30.373851 L -21.632652,30.373851 C -21.513989,30.373851 -21.41851,30.275021 -21.41851,30.152201 L -21.41851,17.093623 L -21.41851,16.299401 L -21.41851,13.356407 C -21.41851,12.885244 -21.751164,12.350583 -22.132101,12.350583 z"
       id="path3293"
       style="fill:#6a9ab8;fill-opacity:1;stroke:none;stroke-width:1;stroke-linecap:round;stroke-linejoin:round;stroke-miterlimit:4;stroke-dasharray:none;stroke-opacity:1" />
    <path
       d="M 22.35294,41.058823 A 5.2941175,2.8235295 0 1 1 11.764705,41.058823 A 5.2941175,2.8235295 0 1 1 22.35294,41.058823 z"
       transform="matrix(0.7075698,-0.1127813,0,1.1438395,-48.401979,-13.081033)"
       id="path3295"
       style="fill:url(#radialGradient2889);fill-opacity:1;stroke:none;stroke-width:0.70924914;stroke-linecap:round;stroke-linejoin:round;stroke-miterlimit:4;stroke-dasharray:none;stroke-opacity:1" />
    <path
       d="M 22.35294,41.058823 A 5.2941175,2.8235295 0 1 1 11.764705,41.058823 A 5.2941175,2.8235295 0 1 1 22.35294,41.058823 z"
       transform="matrix(0.4935668,-8.6593372e-2,0,0.5576262,-45.23105,9.7260371)"
       id="path3297"
       style="fill:url(#linearGradient2891);fill-opacity:1;stroke:none;stroke-width:1.19696414;stroke-linecap:round;stroke-linejoin:round;stroke-miterlimit:4;stroke-dasharray:none;stroke-opacity:0.29556651" />
    <path
       d="M 22.35294,41.058823 A 5.2941175,2.8235295 0 1 1 11.764705,41.058823 A 5.2941175,2.8235295 0 1 1 22.35294,41.058823 z"
       transform="matrix(0.678655,-0.1138876,0,1.1550604,-36.594599,-15.149217)"
       id="path3299"
       style="fill:url(#radialGradient2893);fill-opacity:1;stroke:none;stroke-width:0.70924914;stroke-linecap:round;stroke-linejoin:round;stroke-miterlimit:4;stroke-dasharray:none;stroke-opacity:1" />
    <path
       d="M 22.35294,41.058823 A 5.2941175,2.8235295 0 1 1 11.764705,41.058823 A 5.2941175,2.8235295 0 1 1 22.35294,41.058823 z"
       transform="matrix(0.4935668,-8.6593372e-2,0,0.5576262,-33.763846,8.0674781)"
       id="path3301"
       style="fill:url(#linearGradient2895);fill-opacity:1;stroke:none;stroke-width:1.19696414;stroke-linecap:round;stroke-linejoin:round;stroke-miterlimit:4;stroke-dasharray:none;stroke-opacity:0.29556651" />
    <path
       d="M -34.153003,29.134321 L -34.149645,15.221837 C -34.149645,15.221837 -33.954464,14.338814 -33.335419,14.206773 C -33.08577,14.164312 -22.158444,12.360519 -22.158444,12.360519 C -22.158444,12.360519 -23.176952,14.988343 -28.037109,15.673576 C -31.512212,16.165422 -33.483719,16.302791 -33.471973,18.356734 C -33.460314,20.431864 -33.568134,22.041304 -33.568134,29.597287 C -33.568134,29.651342 -33.863713,29.262227 -34.153003,29.134321 z"
       id="path3303"
       style="opacity:0.4;fill:url(#linearGradient2897);fill-opacity:1;fill-rule:evenodd;stroke:none;stroke-width:1;stroke-linecap:butt;stroke-linejoin:round;stroke-miterlimit:4;stroke-dasharray:none;stroke-opacity:1" />
    <path
       d="M -23.081306,27.282405 L -23.045688,17.171246 C -22.670303,17.120531 -22.848384,17.151605 -22.342195,17.075658 C -22.335265,18.999325 -22.289272,20.381953 -22.289272,27.647133 C -22.289272,27.701196 -22.690975,27.357086 -23.081306,27.282405 z"
       id="path3996"
       style="opacity:0.4;fill:#ffffff;fill-opacity:1;fill-rule:evenodd;stroke:none;stroke-width:1;stroke-linecap:butt;stroke-linejoin:round;stroke-miterlimit:4;stroke-dasharray:none;stroke-opacity:1;display:inline" />
  </g>
</svg>
