<?xml version="1.0" encoding="UTF-8" standalone="no"?>
<!-- Created with Inkscape (http://www.inkscape.org/) -->
<svg
   xmlns:svg="http://www.w3.org/2000/svg"
   xmlns="http://www.w3.org/2000/svg"
   xmlns:xlink="http://www.w3.org/1999/xlink"
   version="1.0"
   width="48"
   height="48"
   id="svg3117">
  <defs
     id="defs3119">
    <linearGradient
       id="linearGradient3484">
      <stop
         id="stop3486"
         style="stop-color:#bdbdbd;stop-opacity:1"
         offset="0" />
      <stop
         id="stop3488"
         style="stop-color:#d0d0d0;stop-opacity:1"
         offset="1" />
    </linearGradient>
    <radialGradient
       cx="3"
       cy="5.01718"
       r="21"
       fx="3"
       fy="5.01718"
       id="radialGradient2788"
       xlink:href="#linearGradient3484"
       gradientUnits="userSpaceOnUse"
       gradientTransform="matrix(-1.274898e-8,1.7142916,-2.159331,-1.4599595e-8,12.809361,2.8570011)" />
    <linearGradient
       id="linearGradient6404">
      <stop
         id="stop6406"
         style="stop-color:#f9f9f9;stop-opacity:1"
         offset="0" />
      <stop
         id="stop6408"
         style="stop-color:#c9c9c9;stop-opacity:1"
         offset="1" />
    </linearGradient>
    <linearGradient
       x1="62.988873"
       y1="13.182598"
       x2="62.988873"
       y2="16.19013"
       id="linearGradient2786"
       xlink:href="#linearGradient6404"
       gradientUnits="userSpaceOnUse"
       gradientTransform="translate(-50.940898,0)" />
    <linearGradient
       id="linearGradient5060-820">
      <stop
         id="stop2681"
         style="stop-color:#000000;stop-opacity:1"
         offset="0" />
      <stop
         id="stop2683"
         style="stop-color:#000000;stop-opacity:0"
         offset="1" />
    </linearGradient>
    <radialGradient
       cx="605.71429"
       cy="486.64789"
       r="117.14286"
       fx="605.71429"
       fy="486.64789"
       id="radialGradient7600-312"
       xlink:href="#linearGradient5060-820"
       gradientUnits="userSpaceOnUse"
       gradientTransform="matrix(-3.2129558e-2,0,0,3.7058823e-2,23.363215,25.412461)" />
    <linearGradient
       id="linearGradient5060-179">
      <stop
         id="stop2675"
         style="stop-color:#000000;stop-opacity:1"
         offset="0" />
      <stop
         id="stop2677"
         style="stop-color:#000000;stop-opacity:0"
         offset="1" />
    </linearGradient>
    <radialGradient
       cx="605.71429"
       cy="486.64789"
       r="117.14286"
       fx="605.71429"
       fy="486.64789"
       id="radialGradient7598-526"
       xlink:href="#linearGradient5060-179"
       gradientUnits="userSpaceOnUse"
       gradientTransform="matrix(3.2129565e-2,0,0,3.7058823e-2,24.636785,25.412461)" />
    <linearGradient
       id="linearGradient5048-585">
      <stop
         id="stop2667"
         style="stop-color:#000000;stop-opacity:0"
         offset="0" />
      <stop
         id="stop2669"
         style="stop-color:#000000;stop-opacity:1"
         offset="0.5" />
      <stop
         id="stop2671"
         style="stop-color:#000000;stop-opacity:0"
         offset="1" />
    </linearGradient>
    <linearGradient
       x1="302.85715"
       y1="366.64789"
       x2="302.85715"
       y2="609.50507"
       id="linearGradient7596-975"
       xlink:href="#linearGradient5048-585"
       gradientUnits="userSpaceOnUse"
       gradientTransform="matrix(8.2840237e-2,0,0,3.7058823e-2,-5.9408285,25.412461)" />
    <linearGradient
       id="linearGradient3390-178-986-453">
      <stop
         id="stop3624"
         style="stop-color:#bb5e12;stop-opacity:1"
         offset="0" />
      <stop
         id="stop3626"
         style="stop-color:#cd8033;stop-opacity:1"
         offset="1" />
    </linearGradient>
    <linearGradient
       x1="82.453476"
       y1="45.114193"
       x2="65.340263"
       y2="15.943953"
       id="linearGradient2779"
       xlink:href="#linearGradient3390-178-986-453"
       gradientUnits="userSpaceOnUse"
       gradientTransform="translate(-53.765393,-0.1141929)" />
    <linearGradient
       id="linearGradient7012-661-145-733-759-865-745-661-970-94">
      <stop
         id="stop3618"
         style="stop-color:#edd563;stop-opacity:1"
         offset="0" />
      <stop
         id="stop3620"
         style="stop-color:#e08223;stop-opacity:1"
         offset="1" />
    </linearGradient>
    <radialGradient
       cx="63.969177"
       cy="14.113381"
       r="23.097054"
       fx="63.969177"
       fy="14.113381"
       id="radialGradient2777"
       xlink:href="#linearGradient7012-661-145-733-759-865-745-661-970-94"
       gradientUnits="userSpaceOnUse"
       gradientTransform="matrix(1.5646925,-9.5143002e-8,6.1772287e-8,1.015888,-86.212573,8.1461173)" />
    <linearGradient
       id="linearGradient6129-963-697-142-998-580-273">
      <stop
         id="stop2661"
         style="stop-color:#0a0a0a;stop-opacity:0.498"
         offset="0" />
      <stop
         id="stop2663"
         style="stop-color:#0a0a0a;stop-opacity:0"
         offset="1" />
    </linearGradient>
    <linearGradient
       x1="22.934725"
       y1="49.629246"
       x2="22.809399"
       y2="36.657963"
       id="linearGradient2774"
       xlink:href="#linearGradient6129-963-697-142-998-580-273"
       gradientUnits="userSpaceOnUse"
       gradientTransform="matrix(1.1446925,0,0,0.9977536,-3.4661413,1.0988425)" />
    <linearGradient
       id="linearGradient6087-437-184-795-110-662-495">
      <stop
         id="stop2693"
         style="stop-color:#ffffff;stop-opacity:0.40000001"
         offset="0" />
      <stop
         id="stop2695"
         style="stop-color:#ffffff;stop-opacity:0"
         offset="1" />
    </linearGradient>
    <radialGradient
       cx="7.2646537"
       cy="8.3021259"
       r="20.979567"
       fx="7.2646537"
       fy="8.3021259"
       id="radialGradient2771"
       xlink:href="#linearGradient6087-437-184-795-110-662-495"
       gradientUnits="userSpaceOnUse"
       gradientTransform="matrix(0,1.2079744,-1.6271642,0,26.371748,8.2664685)" />
    <linearGradient
       id="linearGradient8265-821-176-38-919-66-249">
      <stop
         id="stop2687"
         style="stop-color:#ffffff;stop-opacity:0.27450982"
         offset="0" />
      <stop
         id="stop2689"
         style="stop-color:#ffffff;stop-opacity:0.07843138"
         offset="1" />
    </linearGradient>
    <linearGradient
       x1="11.566265"
       y1="22.292103"
       x2="15.214532"
       y2="33.95525"
       id="linearGradient3115"
       xlink:href="#linearGradient8265-821-176-38-919-66-249"
       gradientUnits="userSpaceOnUse"
       gradientTransform="translate(1.8241e-2,-5.00005e-2)" />
    <linearGradient
       id="linearGradient7812">
      <stop
         id="stop7814"
         style="stop-color:#000000;stop-opacity:1"
         offset="0" />
      <stop
         id="stop7816"
         style="stop-color:#000000;stop-opacity:0"
         offset="1" />
    </linearGradient>
    <linearGradient
       x1="-6.40625"
       y1="32.4375"
       x2="-7.78125"
       y2="34.5625"
       id="linearGradient3083"
       xlink:href="#linearGradient7812"
       gradientUnits="userSpaceOnUse"
       gradientTransform="matrix(-0.5248057,0,0,0.5248057,-23.960382,22.595691)" />
    <linearGradient
       x1="-4.1097827"
       y1="58.807774"
       x2="-4.1097827"
       y2="55.000004"
       id="linearGradient3081"
       xlink:href="#linearGradient7269"
       gradientUnits="userSpaceOnUse"
       gradientTransform="matrix(-0.5904064,0,0,0.6122733,-21.795558,4.6812298)" />
    <linearGradient
       id="linearGradient7660">
      <stop
         id="stop7662"
         style="stop-color:#ffffff;stop-opacity:1"
         offset="0" />
      <stop
         id="stop7664"
         style="stop-color:#ffffff;stop-opacity:0"
         offset="1" />
    </linearGradient>
    <linearGradient
       x1="41.1875"
       y1="38.3125"
       x2="42.123722"
       y2="42.9375"
       id="linearGradient3079"
       xlink:href="#linearGradient7660"
       gradientUnits="userSpaceOnUse"
       gradientTransform="matrix(-0.5248057,0,0,0.5248057,-13.464268,22.595691)" />
    <linearGradient
       id="linearGradient7576-259">
      <stop
         id="stop3231"
         style="stop-color:#787878;stop-opacity:1"
         offset="0" />
      <stop
         id="stop3233"
         style="stop-color:#6c6c6c;stop-opacity:0"
         offset="1" />
    </linearGradient>
    <linearGradient
       x1="38.75"
       y1="40.625"
       x2="40.125"
       y2="46.5625"
       id="linearGradient3077"
       xlink:href="#linearGradient7576-259"
       gradientUnits="userSpaceOnUse"
       gradientTransform="matrix(-0.5248057,0,0,0.5248057,-13.464268,22.595691)" />
    <linearGradient
       id="linearGradient7652-827">
      <stop
         id="stop3225"
         style="stop-color:#dbdbdb;stop-opacity:1"
         offset="0" />
      <stop
         id="stop3227"
         style="stop-color:#a0a0a0;stop-opacity:0"
         offset="1" />
    </linearGradient>
    <linearGradient
       x1="37.625"
       y1="40.3125"
       x2="38.875"
       y2="45.0625"
       id="linearGradient3075"
       xlink:href="#linearGradient7652-827"
       gradientUnits="userSpaceOnUse"
       gradientTransform="matrix(-0.5248057,0,0,0.5248057,-13.464268,22.595691)" />
    <linearGradient
       x1="30.3125"
       y1="27.313059"
       x2="30.3125"
       y2="24.6875"
       id="linearGradient3071"
       xlink:href="#linearGradient7422"
       gradientUnits="userSpaceOnUse" />
    <linearGradient
       x1="30.3125"
       y1="27.313059"
       x2="30.3125"
       y2="24.6875"
       id="linearGradient3069"
       xlink:href="#linearGradient7422"
       gradientUnits="userSpaceOnUse" />
    <linearGradient
       x1="30.3125"
       y1="27.313059"
       x2="30.3125"
       y2="24.6875"
       id="linearGradient3067"
       xlink:href="#linearGradient7422"
       gradientUnits="userSpaceOnUse" />
    <linearGradient
       x1="30.3125"
       y1="27.313059"
       x2="30.3125"
       y2="24.6875"
       id="linearGradient3065"
       xlink:href="#linearGradient7422"
       gradientUnits="userSpaceOnUse" />
    <linearGradient
       id="linearGradient7422">
      <stop
         id="stop7424"
         style="stop-color:#edd400;stop-opacity:1"
         offset="0" />
      <stop
         id="stop7426"
         style="stop-color:#edd400;stop-opacity:0"
         offset="1" />
    </linearGradient>
    <linearGradient
       x1="30.3125"
       y1="27.313059"
       x2="30.3125"
       y2="24.6875"
       id="linearGradient3073"
       xlink:href="#linearGradient7422"
       gradientUnits="userSpaceOnUse" />
    <linearGradient
       id="linearGradient7430">
      <stop
         id="stop7432"
         style="stop-color:#ffffff;stop-opacity:1"
         offset="0" />
      <stop
         id="stop7434"
         style="stop-color:#ffffff;stop-opacity:0"
         offset="1" />
    </linearGradient>
    <linearGradient
       x1="28.875"
       y1="29"
       x2="29"
       y2="16"
       id="linearGradient3063"
       xlink:href="#linearGradient7430"
       gradientUnits="userSpaceOnUse"
       gradientTransform="matrix(-0.5248057,0,0,0.5248057,39.675451,19.379085)" />
    <linearGradient
       id="linearGradient7340">
      <stop
         id="stop7342"
         style="stop-color:#2e3436;stop-opacity:1"
         offset="0" />
      <stop
         id="stop7344"
         style="stop-color:#555753;stop-opacity:1"
         offset="1" />
    </linearGradient>
    <linearGradient
       x1="32.8125"
       y1="21"
       x2="32.8125"
       y2="26.204767"
       id="linearGradient3061"
       xlink:href="#linearGradient7340"
       gradientUnits="userSpaceOnUse"
       gradientTransform="matrix(-0.5864288,0,0,0.5858254,42.306003,17.818634)" />
    <linearGradient
       id="linearGradient7277">
      <stop
         id="stop7279"
         style="stop-color:#555753;stop-opacity:1"
         offset="0" />
      <stop
         id="stop7281"
         style="stop-color:#d3d7cf;stop-opacity:1"
         offset="1" />
    </linearGradient>
    <linearGradient
       x1="-3.5355339"
       y1="55.866562"
       x2="-3.5355339"
       y2="59.444622"
       id="linearGradient3059"
       xlink:href="#linearGradient7277"
       gradientUnits="userSpaceOnUse"
       gradientTransform="matrix(-0.5248057,0,0,0.5398003,-21.861159,9.4005687)" />
    <linearGradient
       id="linearGradient7186">
      <stop
         id="stop7188"
         style="stop-color:#888a85;stop-opacity:1"
         offset="0" />
      <stop
         id="stop7190"
         style="stop-color:#ffffff;stop-opacity:1"
         offset="1" />
    </linearGradient>
    <linearGradient
       x1="-5.96875"
       y1="52.875"
       x2="-5.96875"
       y2="51.812416"
       id="linearGradient3057"
       xlink:href="#linearGradient7186"
       gradientUnits="userSpaceOnUse"
       gradientTransform="matrix(-0.5248057,0,0,0.5248057,-21.861159,10.000355)" />
    <linearGradient
       id="linearGradient7245">
      <stop
         id="stop7247"
         style="stop-color:#eeeeec;stop-opacity:1"
         offset="0" />
      <stop
         id="stop7249"
         style="stop-color:#ffffff;stop-opacity:1"
         offset="1" />
    </linearGradient>
    <linearGradient
       x1="-5.0823302"
       y1="50.51907"
       x2="0.26516503"
       y2="49.458408"
       id="linearGradient3055"
       xlink:href="#linearGradient7245"
       gradientUnits="userSpaceOnUse"
       gradientTransform="matrix(-0.5248057,0,0,0.5248057,-21.861159,10.000355)" />
    <linearGradient
       id="linearGradient7237">
      <stop
         id="stop7239"
         style="stop-color:#eeeeec;stop-opacity:1"
         offset="0" />
      <stop
         id="stop7241"
         style="stop-color:#babdb6;stop-opacity:1"
         offset="1" />
    </linearGradient>
    <linearGradient
       x1="-4.6845822"
       y1="52.640388"
       x2="0.88388348"
       y2="50.563263"
       id="linearGradient3053"
       xlink:href="#linearGradient7237"
       gradientUnits="userSpaceOnUse"
       gradientTransform="matrix(-0.5248057,0,0,0.5248057,-21.861159,10.000355)" />
    <linearGradient
       id="linearGradient7257">
      <stop
         id="stop7259"
         style="stop-color:#000000;stop-opacity:1"
         offset="0" />
      <stop
         id="stop7261"
         style="stop-color:#000000;stop-opacity:0"
         offset="1" />
    </linearGradient>
    <linearGradient
       x1="-1.9887378"
       y1="51.137787"
       x2="-3.3587573"
       y2="54"
       id="linearGradient3051"
       xlink:href="#linearGradient7257"
       gradientUnits="userSpaceOnUse"
       gradientTransform="matrix(-0.5248057,0,0,0.5248057,-21.861159,10.000355)" />
    <linearGradient
       id="linearGradient7269">
      <stop
         id="stop7271"
         style="stop-color:#ffffff;stop-opacity:1"
         offset="0" />
      <stop
         id="stop7273"
         style="stop-color:#d3d7cf;stop-opacity:1"
         offset="1" />
    </linearGradient>
    <linearGradient
       x1="-4.2208939"
       y1="59.878922"
       x2="-4.2208939"
       y2="54.707691"
       id="linearGradient3049"
       xlink:href="#linearGradient7269"
       gradientUnits="userSpaceOnUse"
       gradientTransform="matrix(0.9642856,0,0,0.9722222,-0.2500008,1.6944444)" />
    <linearGradient
       id="linearGradient7263">
      <stop
         id="stop7265"
         style="stop-color:#adb0a8;stop-opacity:1"
         offset="0" />
      <stop
         id="stop7267"
         style="stop-color:#ffffff;stop-opacity:1"
         offset="1" />
    </linearGradient>
    <linearGradient
       x1="1.6256078"
       y1="55.219357"
       x2="0.82206726"
       y2="54.415817"
       id="linearGradient3047"
       xlink:href="#linearGradient7263"
       gradientUnits="userSpaceOnUse" />
    <linearGradient
       id="linearGradient7438">
      <stop
         id="stop7440"
         style="stop-color:#ffffff;stop-opacity:1"
         offset="0" />
      <stop
         id="stop7442"
         style="stop-color:#ffffff;stop-opacity:0"
         offset="1" />
    </linearGradient>
    <linearGradient
       x1="-7.8516631"
       y1="3.7545938"
       x2="-5.5098634"
       y2="18.937717"
       id="linearGradient3045"
       xlink:href="#linearGradient7438"
       gradientUnits="userSpaceOnUse" />
    <linearGradient
       id="linearGradient6991">
      <stop
         id="stop6993"
         style="stop-color:#d3d7cf;stop-opacity:1"
         offset="0" />
      <stop
         id="stop6995"
         style="stop-color:#ffffff;stop-opacity:1"
         offset="1" />
    </linearGradient>
    <linearGradient
       x1="-7.975069"
       y1="25.357235"
       x2="-11.005972"
       y2="-6.5683565"
       id="linearGradient3043"
       xlink:href="#linearGradient6991"
       gradientUnits="userSpaceOnUse"
       gradientTransform="matrix(1.1874999,0,0,1.2,-17.281253,21.899998)" />
    <linearGradient
       id="linearGradient7822">
      <stop
         id="stop7824"
         style="stop-color:#000000;stop-opacity:1"
         offset="0" />
      <stop
         id="stop7826"
         style="stop-color:#000000;stop-opacity:0"
         offset="1" />
    </linearGradient>
    <radialGradient
       cx="14.363107"
       cy="34.785942"
       r="8.7946405"
       fx="14.363107"
       fy="34.785942"
       id="radialGradient3041"
       xlink:href="#linearGradient7822"
       gradientUnits="userSpaceOnUse"
       gradientTransform="matrix(1,0,0,0.6884422,0,10.837832)" />
  </defs>
  <g
     id="layer1">
    <path
       d="M 3.5062498,8.4999995 C 2.8159788,8.5076711 2.505808,8.8421456 2.505808,9.4999995 C 2.505808,15.014454 2.5320862,19.239576 2.5000001,24.25043 C 3.9354707,24.25043 45.499998,20.550698 45.499998,18.958166 L 45.499998,12.506647 C 45.499998,11.848794 44.945794,11.498976 44.255519,11.506647 L 24,11.506647 C 21.952517,11.506647 20.501109,8.4999995 19,8.4999995 L 3.5062498,8.4999995 z"
       id="path3468"
       style="fill:url(#linearGradient2786);fill-opacity:1;stroke:url(#radialGradient2788);stroke-width:1.00000012;stroke-linecap:round;stroke-linejoin:round;stroke-miterlimit:4;stroke-dasharray:none;stroke-opacity:1;display:inline" />
    <g
       transform="matrix(0.9583333,0,0,0.6666667,1.0000008,15)"
       id="g7591"
       style="opacity:0.4">
      <rect
         width="40"
         height="9"
         x="4"
         y="39"
         id="rect4173"
         style="opacity:1;fill:url(#linearGradient7596-975);fill-opacity:1;fill-rule:nonzero;stroke:none;stroke-width:1;stroke-linecap:round;stroke-linejoin:miter;marker:none;marker-start:none;marker-mid:none;marker-end:none;stroke-miterlimit:4;stroke-dasharray:none;stroke-dashoffset:0;stroke-opacity:1;visibility:visible;display:inline;overflow:visible" />
      <path
         d="M 44,39.00031 C 44,39.00031 44,47.999814 44,47.999814 C 45.654593,48.016755 48.000001,45.983481 48,43.499483 C 48,41.015484 46.153598,39.00031 44,39.00031 z"
         id="path5058"
         style="opacity:1;fill:url(#radialGradient7598-526);fill-opacity:1;fill-rule:nonzero;stroke:none;stroke-width:1;stroke-linecap:round;stroke-linejoin:miter;marker:none;marker-start:none;marker-mid:none;marker-end:none;stroke-miterlimit:4;stroke-dasharray:none;stroke-dashoffset:0;stroke-opacity:1;visibility:visible;display:inline;overflow:visible" />
      <path
         d="M 4,39.00031 C 4,39.00031 4,47.999814 4,47.999814 C 2.3454068,48.016755 0,45.983481 0,43.499483 C 0,41.015484 1.8464008,39.00031 4,39.00031 z"
         id="path5018"
         style="opacity:1;fill:url(#radialGradient7600-312);fill-opacity:1;fill-rule:nonzero;stroke:none;stroke-width:1;stroke-linecap:round;stroke-linejoin:miter;marker:none;marker-start:none;marker-mid:none;marker-end:none;stroke-miterlimit:4;stroke-dasharray:none;stroke-dashoffset:0;stroke-opacity:1;visibility:visible;display:inline;overflow:visible" />
    </g>
    <path
       d="M 2.1628556,16.525193 C 1.0901486,16.648887 1.6630856,17.927311 1.5775586,18.646205 C 1.9700906,27.116295 2.3664906,35.41566 2.7566056,43.885807 C 3.0984416,44.8515 4.3510406,44.356967 5.1447226,44.479557 C 18.338267,44.479557 31.531812,44.479557 44.725358,44.479557 C 45.814738,44.372906 45.361818,43.071876 45.515058,42.327295 C 45.907598,33.857205 46.303998,25.55784 46.694108,17.087693 C 46.442938,16.133404 45.174598,16.663679 44.430985,16.525193 C 30.341611,16.525193 16.252234,16.525193 2.1628556,16.525193 z"
       id="path3388"
       style="fill:url(#radialGradient2777);fill-opacity:1;stroke:url(#linearGradient2779);stroke-width:1;stroke-linecap:round;stroke-linejoin:round;stroke-miterlimit:4;stroke-dashoffset:0;stroke-opacity:1" />
    <path
       d="M 2.0582428,16.065146 L 45.954718,16.065549 C 46.588878,16.065549 46.999873,16.51016 46.999873,17.062916 L 45.755637,44.002247 C 45.755637,44.555002 45.245105,45 44.610947,45 L 3.4020122,45 C 2.7678523,45 2.2573195,44.555002 2.2573195,44.002247 L 1.0130886,17.0629 C 1.0130886,16.510143 1.4240829,16.065146 2.0582428,16.065146 z"
       id="path6127"
       style="opacity:0.4;fill:url(#linearGradient2774);fill-opacity:1;stroke:none;stroke-width:1;stroke-linecap:round;stroke-linejoin:round;stroke-miterlimit:4;stroke-dashoffset:0;stroke-opacity:1" />
    <path
       d="M 46.5,17.5 C 32.96875,17.5 16.03125,17.5 2.5,17.5 C 2.8854167,25.677083 3.2708333,33.854167 3.65625,42.03125"
       id="path2435"
       style="fill:none;fill-rule:evenodd;stroke:url(#radialGradient2771);stroke-width:0.99999976;stroke-linecap:round;stroke-linejoin:round;stroke-miterlimit:4;stroke-dasharray:none;stroke-opacity:1" />
    <rect
       width="13"
       height="2"
       rx="1"
       ry="1"
       x="5"
       y="10"
       id="rect3562"
       style="opacity:1;fill:#edbd74;fill-opacity:1;fill-rule:nonzero;stroke:none;stroke-width:1;stroke-linecap:butt;stroke-linejoin:miter;marker:none;marker-start:none;marker-mid:none;marker-end:none;stroke-miterlimit:4;stroke-dasharray:none;stroke-dashoffset:0;stroke-opacity:1;visibility:visible;display:block;overflow:visible;enable-background:accumulate" />
    <path
       d="M 45.768241,15.95 C 31.218651,16.023347 16.663657,15.92885 2.111991,15.95 C 0.305231,16.361117 1.277584,18.416609 1.139565,19.721524 C 1.361594,23.884872 1.462631,28.066464 1.760026,32.218407 C 16.760539,29.855608 31.686571,27.611153 46.424491,25.168749 C 47.205482,22.582171 47.211869,19.498155 47.081848,16.739525 C 46.852712,16.234964 46.29484,15.938682 45.768241,15.95 z"
       id="path2762"
       style="fill:url(#linearGradient3115);fill-opacity:1;stroke:none;stroke-width:1;stroke-linecap:round;stroke-linejoin:round;stroke-miterlimit:4;stroke-dashoffset:0;stroke-opacity:1" />
    <g
       transform="translate(53.682766,0.449999)"
       id="g2977">
      <path
         d="M -16.088297,28.893359 L -17.662714,28.893359 L -18.712325,28.893359 L -17.137908,28.893359 L -16.088297,28.893359 z"
         id="path7013"
         style="fill:#ffffff;fill-opacity:1;fill-rule:evenodd;stroke:none;stroke-width:1;stroke-linecap:round;stroke-linejoin:miter;stroke-miterlimit:4;stroke-dashoffset:0.69999992;stroke-opacity:0.99236642" />
      <path
         d="M 23.157747,34.785942 A 8.7946405,6.0546017 0 1 1 5.5684662,34.785942 A 8.7946405,6.0546017 0 1 1 23.157747,34.785942 z"
         transform="matrix(-0.6066716,0,0,0.5860968,-12.682707,19.54521)"
         id="path7820"
         style="opacity:0.45895523;fill:url(#radialGradient3041);fill-opacity:1;fill-rule:evenodd;stroke:none;stroke-width:1;stroke-linecap:round;stroke-linejoin:round;stroke-miterlimit:4;stroke-dasharray:none;stroke-dashoffset:0.69999992;stroke-opacity:1" />
      <g
         transform="translate(-54.664525,-0.4570338)"
         id="g2540">
        <rect
           width="19"
           height="18"
           rx="2.2850928"
           ry="2.3001263"
           x="-34.5"
           y="22.5"
           transform="scale(-1,1)"
           id="rect5925"
           style="fill:url(#linearGradient3043);fill-opacity:1;fill-rule:evenodd;stroke:#999999;stroke-width:1.00000012;stroke-linecap:round;stroke-linejoin:round;stroke-miterlimit:4;stroke-dasharray:none;stroke-dashoffset:0.69999992;stroke-opacity:0.99236642" />
        <path
           d="M -12.5,1.5 C -13.072952,1.5 -13.5,1.9270471 -13.5,2.5 L -13.5,13.5 C -13.5,14.072953 -13.072954,14.5 -12.5,14.5 L -0.5,14.5 C 0.072953444,14.5 0.5,14.072954 0.5,13.5 L 0.5,2.5 C 0.5,1.9270468 0.072953144,1.5 -0.5,1.5 L -12.5,1.5 z"
           transform="matrix(-1.197479,0,0,1.2115385,17.216386,21.807693)"
           id="path6964"
           style="fill:none;fill-opacity:1;fill-rule:evenodd;stroke:url(#linearGradient3045);stroke-width:0.83022809;stroke-linecap:round;stroke-linejoin:round;stroke-miterlimit:4;stroke-dasharray:none;stroke-dashoffset:0.69999992;stroke-opacity:0.99236642" />
      </g>
      <g
         transform="matrix(-0.6122733,0,0,0.6297668,-21.948627,3.5977249)"
         id="g7162">
        <path
           d="M -2.34375,51 C -2.5485199,51 -2.7249072,51.101237 -2.84375,51.25 L -6.859375,55.25 C -6.8943841,55.381797 -6.9584881,55.521336 -7,55.65625 L -7,61.177083 C -7,61.540646 -6.7034811,61.833333 -6.34375,61.833333 L 0.34375,61.833333 C 0.52361547,61.833333 0.6951329,61.76445 0.8125,61.645833 L 4.8125,57.645833 C 4.9298671,57.527216 5,57.358864 5,57.177083 L 5,51.65625 C 5,51.474469 4.9298671,51.306117 4.8125,51.1875 C 4.6934039,51.068883 4.5236156,51 4.34375,51 L -2.34375,51 z"
           id="rect6100"
           style="fill:url(#linearGradient3047);fill-opacity:1;fill-rule:evenodd;stroke:none;stroke-width:1;stroke-linecap:round;stroke-linejoin:miter;stroke-miterlimit:4;stroke-dashoffset:0.69999992;stroke-opacity:0.99236642" />
        <path
           d="M -6.3738568,55.166667 L 0.088142442,55.166667 C 0.43502581,55.166667 0.71428575,55.451224 0.71428575,55.804688 L 0.71428575,61.195312 C 0.71428575,61.548776 0.43502581,61.833333 0.088142442,61.833333 L -6.3738568,61.833333 C -6.7207401,61.833333 -7,61.548776 -7,61.195312 L -7,55.804688 C -7,55.451224 -6.7207401,55.166667 -6.3738568,55.166667 z"
           id="path6105"
           style="fill:url(#linearGradient3049);fill-opacity:1;fill-rule:evenodd;stroke:none;stroke-width:1;stroke-linecap:round;stroke-linejoin:miter;stroke-miterlimit:4;stroke-dashoffset:0.69999992;stroke-opacity:0.99236642" />
      </g>
      <path
         d="M -21.336354,35.715835 L -18.712325,38.339863 L -20.811548,38.339863 L -23.435576,35.715835 L -21.336354,35.715835"
         id="path7253"
         style="opacity:0.12313436;fill:url(#linearGradient3051);fill-opacity:1;fill-rule:evenodd;stroke:none;stroke-width:1px;stroke-linecap:butt;stroke-linejoin:miter;stroke-opacity:1" />
      <path
         d="M -23.435576,35.715835 L -18.449922,37.815056 L -20.286742,37.815056 L -22.910771,36.24064 L -23.435576,35.715835"
         id="path6126"
         style="fill:#babdb6;fill-rule:evenodd;stroke:none;stroke-width:1px;stroke-linecap:butt;stroke-linejoin:miter;stroke-opacity:1" />
      <path
         d="M -20.516345,35.978237 C -20.503837,35.978237 -20.487683,35.98162 -20.434344,36.043838 C -20.418594,36.055717 -20.402166,36.066668 -20.385143,36.076638 C -20.374714,36.088065 -20.363769,36.09901 -20.352343,36.109439 C -20.341914,36.120865 -20.330969,36.13181 -20.319542,36.142239 L -20.303142,36.142239 C -20.292713,36.153666 -20.281769,36.164611 -20.270342,36.175038 L -20.171941,36.27344 C -20.115869,36.326102 -20.048579,36.365355 -19.975139,36.388241 L -17.744714,37.027848 C -17.534532,37.137195 -17.46445,37.211174 -17.433111,37.273851 C -17.432645,37.274783 -17.450963,37.344475 -17.433111,37.323051 C -17.476065,37.374595 -17.622237,37.455431 -17.875916,37.503453 C -18.054296,37.539598 -18.199751,37.668331 -18.257307,37.840995 C -18.314862,38.013661 -18.275737,38.20392 -18.154719,38.339863 L -17.974317,38.536665 C -17.963918,38.582619 -17.94606,38.625926 -17.925116,38.700667 C -17.921204,38.714629 -17.929398,38.719154 -17.925116,38.733467 L -17.925116,42.144704 C -17.925116,42.173142 -17.925314,42.20534 -17.957917,42.243105 C -17.974443,42.262248 -18.012105,42.275906 -18.039918,42.275906 L -22.156362,42.275906 C -22.204945,42.275906 -22.24476,42.270553 -22.271164,42.243105 C -22.271075,42.237639 -22.271075,42.232172 -22.271164,42.226705 L -24.71479,39.701078 C -24.742178,39.672608 -24.747591,39.659543 -24.747591,39.602677 L -24.747591,36.125839 C -24.747591,36.068976 -24.742179,36.039509 -24.71479,36.011038 C -24.695464,35.991238 -24.633456,35.978237 -24.616389,35.978237 L -20.516345,35.978237 z"
         id="path7235"
         style="opacity:0.53358208;fill:none;fill-opacity:1;fill-rule:evenodd;stroke:#ffffff;stroke-width:1.00000012;stroke-linecap:round;stroke-linejoin:round;stroke-miterlimit:4;stroke-dashoffset:0.69999992;stroke-opacity:1" />
      <path
         d="M -20.516345,35.469832 C -20.312856,35.469832 -20.153341,35.584492 -20.040739,35.715835 L -20.024339,35.699434 L -20.007939,35.732235 L -19.827537,35.896235 L -17.597113,36.535843 C -17.580181,36.539562 -17.563689,36.545058 -17.547912,36.552244 C -17.259839,36.69628 -17.074523,36.843014 -16.973906,37.044249 C -16.873289,37.245484 -16.912755,37.498953 -17.039507,37.651055 C -17.211684,37.857667 -17.489583,37.940952 -17.777515,37.995458 L -17.564313,38.225062 C -17.53477,38.252039 -17.512253,38.285815 -17.498712,38.323462 C -17.482261,38.387164 -17.462031,38.48919 -17.433111,38.585866 C -17.424651,38.606874 -17.419132,38.628948 -17.416711,38.651466 L -17.416711,42.144704 C -17.416711,42.301552 -17.476135,42.449971 -17.580713,42.571109 C -17.68529,42.692247 -17.848818,42.784311 -18.039918,42.784311 L -22.156362,42.784311 C -22.326207,42.784311 -22.501104,42.723546 -22.631968,42.587509 L -25.075594,40.061882 C -25.194137,39.938654 -25.255996,39.778672 -25.255996,39.602677 L -25.255996,36.125839 C -25.255996,35.949844 -25.194136,35.78986 -25.075594,35.666634 C -24.958218,35.546392 -24.786235,35.469832 -24.616389,35.469832 L -20.516345,35.469832 z"
         id="path7229"
         style="fill:none;fill-opacity:1;fill-rule:evenodd;stroke:#787878;stroke-width:1.00000012;stroke-linecap:round;stroke-linejoin:round;stroke-miterlimit:4;stroke-dashoffset:0.69999992;stroke-opacity:1" />
      <path
         d="M -23.435576,35.715835 L -17.662714,37.027848 L -18.712325,37.815056 L -20.286742,37.815056 L -22.910771,36.24064 L -23.435576,35.715835"
         id="path7184"
         style="fill:url(#linearGradient3053);fill-opacity:1;fill-rule:evenodd;stroke:none;stroke-width:1px;stroke-linecap:butt;stroke-linejoin:miter;stroke-opacity:1" />
      <path
         d="M -21.336354,35.715835 L -17.662714,36.765445 L -19.761936,36.765445 L -23.435576,35.715835 L -21.336354,35.715835"
         id="path7171"
         style="fill:url(#linearGradient3055);fill-opacity:1;fill-rule:evenodd;stroke:none;stroke-width:1px;stroke-linecap:butt;stroke-linejoin:miter;stroke-opacity:1" />
      <path
         d="M -17.662714,36.765445 L -19.611404,36.765445 L -19.761936,36.765445 C -18.712325,37.290251 -19.499534,37.815056 -20.286742,37.815056 L -18.187519,37.815056 C -17.400311,37.815056 -16.613102,37.290251 -17.662714,36.765445 z"
         id="rect7173"
         style="fill:url(#linearGradient3057);fill-opacity:1;fill-rule:evenodd;stroke:none;stroke-width:1;stroke-linecap:round;stroke-linejoin:round;stroke-miterlimit:4;stroke-dashoffset:0.69999992;stroke-opacity:1" />
      <path
         d="M -18.925309,39.389474 L -21.12337,39.389474 C -21.241363,39.389474 -21.336354,39.491877 -21.336354,39.619077 L -21.336354,41.259094 C -21.336354,41.386295 -21.241363,41.488697 -21.12337,41.488697 L -18.925309,41.488697 C -18.807316,41.488697 -18.712325,41.386295 -18.712325,41.259094 L -18.712325,39.619077 C -18.712325,39.491877 -18.807316,39.389474 -18.925309,39.389474 z"
         id="path7275"
         style="fill:url(#linearGradient3059);fill-opacity:1;fill-rule:evenodd;stroke:none;stroke-width:1;stroke-linecap:round;stroke-linejoin:miter;stroke-miterlimit:4;stroke-dashoffset:0.69999992;stroke-opacity:0.99236642" />
      <g
         transform="translate(-54.664525,-0.4570338)"
         id="g2531">
        <path
           d="M 25.55613,28.070578 C 25.900719,28.070578 26.179211,28.348783 26.179211,28.693018 L 26.179211,28.848208 C 26.179211,29.006327 26.302867,29.14112 26.472426,29.14112 L 27.315417,29.14112 C 27.660006,29.14112 27.938498,29.520435 27.938498,29.864668 L 27.938498,33.340096 C 27.938498,33.684331 27.660005,33.962536 27.315417,33.962536 L 22.697289,33.962536 C 22.352701,33.962536 22.074209,33.684331 22.074209,33.340096 L 22.074209,29.864668 C 22.074209,29.520434 22.3527,29.14112 22.697289,29.14112 L 23.540281,29.14112 C 23.681445,29.150647 23.833495,29.04066 23.833495,28.857361 L 23.833495,28.693018 C 23.833495,28.348783 24.111988,28.070578 24.456576,28.070578 L 25.55613,28.070578 z"
           id="rect7327"
           style="fill:url(#linearGradient3061);fill-opacity:1;fill-rule:evenodd;stroke:none;stroke-width:0.99999988;stroke-linecap:round;stroke-linejoin:round;stroke-miterlimit:4;stroke-dasharray:none;stroke-dashoffset:0.69999992;stroke-opacity:1" />
        <path
           d="M 23.6875,27.78125 C 23.060961,27.78125 22.60232,28.265511 22.46875,28.84375 L 22.125,28.84375 C 21.400875,28.84375 20.78125,29.424669 20.78125,30.15625 L 20.78125,33.25 C 20.78125,33.981581 21.393419,34.593751 22.125,34.59375 L 26.25,34.59375 C 26.98158,34.59375 27.593749,33.981582 27.59375,33.25 L 27.59375,30.15625 C 27.59375,29.424669 26.974125,28.843751 26.25,28.84375 L 25.9375,28.84375 C 25.798176,28.261351 25.314039,27.78125 24.6875,27.78125 L 23.6875,27.78125 z"
           transform="matrix(1.0275229,0,0,1.0275229,0.1467896,-1.0458711)"
           id="path2709"
           style="fill:none;fill-opacity:1;fill-rule:evenodd;stroke:url(#linearGradient3063);stroke-width:0.97321439;stroke-linecap:round;stroke-linejoin:miter;stroke-miterlimit:4;stroke-dashoffset:0.69999992;stroke-opacity:1" />
        <g
           transform="matrix(-0.5392499,0,0,0.5392499,40.914225,18.327333)"
           id="g7393"
           style="fill-opacity:1;stroke:url(#linearGradient3073);stroke-width:1.85442805">
          <path
             d="M 26.5,26.5 L 26.5,24.5"
             id="path7352"
             style="fill:none;fill-opacity:1;fill-rule:evenodd;stroke:url(#linearGradient3065);stroke-width:1.85442805px;stroke-linecap:round;stroke-linejoin:miter;stroke-opacity:1" />
          <path
             d="M 28.5,26.5 L 28.5,24.5"
             id="path7362"
             style="fill:none;fill-opacity:1;fill-rule:evenodd;stroke:url(#linearGradient3067);stroke-width:1.85442805px;stroke-linecap:round;stroke-linejoin:miter;stroke-opacity:1" />
          <path
             d="M 30.5,26.5 L 30.5,24.5"
             id="path7364"
             style="fill:none;fill-opacity:1;fill-rule:evenodd;stroke:url(#linearGradient3069);stroke-width:1.85442805px;stroke-linecap:round;stroke-linejoin:miter;stroke-opacity:1" />
          <path
             d="M 32.5,26.5 L 32.5,24.5"
             id="path7366"
             style="fill:none;fill-opacity:1;fill-rule:evenodd;stroke:url(#linearGradient3071);stroke-width:1.85442805px;stroke-linecap:round;stroke-linejoin:miter;stroke-opacity:1" />
        </g>
      </g>
      <path
         d="M -21.172352,38.635065 C -21.172352,38.635065 -18.973744,40.349968 -16.924706,42.046303 C -15.900186,42.89447 -14.983944,43.736729 -14.448279,44.555531 C -14.180446,44.964931 -13.930235,45.407406 -14.103875,46.015146 C -14.190695,46.319015 -14.424734,46.603567 -14.677881,46.753154 C -14.931029,46.902742 -15.180725,46.966346 -15.46509,46.999156 C -16.579714,47.127768 -17.947937,46.792597 -19.581534,46.32675 C -21.215132,45.860903 -23.081593,45.233914 -24.960793,44.621131 C -26.839993,44.008349 -28.737497,43.410896 -30.389252,43.046714 C -32.041007,42.682532 -33.451548,42.582275 -34.259694,42.784311 C -34.642241,42.879948 -34.650964,42.942185 -34.653298,42.948313 C -34.655632,42.95444 -34.687189,43.124349 -34.538497,43.440318 C -34.241114,44.072258 -33.360237,45.075893 -32.340873,46.031547 C -30.302145,47.942854 -27.699623,49.770787 -27.699623,49.770787 L -28.618033,51.050001 C -28.618033,51.050001 -31.263568,49.204294 -33.423285,47.179559 C -34.503143,46.167191 -35.459087,45.137204 -35.948912,44.096326 C -36.193825,43.575886 -36.356582,42.987286 -36.129314,42.390707 C -35.902046,41.794128 -35.320362,41.40946 -34.653298,41.242695 C -33.362222,40.919925 -31.79613,41.135372 -30.044848,41.521498 C -28.293566,41.907623 -26.361628,42.495084 -24.468788,43.112315 C -22.575947,43.729546 -20.727767,44.36947 -19.15513,44.817932 C -17.62674,45.253778 -16.374745,45.458244 -15.760293,45.40834 C -16.085637,44.911028 -16.965214,44.068167 -17.941517,43.259915 C -19.894121,41.643416 -22.123562,39.91428 -22.123562,39.91428 L -21.172352,38.635065 z"
         id="path7506"
         style="fill:url(#linearGradient3075);fill-opacity:1;fill-rule:evenodd;stroke:url(#linearGradient3077);stroke-width:0.5;stroke-linecap:butt;stroke-linejoin:round;stroke-miterlimit:4;stroke-dasharray:none;stroke-opacity:1" />
      <path
         d="M -21.689199,39.00616 C -21.689199,39.00616 -12.013094,45.664631 -15.424331,46.058236 C -18.835568,46.45184 -30.11889,40.81018 -34.317336,41.859791 C -38.515781,42.909402 -28.019667,50.256682 -28.019667,50.256682"
         id="path7502"
         style="opacity:0.6;fill:none;fill-opacity:1;fill-rule:evenodd;stroke:url(#linearGradient3079);stroke-width:0.5;stroke-linecap:butt;stroke-linejoin:miter;stroke-miterlimit:4;stroke-dasharray:none;stroke-opacity:1" />
      <path
         d="M -18.758911,38.356262 L -18.925527,39.405875 L -21.123151,39.405875 C -21.241144,39.405875 -21.336353,39.508277 -21.336353,39.635477 L -21.336353,41.275495 L -22.385965,41.111493 L -22.385965,38.766267 C -22.385965,38.543668 -22.221148,38.356262 -22.008761,38.356262 L -18.758911,38.356262 z"
         id="path7512"
         style="fill:url(#linearGradient3081);fill-opacity:1;fill-rule:evenodd;stroke:none;stroke-width:1;stroke-linecap:round;stroke-linejoin:miter;stroke-miterlimit:4;stroke-dashoffset:0.69999992;stroke-opacity:0.99236642" />
      <path
         d="M -18.925309,39.389474 L -21.12337,39.389474 C -21.241363,39.389474 -21.336354,39.491877 -21.336354,39.619077 L -21.336354,41.259094 C -21.336354,41.386295 -21.241363,41.488697 -21.12337,41.488697 L -18.925309,41.488697 C -18.807316,41.488697 -18.712325,41.386295 -18.712325,41.259094 L -18.712325,39.619077 C -18.712325,39.491877 -18.807316,39.389474 -18.925309,39.389474 z"
         id="path7810"
         style="opacity:0.35447759;fill:url(#linearGradient3083);fill-opacity:1;fill-rule:evenodd;stroke:none;stroke-width:1;stroke-linecap:round;stroke-linejoin:miter;stroke-miterlimit:4;stroke-dashoffset:0.69999992;stroke-opacity:0.99236642" />
    </g>
  </g>
</svg>
