<?xml version="1.0" encoding="UTF-8" standalone="no"?>
<!-- Created with Inkscape (http://www.inkscape.org/) -->
<svg
   xmlns:svg="http://www.w3.org/2000/svg"
   xmlns="http://www.w3.org/2000/svg"
   xmlns:xlink="http://www.w3.org/1999/xlink"
   width="48"
   height="48"
   id="svg2"
   version="1.0">
  <defs
     id="defs4">
    <linearGradient
       id="linearGradient6332">
      <stop
         id="stop6334"
         offset="0"
         style="stop-color:#db6b29;stop-opacity:1;" />
      <stop
         id="stop6336"
         offset="1"
         style="stop-color:#bd591f;stop-opacity:1;" />
    </linearGradient>
    <radialGradient
       inkscape:collect="always"
       xlink:href="#linearGradient6332"
       id="radialGradient5752"
       gradientUnits="userSpaceOnUse"
       gradientTransform="matrix(0.2784946,5.1847079e-3,-4.2230783e-3,0.2199575,-17.972973,22.26459)"
       cx="123.96817"
       cy="-59.268753"
       fx="123.96817"
       fy="-59.268753"
       r="98.979601" />
    <linearGradient
       id="linearGradient6316">
      <stop
         id="stop6318"
         offset="0"
         style="stop-color:#f4bd9d;stop-opacity:1;" />
      <stop
         id="stop6320"
         offset="1"
         style="stop-color:#dc6b28;stop-opacity:1;" />
    </linearGradient>
    <radialGradient
       inkscape:collect="always"
       xlink:href="#linearGradient6316"
       id="radialGradient5750"
       gradientUnits="userSpaceOnUse"
       gradientTransform="matrix(0.3160942,7.622369e-3,-5.764478e-3,0.2332621,-21.023024,21.035408)"
       cx="114.31566"
       cy="-47.051155"
       fx="114.31566"
       fy="-47.051155"
       r="98.979601" />
    <radialGradient
       inkscape:collect="always"
       xlink:href="#linearGradient6306"
       id="radialGradient5747"
       gradientUnits="userSpaceOnUse"
       gradientTransform="matrix(0.5212677,-5.2713511e-2,5.8489609e-2,0.5669125,-43.109823,7.4321333)"
       cx="107.54063"
       cy="24.407963"
       fx="107.54063"
       fy="24.407963"
       r="40.459671" />
    <radialGradient
       inkscape:collect="always"
       xlink:href="#linearGradient6298"
       id="radialGradient5745"
       gradientUnits="userSpaceOnUse"
       gradientTransform="matrix(0.5540418,9.5698741e-3,-1.107035e-2,0.633771,-41.874341,-0.7049995)"
       cx="100.24318"
       cy="23.93508"
       fx="100.24318"
       fy="23.93508"
       r="40.459671" />
    <linearGradient
       id="linearGradient6306">
      <stop
         id="stop6308"
         offset="0"
         style="stop-color:#ce965e;stop-opacity:1;" />
      <stop
         id="stop6310"
         offset="1"
         style="stop-color:#c4702c;stop-opacity:1;" />
    </linearGradient>
    <linearGradient
       id="linearGradient6298">
      <stop
         id="stop6300"
         offset="0"
         style="stop-color:#ebd87e;stop-opacity:1;" />
      <stop
         id="stop6302"
         offset="1"
         style="stop-color:#dd974f;stop-opacity:1;" />
    </linearGradient>
    <linearGradient
       id="linearGradient6366">
      <stop
         id="stop6368"
         offset="0"
         style="stop-color:#a11322;stop-opacity:1;" />
      <stop
         id="stop6370"
         offset="1"
         style="stop-color:#8f111d;stop-opacity:1;" />
    </linearGradient>
    <radialGradient
       inkscape:collect="always"
       xlink:href="#linearGradient6366"
       id="radialGradient5740"
       gradientUnits="userSpaceOnUse"
       gradientTransform="matrix(0.2785966,3.3188154e-3,-2.9970042e-3,0.2475549,-32.138676,16.95902)"
       cx="222.54778"
       cy="37.162521"
       fx="222.54778"
       fy="37.162521"
       r="98.979601" />
    <linearGradient
       id="linearGradient6350">
      <stop
         id="stop6352"
         offset="0"
         style="stop-color:#de3a4d;stop-opacity:1;" />
      <stop
         id="stop6354"
         offset="1"
         style="stop-color:#ab1d2c;stop-opacity:1;" />
    </linearGradient>
    <radialGradient
       inkscape:collect="always"
       xlink:href="#linearGradient6350"
       id="radialGradient5738"
       gradientUnits="userSpaceOnUse"
       gradientTransform="matrix(0.2222782,2.9598329e-3,-2.1806386e-3,0.1626895,-18.89209,18.872451)"
       cx="214.58691"
       cy="54.659813"
       fx="214.58691"
       fy="54.659813"
       r="98.979601" />
    <radialGradient
       inkscape:collect="always"
       xlink:href="#linearGradient6280"
       id="radialGradient5735"
       gradientUnits="userSpaceOnUse"
       gradientTransform="matrix(2.9675956e-2,1.9651259e-2,-0.1154851,0.1732441,7.8280355,14.5845)"
       cx="100.62272"
       cy="-22.827475"
       fx="100.62272"
       fy="-22.827475"
       r="116.21894" />
    <linearGradient
       id="linearGradient6280"
       inkscape:collect="always">
      <stop
         id="stop6282"
         offset="0"
         style="stop-color:#ffffff;stop-opacity:1;" />
      <stop
         id="stop6284"
         offset="1"
         style="stop-color:#ffffff;stop-opacity:0;" />
    </linearGradient>
    <radialGradient
       inkscape:collect="always"
       xlink:href="#linearGradient6280"
       id="radialGradient5732"
       gradientUnits="userSpaceOnUse"
       gradientTransform="matrix(0.1336078,-4.789468e-3,6.7525748e-3,0.187125,-0.2089807,16.213094)"
       cx="26.685698"
       cy="30.945623"
       fx="26.685698"
       fy="30.945623"
       r="26.269466" />
    <radialGradient
       inkscape:collect="always"
       xlink:href="#linearGradient6316"
       id="radialGradient5802"
       gradientUnits="userSpaceOnUse"
       gradientTransform="matrix(5.1998018,-0.1087235,9.9647065e-2,4.750634,-492.61172,110.14359)"
       cx="117.90971"
       cy="-25.948687"
       fx="117.90971"
       fy="-25.948687"
       r="38.212933" />
    <radialGradient
       inkscape:collect="always"
       xlink:href="#linearGradient6332"
       id="radialGradient5804"
       gradientUnits="userSpaceOnUse"
       gradientTransform="matrix(5.4552079,-4.2265664e-2,3.8788736e-2,5.0659702,-481.18355,73.455991)"
       cx="108.15224"
       cy="-16.941803"
       fx="108.15224"
       fy="-16.941803"
       r="38.212933" />
    <radialGradient
       inkscape:collect="always"
       xlink:href="#linearGradient6298"
       id="radialGradient5806"
       gradientUnits="userSpaceOnUse"
       gradientTransform="matrix(2.462129,-0.6914795,0.6403144,2.2960416,-66.740899,18.530892)"
       cx="29.733654"
       cy="-5.1872625"
       fx="29.733654"
       fy="-5.1872625"
       r="38.212933" />
    <radialGradient
       inkscape:collect="always"
       xlink:href="#linearGradient6306"
       id="radialGradient5808"
       gradientUnits="userSpaceOnUse"
       gradientTransform="matrix(3.3343255,-0.6695195,0.5755137,2.886391,29.365786,-26.140056)"
       cx="-14.709276"
       cy="8.636549"
       fx="-14.709276"
       fy="8.636549"
       r="38.212933" />
    <radialGradient
       inkscape:collect="always"
       xlink:href="#linearGradient6350"
       id="radialGradient5810"
       gradientUnits="userSpaceOnUse"
       gradientTransform="matrix(2.2135479,-0.1816049,0.3536854,4.3118418,-43.211194,-368.39006)"
       cx="3.1382542"
       cy="111.40629"
       fx="3.1382542"
       fy="111.40629"
       r="38.212933" />
    <radialGradient
       inkscape:collect="always"
       xlink:href="#linearGradient6366"
       id="radialGradient5812"
       gradientUnits="userSpaceOnUse"
       gradientTransform="matrix(4.9782405,-0.1136653,0.1220892,5.3620122,23.106219,-552.53698)"
       cx="-9.6878185"
       cy="126.41776"
       fx="-9.6878185"
       fy="126.41776"
       r="38.212933" />
  </defs>
  <g
     inkscape:label="Layer 1"
     inkscape:groupmode="layer"
     id="layer1">
    <path
       sodipodi:nodetypes="ccccccsccsscccccccccccccccccccccccccccccccccccccccccccscccccccsccccccccccccccccccc"
       id="path6448"
       d="M 5.5150745,18.502761 C 3.5770068,18.483942 1.6903877,19.588906 0.73285993,21.269796 C -0.22009438,22.877485 -0.24558827,24.980048 0.66750513,26.610621 C 1.582958,28.311873 3.4380333,29.462869 5.3735083,29.494584 C 7.2691135,29.561351 9.1440659,28.551426 10.158498,26.953367 C 11.187348,25.393819 11.317871,23.295727 10.485052,21.62252 C 9.6347524,19.840707 7.7731041,18.592622 5.7973739,18.509956 C 5.7033556,18.505154 5.6092153,18.502761 5.5150745,18.502761 z M 26.313979,3.9962332 C 26.096315,4.0000472 26.079647,3.9873235 25.839365,4.0003969 C 25.93309,3.9724083 25.502898,4.0066366 25.398415,4.0165362 C 23.320226,4.1946717 21.273856,4.7191091 19.354984,5.5335656 C 18.670408,5.8630274 18.343394,6.7517632 18.651062,7.4465021 C 18.914878,7.956313 19.224488,8.442081 19.507522,8.941791 C 20.454511,10.563819 21.398278,12.187772 22.347284,13.808594 C 22.715815,14.40812 23.52359,14.656014 24.171706,14.393326 C 25.189168,14.090744 26.256693,13.956171 27.317262,14.000859 C 29.925091,14.0433 32.491226,15.162751 34.29871,17.042949 C 35.595426,18.374416 36.507173,20.073999 36.90019,21.890701 C 37.070095,22.579784 37.77361,23.060782 38.475297,23.001196 C 40.843286,22.999741 43.211372,23.004104 45.579299,22.999011 C 46.337317,22.975336 46.995718,22.297796 46.997915,21.539285 C 46.964284,20.937044 46.829607,20.343789 46.712278,19.753066 C 45.975127,16.354805 44.326642,13.156096 41.977967,10.591884 C 41.495075,10.121275 40.70041,10.059723 40.136152,10.419373 C 38.233322,11.376496 35.783826,11.130305 34.13287,9.773502 C 32.905786,8.7976549 32.1445,7.2723944 32.096524,5.7055575 C 32.047626,5.0118747 31.459434,4.4192557 30.771183,4.3454208 C 29.3026,4.0658282 27.807305,3.9660228 26.313979,3.9962332 z M 15.622686,7.8730126 C 15.082433,7.881897 14.677248,8.26905 14.28528,8.590408 C 11.372652,11.004614 9.1653261,14.262495 8.0110731,17.865771 C 7.8446726,18.500053 8.1584516,19.202523 8.7216967,19.528539 C 10.126223,20.517338 11.025798,22.190085 11.03822,23.912159 C 11.080946,25.623606 10.247385,27.316046 8.8873671,28.349522 C 8.5505561,28.581242 8.2010328,28.841245 8.0667088,29.247153 C 7.8875136,29.676696 7.9806831,30.1516 8.1516545,30.566664 C 9.4311422,34.23602 11.790387,37.531498 14.888678,39.881832 C 15.513032,40.309361 16.441857,40.153392 16.892426,39.545409 C 17.205388,39.064521 17.474732,38.555601 17.769391,38.062957 C 18.71688,36.430555 19.667556,34.799961 20.613049,33.166426 C 20.956956,32.543099 20.764677,31.708458 20.205103,31.276384 C 18.263337,29.467909 17.090648,26.86108 17.052749,24.205038 C 16.984739,21.603398 18.002858,19.003303 19.800532,17.124765 C 20.134556,16.751651 20.60489,16.45664 20.726573,15.938246 C 20.869783,15.476318 20.736024,14.982487 20.473275,14.591324 C 19.297449,12.571191 18.129815,10.54606 16.948848,8.5290683 C 16.661127,8.0973227 16.140463,7.8396595 15.622686,7.8730126 z M 37.626738,37.005059 C 35.68867,36.986242 33.802052,38.091205 32.844522,39.772093 C 31.89157,41.379785 31.866073,43.482344 32.779168,45.112919 C 33.69462,46.814172 35.549696,47.965167 37.485171,47.99688 C 39.380778,48.063648 41.255728,47.053725 42.270163,45.455665 C 43.29901,43.896118 43.429536,41.798026 42.596715,40.124818 C 41.746415,38.343008 39.884769,37.094923 37.909037,37.012256 C 37.815019,37.007451 37.720879,37.005059 37.626738,37.005059 z M 37.626738,0.00046728845 C 35.68867,-0.018350035 33.802052,1.0866137 32.844522,2.7675011 C 31.89157,4.3751921 31.866073,6.4777542 32.779168,8.108328 C 33.69462,9.8095801 35.549696,10.960576 37.485171,10.992291 C 39.380778,11.059059 41.255728,10.049133 42.270163,8.4510749 C 43.29901,6.8915266 43.429536,4.7934358 42.596715,3.1202262 C 41.746415,1.3384159 39.884769,0.090331051 37.909037,0.00766396 C 37.815019,0.0028613468 37.720879,0.00046728845 37.626738,0.00046728845 z M 38.350006,24.999966 C 37.625068,24.983834 36.962136,25.564246 36.86064,26.27879 C 36.228149,29.037194 34.352607,31.472054 31.857473,32.802716 C 29.479409,34.096011 26.572697,34.348968 23.998785,33.52212 C 23.319192,33.323795 22.55171,33.688703 22.249944,34.323373 C 21.068047,36.353155 19.880744,38.379909 18.70223,40.411585 C 18.342165,41.078639 18.596551,41.98777 19.250427,42.371049 C 19.801061,42.651405 20.396818,42.835284 20.980211,43.035761 C 24.105976,44.050787 27.483985,44.271084 30.714018,43.662081 C 31.399201,43.603442 32.009459,43.049626 32.089091,42.359164 C 32.134767,40.931712 32.746994,39.531922 33.782477,38.545587 C 34.862904,37.497564 36.386629,36.899139 37.894608,37.006895 C 38.756007,37.039915 39.603745,37.282341 40.360252,37.69356 C 40.979997,37.97227 41.755434,37.751912 42.158844,37.210895 C 44.778649,34.254462 46.507449,30.506129 46.996162,26.58232 C 47.054822,25.826154 46.453,25.098074 45.699451,25.013504 C 45.132348,24.984353 44.562909,25.007242 43.99483,24.999966 C 42.113222,24.999966 40.231616,24.999966 38.350006,24.999966 z"
       style="opacity:0.15;fill:#000000;fill-opacity:1;stroke:none;stroke-width:25.43054962;stroke-miterlimit:4;stroke-dasharray:none;stroke-opacity:1;display:inline" />
    <path
       sodipodi:type="arc"
       style="fill:url(#radialGradient5802);fill-opacity:1;stroke:url(#radialGradient5804);stroke-width:8.4917717;stroke-miterlimit:4;stroke-dasharray:none;stroke-opacity:1;display:inline"
       id="path2313"
       sodipodi:cx="41.351189"
       sodipodi:cy="46.856956"
       sodipodi:rx="33.967049"
       sodipodi:ry="33.967049"
       d="M 75.318237,46.856956 A 33.967049,33.967049 0 1 1 7.38414,46.856956 A 33.967049,33.967049 0 1 1 75.318237,46.856956 z"
       transform="matrix(0.1181673,0,0,0.1177761,0.6302861,18.479788)" />
    <path
       style="fill:url(#radialGradient5750);fill-opacity:1;stroke:url(#radialGradient5752);stroke-width:1.001;stroke-linejoin:round;stroke-miterlimit:4;stroke-dasharray:none;stroke-opacity:1;display:inline"
       d="M 25.711076,5.496086 C 23.713025,5.6433196 21.808607,6.1416613 20.035314,6.8712593 L 23.610104,12.997028 C 24.527351,12.707049 25.490689,12.547762 26.49502,12.496966 C 26.691615,12.487023 26.89176,12.496966 27.090819,12.496966 C 32.59807,12.496966 37.201406,16.351843 38.34827,21.498095 L 45.49785,21.498095 C 44.990017,17.757075 43.357021,14.370406 40.950969,11.684362 C 39.962808,12.213437 38.82659,12.496966 37.627041,12.496966 C 33.860786,12.496966 30.77609,9.5512222 30.602891,5.8398806 C 29.469401,5.6240289 28.286661,5.496086 27.090819,5.496086 C 26.85065,5.496086 26.607556,5.4870606 26.369589,5.496086 C 26.292126,5.4990243 26.227301,5.4922024 26.150084,5.496086 C 26.07733,5.4997462 26.003145,5.4915857 25.93058,5.496086 C 25.860286,5.5004455 25.781183,5.4909206 25.711076,5.496086 z"
       id="path2338" />
    <path
       style="fill:url(#radialGradient5745);fill-opacity:1;stroke:url(#radialGradient5747);stroke-width:1.00178635;stroke-linejoin:round;stroke-miterlimit:4;stroke-dasharray:none;stroke-opacity:1;display:inline"
       d="M 15.707937,9.3715739 C 12.826253,11.607824 10.638221,14.687935 9.4677331,18.216435 C 11.316623,19.477901 12.540796,21.598203 12.540796,23.998411 C 12.540796,26.398616 11.316623,28.518922 9.4677331,29.780389 C 10.637832,33.309748 12.825249,36.391211 15.707937,38.625247 L 19.282725,32.468227 C 16.991284,30.366215 15.551147,27.343933 15.551147,23.998411 C 15.551147,20.654098 16.99407,17.63584 19.282725,15.528596 L 15.707937,9.3715739 z"
       id="path2241" />
    <path
       sodipodi:type="arc"
       style="fill:url(#radialGradient5806);fill-opacity:1;stroke:url(#radialGradient5808);stroke-width:8.4917717;stroke-miterlimit:4;stroke-dasharray:none;stroke-opacity:1;display:inline"
       id="path2317"
       sodipodi:cx="41.351189"
       sodipodi:cy="46.856956"
       sodipodi:rx="33.967049"
       sodipodi:ry="33.967049"
       d="M 75.318237,46.856956 A 33.967049,33.967049 0 1 1 7.38414,46.856956 A 33.967049,33.967049 0 1 1 75.318237,46.856956 z"
       transform="matrix(0.1181673,0,0,0.1177761,32.740684,36.98211)" />
    <path
       sodipodi:type="arc"
       style="fill:url(#radialGradient5810);fill-opacity:1;stroke:url(#radialGradient5812);stroke-width:8.4917717;stroke-miterlimit:4;stroke-dasharray:none;stroke-opacity:1;display:inline"
       id="path2315"
       sodipodi:cx="41.351189"
       sodipodi:cy="46.856956"
       sodipodi:rx="33.967049"
       sodipodi:ry="33.967049"
       d="M 75.318237,46.856956 A 33.967049,33.967049 0 1 1 7.38414,46.856956 A 33.967049,33.967049 0 1 1 75.318237,46.856956 z"
       transform="matrix(0.1181673,0,0,0.1177761,32.740684,-2.2526905e-2)" />
    <path
       style="fill:url(#radialGradient5738);fill-opacity:1;stroke:url(#radialGradient5740);stroke-width:1.00178635;stroke-linejoin:round;stroke-miterlimit:4;stroke-dasharray:none;stroke-opacity:1;display:inline"
       d="M 38.34827,26.498728 C 37.201409,31.644978 32.59807,35.499857 27.090819,35.499857 C 25.87158,35.499859 24.710635,35.316301 23.610104,34.968539 L 20.035314,41.094308 C 22.212952,41.99033 24.589121,42.500736 27.090819,42.500736 C 28.286661,42.500738 29.469401,42.372793 30.602891,42.156941 C 30.777497,38.60136 33.635157,35.724539 37.188031,35.499857 C 37.337117,35.490431 37.475585,35.499858 37.627041,35.499857 C 38.82659,35.499858 39.962806,35.783386 40.950969,36.312459 C 43.357023,33.626417 44.990017,30.239747 45.49785,26.498728 L 38.34827,26.498728 z"
       id="path2334" />
    <path
       style="opacity:0.6;fill:url(#radialGradient5735);fill-opacity:1;stroke:none;stroke-width:22.51668739;stroke-miterlimit:4;stroke-dasharray:none;stroke-opacity:1;display:inline"
       d="M 15.582506,10.152921 C 13.08949,12.220587 11.162218,14.948215 10.063531,18.060165 C 11.86124,19.431067 13.042522,21.571664 13.042522,23.998411 C 13.042522,26.425155 11.86124,28.565754 10.063531,29.936657 C 11.161692,33.049463 13.089178,35.777943 15.582506,37.843901 L 18.655569,32.530733 C 16.438054,30.353378 15.049422,27.340209 15.049422,23.998411 C 15.049422,20.656403 16.439963,17.647297 18.655569,15.466087 L 15.582506,10.152921 z M 15.331643,11.684362 L 17.401258,15.309819 C 15.418394,17.509438 14.159587,20.375297 14.045974,23.5296 C 13.921029,21.235899 12.854785,19.174267 11.255128,17.71637 C 12.171852,15.420443 13.575597,13.364011 15.331643,11.684362 z M 14.045974,24.467219 C 14.159319,27.621324 15.415316,30.488752 17.401258,32.687 L 15.331643,36.312459 C 13.576638,34.633665 12.170835,32.576907 11.255128,30.280452 C 12.855978,28.822481 13.920706,26.761216 14.045974,24.467219 z"
       id="path2272"
       sodipodi:nodetypes="ccscccscccccccccccc" />
    <path
       style="opacity:0.6;fill:url(#radialGradient5732);fill-opacity:1;stroke:none;stroke-width:3.00000024;stroke-linejoin:miter;stroke-miterlimit:4;stroke-dasharray:none;stroke-opacity:1;display:inline"
       d="M 5.1089988,20.49797 C 3.3574923,20.694894 2.0045757,22.19405 2.0045757,23.998411 C 2.0045757,25.936133 3.5724877,27.498851 5.5166491,27.498851 C 7.4608117,27.498851 9.0287225,25.936133 9.0287238,23.998411 C 9.0287225,22.060687 7.4608104,20.49797 5.5166491,20.49797 C 5.3878023,20.49797 5.2843225,20.494183 5.2344298,20.49797 C 5.191955,20.501194 5.1510337,20.493243 5.1089988,20.49797 z M 5.2030713,21.498095 C 5.2429508,21.493151 5.2880794,21.501163 5.3285025,21.498095 C 5.3599462,21.497582 5.4272341,21.498095 5.5166491,21.498095 C 6.9178863,21.498095 8.0252734,22.601813 8.0252734,23.998411 C 8.0252734,25.395006 6.9178863,26.498726 5.5166491,26.498726 C 4.1154121,26.498726 3.008025,25.395006 3.008025,23.998411 C 3.008025,22.70663 3.9668078,21.651318 5.2030713,21.498095 z"
       id="path2284"
       sodipodi:nodetypes="csssssccsssssc" />
  </g>
</svg>
