<?xml version="1.0" encoding="UTF-8" standalone="no"?>
<!-- Created with Inkscape (http://www.inkscape.org/) -->
<svg
   xmlns:svg="http://www.w3.org/2000/svg"
   xmlns="http://www.w3.org/2000/svg"
   xmlns:xlink="http://www.w3.org/1999/xlink"
   width="16"
   height="16"
   id="svg11300"
   version="1.0">
  <defs
     id="defs3">
    <linearGradient
       inkscape:collect="always"
       id="linearGradient6330">
      <stop
         style="stop-color:#ffffff;stop-opacity:1;"
         offset="0"
         id="stop6332" />
      <stop
         style="stop-color:#ffffff;stop-opacity:0;"
         offset="1"
         id="stop6334" />
    </linearGradient>
    <linearGradient
       id="linearGradient6761">
      <stop
         id="stop6763"
         offset="0"
         style="stop-color:#f0f0f0;stop-opacity:1;" />
      <stop
         style="stop-color:#c8c8c8;stop-opacity:1;"
         offset="0.62007451"
         id="stop6765" />
      <stop
         id="stop6767"
         offset="0.8129741"
         style="stop-color:#a0a0a0;stop-opacity:1;" />
      <stop
         style="stop-color:#a0a0a0;stop-opacity:1;"
         offset="0.91870362"
         id="stop6769" />
      <stop
         id="stop6771"
         offset="0.98263478"
         style="stop-color:#c8c8c8;stop-opacity:1;" />
      <stop
         id="stop6773"
         offset="1"
         style="stop-color:#dcdcdc;stop-opacity:1;" />
    </linearGradient>
    <linearGradient
       id="linearGradient6369">
      <stop
         style="stop-color:#8e8e8e;stop-opacity:1;"
         offset="0"
         id="stop6371" />
      <stop
         id="stop6373"
         offset="0.51944989"
         style="stop-color:#737373;stop-opacity:1;" />
      <stop
         style="stop-color:#5a5a5a;stop-opacity:1;"
         offset="0.68466324"
         id="stop6375" />
      <stop
         id="stop6377"
         offset="0.7648505"
         style="stop-color:#5a5a5a;stop-opacity:1;" />
      <stop
         style="stop-color:#595959;stop-opacity:1;"
         offset="0.91404903"
         id="stop6379" />
      <stop
         style="stop-color:#555555;stop-opacity:1;"
         offset="1"
         id="stop6381" />
    </linearGradient>
    <linearGradient
       id="linearGradient2264">
      <stop
         id="stop2266"
         offset="0"
         style="stop-color:#d7e866;stop-opacity:1;" />
      <stop
         id="stop2268"
         offset="1"
         style="stop-color:#8cab2a;stop-opacity:1;" />
    </linearGradient>
    <linearGradient
       inkscape:collect="always"
       xlink:href="#linearGradient6761"
       id="linearGradient5550"
       gradientUnits="userSpaceOnUse"
       gradientTransform="matrix(0.3656424,0,0,0.3485887,-2.7266039,-1.6247035)"
       x1="10.865535"
       y1="47.685928"
       x2="21.079702"
       y2="23.251602" />
    <linearGradient
       inkscape:collect="always"
       xlink:href="#linearGradient6369"
       id="linearGradient5552"
       gradientUnits="userSpaceOnUse"
       gradientTransform="matrix(0.3656424,0,0,0.3485887,-2.7266039,-1.6247035)"
       x1="13.340408"
       y1="48.039482"
       x2="22.516865"
       y2="20.627432" />
    <linearGradient
       inkscape:collect="always"
       xlink:href="#linearGradient2264"
       id="linearGradient5556"
       gradientUnits="userSpaceOnUse"
       gradientTransform="matrix(0.3833175,0,0,0.4209693,-3.4872922,-3.0557874)"
       x1="39.787907"
       y1="12.287908"
       x2="43.348965"
       y2="16.181141" />
    <radialGradient
       inkscape:collect="always"
       xlink:href="#linearGradient6330"
       id="radialGradient6336"
       cx="10.949418"
       cy="4.2552104"
       fx="10.949418"
       fy="4.2552104"
       r="2.214545"
       gradientTransform="matrix(1,0,0,0.9997359,0,9.0906782e-4)"
       gradientUnits="userSpaceOnUse" />
    <radialGradient
       inkscape:collect="always"
       xlink:href="#linearGradient6330"
       id="radialGradient6338"
       cx="4.9802194"
       cy="9.1622343"
       fx="4.9802194"
       fy="9.1622343"
       r="4.5504088"
       gradientTransform="matrix(0.7321669,-3.8551766e-8,2.2292895e-8,0.4233819,1.3338673,6.0905092)"
       gradientUnits="userSpaceOnUse" />
  </defs>
  <g
     id="g6340">
    <path
       id="path5611"
       d="M 10.876748,9.6107957 C 10.817905,9.2705132 10.696817,8.9202081 10.555266,8.6242954 C 10.548174,8.6063301 10.538833,8.5871377 10.526626,8.5666064 C 10.475823,8.4651572 10.423112,8.3705537 10.369534,8.2865835 C 10.286791,8.1092313 10.227446,7.9016881 10.227446,7.6360873 C 10.227446,6.4039124 10.335767,6.1092211 10.525051,5.9332158 C 10.866002,5.6159121 11.02965,5.12578 10.682646,4.8028554 C 10.546336,4.6759824 10.390808,4.6116908 10.220617,4.6116908 C 10.001941,4.6116908 9.7677468,4.7220621 9.5436925,4.9307045 C 9.0543495,5.3181661 9.2239233,6.1535908 9.2239233,6.9022338 C 9.2239233,7.2448393 8.4966746,7.487337 8.2049849,7.5548054 C 7.3543072,7.5581066 4.9356147,7.6805792 4.1491922,8.7520246 C 3.4404767,9.7171329 0.52007438,14.487917 0.52007438,15.247804 C 0.52007438,15.315274 0.57892846,15.370033 0.65142837,15.370033 C 1.8808665,15.370033 10.250158,11.159662 10.586508,10.854338 C 10.872283,10.594725 10.972771,10.164729 10.876748,9.6107957 z"
       style="fill:url(#XMLID_8_);stroke-width:1;stroke-miterlimit:4;stroke-dasharray:none" />
    <path
       sodipodi:nodetypes="ccccccccc"
       id="path5613"
       d="M 13.188037,0.76799818 C 12.134091,1.4542378 9.824564,3.7195675 9.5910723,4.3565479 C 9.4151224,4.5364432 9.507917,5.9566058 9.7524433,6.1363556 L 10.327072,6.292549 C 10.691546,6.6651243 11.637653,6.4630802 11.880928,6.2504893 C 12.751764,5.5401348 14.951748,3.3418897 15.179796,2.9194845 C 15.544261,2.3869182 15.630351,1.4323181 15.265744,1.05974 L 14.965336,0.75256377 C 14.601016,0.38027705 13.794889,0.44889254 13.188037,0.76799818 z"
       style="fill:url(#linearGradient5556);fill-opacity:1;stroke:#3d7406;stroke-width:1.0001123;stroke-miterlimit:4;stroke-dasharray:none;stroke-opacity:1;display:inline;enable-background:new" />
    <path
       sodipodi:nodetypes="cc"
       id="path5615"
       d="M 10.359873,5.1564561 C 11.518924,3.7918809 12.645944,2.4995571 13.788963,1.7285357"
       style="opacity:0.6;fill:none;fill-rule:evenodd;stroke:url(#radialGradient6336);stroke-width:1;stroke-linecap:round;stroke-linejoin:miter;stroke-miterlimit:4;stroke-dasharray:none;stroke-opacity:1" />
    <path
       id="path5617"
       d="M 10.116596,5.3797484 C 9.9159616,5.3783525 9.7133813,5.4917522 9.5452883,5.6520845 C 9.1863377,5.9941312 9.2824695,6.3939497 9.2824695,7.5911097 C 9.2824695,7.9418893 8.3220311,8.320969 8.0827124,8.320969 C 8.070869,8.3208347 8.0603879,8.320969 8.0484127,8.320969 C 7.2829293,8.320969 4.7920077,8.4233578 4.0263596,9.4211981 C 3.2607335,10.419041 0.39278858,14.954197 0.39278858,15.619546 C 1.5411838,15.619546 9.8829465,11.666637 10.31086,11.294865 C 10.828454,10.845067 10.576787,9.9381374 10.242271,9.3340527 C 10.244544,9.3312423 10.240853,9.3265179 10.242271,9.3231585 C 10.251587,9.3013252 10.249148,9.2723343 10.21943,9.22512 C 10.040152,8.9402003 9.9451968,8.6547824 9.9451968,8.2556073 C 9.9451968,7.248029 10.056478,6.7332422 10.322286,6.4799853 C 10.561603,6.2518298 10.773138,5.8205707 10.470823,5.5322587 C 10.357464,5.4241401 10.236954,5.3805909 10.116596,5.3797484 z"
       style="fill:url(#linearGradient5550);fill-opacity:1;stroke:url(#linearGradient5552);stroke-width:0.75947136;stroke-linejoin:round;stroke-miterlimit:4;stroke-dasharray:none;stroke-opacity:1" />
    <path
       id="path5619"
       d="M 10.34303,5.756351 C 10.068663,6.0115629 9.8623199,6.5889677 9.8623199,7.6043097 C 9.8623199,8.0065607 10.219567,8.32545 10.404625,8.612685 C 10.782072,9.1982767 7.7648583,7.6661549 8.1267184,7.6661549 C 8.3737593,7.6661549 9.3552202,7.3168304 9.3552202,6.9633474 C 9.3552202,5.7569617 9.2660484,5.3618007 9.6365756,5.0171199 C 9.9141855,4.758609 10.277747,4.5988567 10.589808,4.8893918 C 10.901847,5.1799257 10.589945,5.5264409 10.34303,5.756351 z"
       style="fill:url(#XMLID_12_);stroke-width:1;stroke-miterlimit:4;stroke-dasharray:none" />
    <path
       id="path5621"
       d="M 8.1565223,7.6769103 C 7.3974029,7.6769103 5.0167931,7.7869163 4.2575367,8.820961 C 3.5311102,9.8103916 0.89334215,14.14849 0.6669241,15.135843 C 0.68962529,15.351207 3.4708287,14.105833 5.6804259,13.059444 C 7.9814445,11.969785 10.231385,10.88795 10.44796,10.691287 C 11.207194,10.001925 10.380428,8.3159183 10.001005,8.1435774 C 9.6214567,7.9713585 8.9186677,7.5511399 8.1565223,7.6769103 z"
       style="fill:url(#XMLID_13_);stroke-width:1;stroke-miterlimit:4;stroke-dasharray:none" />
    <path
       id="path5623"
       d="M 8.2783984,7.6505104 C 8.6785696,7.5787624 9.3552202,7.272705 9.3552202,6.9633474 L 9.9193126,7.2321251 C 9.9193126,7.8549966 10.058146,8.166434 10.281812,8.4335006 C 10.315841,8.4892353 8.22128,7.6606551 8.2783984,7.6505104 z"
       style="fill:url(#XMLID_14_);stroke-width:1;stroke-miterlimit:4;stroke-dasharray:none" />
    <path
       sodipodi:nodetypes="cccc"
       id="path5625"
       d="M 8.7105317,9.0430722 C 8.6996492,9.0429398 5.6053406,9.2568198 4.7600754,9.919568 C 3.545288,11.769282 3.1275932,11.906324 2.1173106,14.083693 C 5.061065,12.867681 7.2555661,11.792547 10.218128,10.410987"
       style="opacity:0.59999999999999998;fill:none;fill-opacity:1;stroke:url(#radialGradient6338);stroke-width:1;stroke-linejoin:miter;stroke-miterlimit:4;stroke-dasharray:none;stroke-opacity:1;display:inline;enable-background:new" />
  </g>
</svg>
