<?xml version="1.0" encoding="UTF-8" standalone="no"?>
<!-- Created with Inkscape (http://www.inkscape.org/) -->
<svg
   xmlns:svg="http://www.w3.org/2000/svg"
   xmlns="http://www.w3.org/2000/svg"
   xmlns:xlink="http://www.w3.org/1999/xlink"
   width="16"
   height="16"
   id="svg11300"
   version="1.0">
  <defs
     id="defs3">
    <linearGradient
       id="linearGradient6321">
      <stop
         id="stop6323"
         offset="0"
         style="stop-color:#da8813;stop-opacity:1;" />
      <stop
         id="stop6325"
         offset="1"
         style="stop-color:#c56212;stop-opacity:1;" />
    </linearGradient>
    <linearGradient
       id="linearGradient6493">
      <stop
         style="stop-color:#cd8033;stop-opacity:1;"
         offset="0"
         id="stop6495" />
      <stop
         style="stop-color:#bb5e12;stop-opacity:1;"
         offset="1"
         id="stop6497" />
    </linearGradient>
    <linearGradient
       id="linearGradient4103">
      <stop
         id="stop4105"
         offset="0"
         style="stop-color:#edd563;stop-opacity:1;" />
      <stop
         id="stop4107"
         offset="1"
         style="stop-color:#e08223;stop-opacity:1;" />
    </linearGradient>
    <linearGradient
       id="linearGradient3156"
       inkscape:collect="always">
      <stop
         id="stop3158"
         offset="0"
         style="stop-color:#ffffff;stop-opacity:1;" />
      <stop
         id="stop3160"
         offset="1"
         style="stop-color:#ffffff;stop-opacity:0;" />
    </linearGradient>
    <radialGradient
       inkscape:collect="always"
       xlink:href="#linearGradient3156"
       id="radialGradient5507"
       gradientUnits="userSpaceOnUse"
       gradientTransform="matrix(0.499999,0,0,0.3571432,-4.87496,-0.5357134)"
       cx="21.790195"
       cy="13.687771"
       fx="21.790195"
       fy="7.2263036"
       r="14" />
    <radialGradient
       inkscape:collect="always"
       xlink:href="#linearGradient3156"
       id="radialGradient5510"
       gradientUnits="userSpaceOnUse"
       gradientTransform="matrix(1.1730593,0,0,1.1730592,-144.49771,-44.787676)"
       cx="127.5625"
       cy="40.59375"
       fx="127.5625"
       fy="40.59375"
       r="5.9999995" />
    <radialGradient
       inkscape:collect="always"
       xlink:href="#linearGradient6321"
       id="radialGradient5513"
       gradientUnits="userSpaceOnUse"
       gradientTransform="matrix(1.6565001,6.5293698e-2,-5.2146523e-2,1.3024184,-5.1137755,-2.5597217)"
       cx="7.7404661"
       cy="5.6846404"
       fx="7.7404661"
       fy="5.6846404"
       r="5.9999995" />
    <radialGradient
       inkscape:collect="always"
       xlink:href="#linearGradient4103"
       id="radialGradient5516"
       gradientUnits="userSpaceOnUse"
       gradientTransform="matrix(0.6255678,1.0290831e-2,-8.2154687e-3,0.4992172,-6.2261103,-3.1413483)"
       cx="20.910566"
       cy="16.532696"
       fx="20.910566"
       fy="16.532696"
       r="22.463524" />
    <linearGradient
       inkscape:collect="always"
       xlink:href="#linearGradient6493"
       id="linearGradient5518"
       gradientUnits="userSpaceOnUse"
       gradientTransform="matrix(1.1536237,0,0,1.1536228,-141.97107,-43.913026)"
       x1="130"
       y1="43.84375"
       x2="130"
       y2="52" />
  </defs>
  <g
     id="g5520">
    <path
       id="path6719"
       d="M 15.499982,8.0000006 C 15.499982,12.139992 12.139987,15.499983 7.9999884,15.499983 C 3.8600147,15.499983 0.50001729,12.139992 0.50001729,8.0000006 C 0.50001729,3.8600097 3.8600147,0.50001761 7.9999884,0.50001761 C 12.139987,0.50001761 15.499982,3.8600097 15.499982,8.0000006 z"
       style="fill:url(#radialGradient5516);fill-opacity:1;stroke:url(#linearGradient5518);stroke-width:1.00003456999999996;stroke-linecap:round;stroke-linejoin:round;stroke-miterlimit:4;stroke-dasharray:none;stroke-dashoffset:0;stroke-opacity:1" />
    <path
       d="M 14.8,6.3621512 L 14.725634,6.6208083 C 14.505566,6.4558579 14.258482,6.3171416 14.007577,6.1722651 L 13.456812,6.2238123 L 12.953617,5.862019 L 12.953617,6.3097658 L 13.384729,6.5172531 L 13.671675,6.7239444 L 14.055149,6.4481047 C 14.151676,6.5631008 14.246886,6.6780967 14.342755,6.7930928 L 14.342755,7.1377039 L 13.910985,7.447908 L 13.120844,7.792896 L 12.522441,8.1727099 L 12.138967,7.8960322 L 12.330704,7.5858277 L 11.947823,7.3099885 L 11.30119,6.4308806 L 10.750424,6.0347226 L 10.606258,6.1378587 L 10.822439,6.6379909 L 11.229107,6.9310127 C 11.461365,7.3574702 11.69112,7.7650691 11.99612,8.1727099 C 12.469071,8.1727099 12.914941,8.1407758 13.384663,8.1031425 L 13.384663,8.3446174 L 12.810045,9.241117 L 12.283066,9.6200929 L 11.851955,10.206975 C 11.851955,10.528661 11.851955,10.85035 11.851955,11.171994 L 11.99612,11.551809 L 11.756744,11.723716 L 11.229107,11.930784 L 10.678341,12.223805 L 11.133898,12.551235 L 10.511049,12.896642 L 10.630703,13.120096 L 9.6963981,13.792932 L 9.0742086,13.792932 L 8.5472285,14 L 8.2113272,14 L 8.2113272,13.72416 L 8.0684795,13.171643 C 7.883134,12.825398 7.6901457,12.481625 7.4938619,12.137852 C 7.4938619,11.884098 7.517648,11.632817 7.5414994,11.379104 L 7.7815336,11.034494 L 7.4456314,10.620315 L 7.4700764,10.051453 L 7.0145202,9.724025 L 7.2422982,9.2500853 L 6.8716725,8.9826274 L 6.2243801,8.9826274 L 6.0088572,8.8275254 L 5.3622229,9.086392 L 5.099063,8.8962963 L 4.5000003,9.2238929 C 4.0933339,8.9306611 3.686008,8.6376393 3.278749,8.3446174 L 2.8,7.6202344 L 3.2311113,7.2068944 L 2.9917369,7.0346099 L 3.5180574,6.2410364 C 3.9504863,5.8988983 4.4021551,5.5706733 4.859029,5.2412332 L 5.6736139,5.1033134 L 6.5834749,5.034542 L 7.206323,5.1380971 L 8.0923317,5.7065394 L 8.4037882,5.4826662 L 8.8342406,5.4483015 L 9.6488256,5.6205861 L 10.271675,5.6205861 L 10.702786,5.3791111 L 10.894522,5.2068265 L 10.462752,5.034542 L 9.7440357,5.0001773 C 9.5445899,4.824205 9.3592443,4.639222 9.122439,4.4828631 L 8.8824058,4.551634 L 8.786537,5.0001773 L 8.3554257,4.6899728 L 8.2602164,4.3445657 L 7.7814674,4.1039292 L 7.5890718,4.1039292 L 8.0684135,4.4485398 L 7.8766767,4.7587443 L 7.4937966,4.8275157 L 7.733171,4.5173113 L 7.3014003,4.3798105 L 6.9191787,4.1039712 L 6.1998032,4.2071069 L 6.1045939,4.3446077 L 5.6734825,4.5173113 L 5.4341081,4.8967062 L 4.8357042,5.0861728 L 4.5718855,4.8967062 L 4.2849387,4.8967062 L 4.2849387,4.2758784 L 4.9077868,4.0688101 L 5.3865358,4.0688101 L 5.2900089,3.8277545 L 4.9077868,3.5862795 L 5.5538283,3.4999064 L 5.912857,3.2416684 L 6.1998032,2.931045 L 6.727442,2.931045 L 6.5832768,2.6899894 L 6.9191787,2.5520695 L 6.9191787,2.8279089 L 7.6372362,2.931045 L 8.3552943,2.5520695 L 8.4035248,2.3793661 L 9.025714,2.1037358 C 8.8005058,2.121547 8.5752976,2.1346219 8.3552283,2.1727168 L 8.3552283,1.8621353 L 8.5946027,1.5173147 L 8.3552283,1.5173147 L 7.8291711,1.8275191 L 7.6850059,2.0000132 L 7.8291711,2.2416976 L 7.5891379,2.6550377 L 7.2062569,2.5171179 L 6.8716725,2.2760623 L 6.3440343,2.5171179 L 6.1522976,1.9656485 L 7.0621578,1.5864631 L 7.0621578,1.3793946 L 7.6373683,1.1381294 L 8.5472285,1 L 9.1700766,1.1381294 L 10.0323,1.4827405 L 9.4094511,1.4827405 L 10.0323,1.8965 L 10.511049,1.551889 C 10.511049,1.551889 12.416075,2.4145651 13.400005,3.6076246 C 14.357387,4.7684954 14.758138,6.087946 14.8,6.3621512 z"
       id="path6723"
       style="fill:url(#radialGradient5513);fill-opacity:1;fill-rule:nonzero;stroke:none;stroke-width:1.11165512;stroke-miterlimit:4;stroke-dasharray:none"
       sodipodi:nodetypes="ccccccccccccccccccccccccccccccccccccccccccccccccccccccccccccccccccccccccccccccccccccccccccccccccccccccccccccccccccccccccccccccccccsc" />
    <path
       id="path6727"
       d="M 14.499818,8.0000001 C 14.499818,11.587896 11.587897,14.499817 7.9999761,14.499817 C 4.4120799,14.499817 1.5001826,11.587896 1.5001826,8.0000001 C 1.5001826,4.4120988 4.4120799,1.500182 7.9999761,1.500182 C 11.587897,1.500182 14.499818,4.4120988 14.499818,8.0000001 z"
       style="opacity:0.5;fill:none;fill-opacity:1;stroke:url(#radialGradient5510);stroke-width:1.00036526;stroke-linecap:round;stroke-linejoin:round;stroke-miterlimit:4;stroke-dasharray:none;stroke-dashoffset:0;stroke-opacity:1" />
    <path
       sodipodi:nodetypes="csssc"
       id="path6729"
       d="M 15,5.7211433 C 15,8.4811457 11.864012,10 8,10 C 4.1360116,10 1,8.4811457 1,5.7211433 C 1,2.9611411 4.1360116,2.3456465e-16 8,2.3456465e-16 C 11.864012,2.3456465e-16 15,2.9611411 15,5.7211433 z"
       style="opacity:0.5;fill:url(#radialGradient5507);fill-opacity:1;stroke:none;stroke-width:1;stroke-linecap:round;stroke-linejoin:round;stroke-miterlimit:4;stroke-dasharray:none;stroke-dashoffset:0;stroke-opacity:1" />
  </g>
</svg>
