<?xml version="1.0" encoding="UTF-8" standalone="no"?>
<!-- Created with Inkscape (http://www.inkscape.org/) -->
<svg
   xmlns:svg="http://www.w3.org/2000/svg"
   xmlns="http://www.w3.org/2000/svg"
   xmlns:xlink="http://www.w3.org/1999/xlink"
   version="1.0"
   width="48"
   height="48"
   id="svg3252">
  <defs
     id="defs3254">
    <linearGradient
       id="linearGradient8838">
      <stop
         id="stop8840"
         style="stop-color:#000000;stop-opacity:1"
         offset="0" />
      <stop
         id="stop8842"
         style="stop-color:#000000;stop-opacity:0"
         offset="1" />
    </linearGradient>
    <radialGradient
       cx="62.625"
       cy="4.625"
       r="10.625"
       fx="62.625"
       fy="4.625"
       id="radialGradient3400"
       xlink:href="#linearGradient8838"
       gradientUnits="userSpaceOnUse"
       gradientTransform="matrix(1,0,0,0.341176,0,3.047059)" />
    <linearGradient
       id="linearGradient4168">
      <stop
         id="stop4170"
         style="stop-color:#f8cd70;stop-opacity:1"
         offset="0" />
      <stop
         id="stop4172"
         style="stop-color:#cc9110;stop-opacity:1"
         offset="1" />
    </linearGradient>
    <linearGradient
       x1="20.137201"
       y1="4.4757133"
       x2="16.597107"
       y2="17.94278"
       id="linearGradient2428"
       xlink:href="#linearGradient4168"
       gradientUnits="userSpaceOnUse"
       gradientTransform="matrix(-0.6892164,-0.6892162,-0.6761527,0.6761527,55.413724,28.644755)" />
    <linearGradient
       id="linearGradient2476">
      <stop
         id="stop2478"
         style="stop-color:#bf8407;stop-opacity:1"
         offset="0" />
      <stop
         id="stop2480"
         style="stop-color:#bf8407;stop-opacity:0"
         offset="1" />
    </linearGradient>
    <linearGradient
       x1="33.686768"
       y1="35.773647"
       x2="37.039948"
       y2="29.856804"
       id="linearGradient2425"
       xlink:href="#linearGradient2476"
       gradientUnits="userSpaceOnUse"
       gradientTransform="matrix(-1.0194607,6.13533e-2,6.0190298e-2,1.0001376,45.199128,1.0170556)" />
    <linearGradient
       id="linearGradient2470">
      <stop
         id="stop2472"
         style="stop-color:#cc9110;stop-opacity:1"
         offset="0" />
      <stop
         id="stop2474"
         style="stop-color:#cc9110;stop-opacity:0"
         offset="1" />
    </linearGradient>
    <linearGradient
       x1="31.226292"
       y1="34.600941"
       x2="34.96563"
       y2="26.842505"
       id="linearGradient2423"
       xlink:href="#linearGradient2470"
       gradientUnits="userSpaceOnUse"
       gradientTransform="matrix(-1.0194607,6.13533e-2,6.0190298e-2,1.0001376,45.199128,1.0170556)" />
    <linearGradient
       id="linearGradient4873">
      <stop
         id="stop4875"
         style="stop-color:#ffffff;stop-opacity:1"
         offset="0" />
      <stop
         id="stop4877"
         style="stop-color:#ffffff;stop-opacity:0"
         offset="1" />
    </linearGradient>
    <linearGradient
       x1="32.325527"
       y1="5.0201149"
       x2="22.245434"
       y2="43.366352"
       id="linearGradient2436"
       xlink:href="#linearGradient4873"
       gradientUnits="userSpaceOnUse"
       gradientTransform="matrix(-0.6892164,-0.6892162,-0.6761527,0.6761527,55.413724,28.644755)" />
    <linearGradient
       id="linearGradient3319">
      <stop
         id="stop3321"
         style="stop-color:#ffffff;stop-opacity:0"
         offset="0" />
      <stop
         id="stop3323"
         style="stop-color:#ffffff;stop-opacity:0.27472529"
         offset="0.63129705" />
      <stop
         id="stop3325"
         style="stop-color:#ffffff;stop-opacity:0"
         offset="1" />
    </linearGradient>
    <linearGradient
       x1="28.116938"
       y1="41.67448"
       x2="39.686337"
       y2="28.50532"
       id="linearGradient2417"
       xlink:href="#linearGradient3319"
       gradientUnits="userSpaceOnUse"
       gradientTransform="matrix(-0.9729387,5.855337e-2,5.7443789e-2,0.9544973,45.081795,3.9296356)" />
  </defs>
  <g
     id="layer1">
    <path
       d="M 73.25,4.625 A 10.625,3.625 0 1 1 52,4.625 A 10.625,3.625 0 1 1 73.25,4.625 z"
       transform="matrix(-2.0703833,0,0,2.4825129,153.69732,27.519268)"
       id="path8836"
       style="opacity:0.4;fill:url(#radialGradient3400);fill-opacity:1;fill-rule:evenodd;stroke:none;stroke-width:0.99999988;stroke-linecap:butt;stroke-linejoin:round;marker:none;marker-start:none;marker-mid:none;marker-end:none;stroke-miterlimit:4;stroke-dasharray:none;stroke-dashoffset:0;stroke-opacity:1;visibility:visible;display:inline;overflow:visible" />
    <path
       d="M 23.048843,37.634209 C 25.306075,37.76593 28.766381,36.948011 30.860302,34.854092 C 34.355622,31.358772 35.17752,23.080946 30.896058,18.930439 C 29.162502,17.249907 25.045623,15.069001 22.659187,15.003265 L 22.633302,21.002672 L 10.440194,11.385055 C 10.440194,11.385055 22.633302,1.0046492 22.633302,1.0046492 L 22.661379,6.6492343 C 27.921066,6.7455016 32.902993,8.4883385 36.898027,12.398016 C 45.025194,20.35154 45.012146,33.189719 37.248047,41.131603 C 33.277536,45.193031 28.076663,47.12932 22.855268,46.98816"
       id="path3372"
       style="fill:url(#linearGradient2428);fill-opacity:1;stroke:#bf8407;stroke-width:1.00474763;stroke-linecap:butt;stroke-linejoin:round;stroke-miterlimit:4;stroke-dasharray:none;stroke-opacity:1" />
    <path
       d="M 23.762312,46.925838 C 14.277181,47.599531 3.0035789,41.00733 2.2722099,28.569902 L 11.009038,29.72163 C 11.499387,34.783657 18.766682,38.353406 23.155234,37.733496"
       id="path3453"
       style="fill:url(#linearGradient2423);fill-opacity:1;stroke:url(#linearGradient2425);stroke-width:1.00474763;stroke-linecap:butt;stroke-linejoin:miter;stroke-miterlimit:4;stroke-dasharray:none;stroke-opacity:1" />
    <path
       d="M 22.060694,38.846711 C 23.815677,38.846711 25.808999,38.942696 27.481909,37.948811 C 30.444784,36.978467 32.900668,34.689453 33.960256,31.74291 C 35.726659,27.163831 35.102679,21.298989 31.389217,17.844627 C 28.805735,15.393888 25.203962,14.396766 21.71611,14.28125 C 21.641205,15.359791 21.551208,17.398878 21.551208,18.844462 C 17.675983,15.775355 14.504261,13.313425 12.067994,11.31199 C 15.034729,9 18.913912,5.5620062 21.623238,3 C 21.623238,4.2452387 21.69359,5.6075896 21.71611,6.9244114 C 21.294369,8.4497899 23.31501,7.5383528 24.179215,7.8825728 C 29.603043,8.2763539 34.981836,10.801859 38.194775,15.287223 C 43.119347,21.689265 43.325048,31.18939 38.749493,37.831179 C 35.259542,42.987309 29.118191,46.588849 22.77861,46"
       id="path2431"
       style="opacity:0.4;fill:none;fill-opacity:1;stroke:url(#linearGradient2436);stroke-width:1.00474763;stroke-linecap:butt;stroke-linejoin:miter;stroke-miterlimit:4;stroke-dasharray:none;stroke-opacity:1" />
    <path
       d="M 21.055554,45.838626 C 15.713135,46.170989 4.1360189,40.559418 3.4083729,28.468642 L 8.9423919,26.662776 C 8.9423919,33.792594 16.104042,38.633249 22.316511,38.765122"
       id="path2557"
       style="fill:none;fill-opacity:1;stroke:url(#linearGradient2417);stroke-width:1.00474763;stroke-linecap:butt;stroke-linejoin:round;stroke-miterlimit:4;stroke-dasharray:none;stroke-opacity:1" />
    <path
       d="M 13.751634,13.915468 A 1.1787115,1.1787115 0 1 1 11.394211,13.915468 A 1.1787115,1.1787115 0 1 1 13.751634,13.915468 z"
       transform="matrix(-1.9998021,0,0,1.9998021,47.825627,-0.1835916)"
       id="path3347"
       style="fill:#d69f27;fill-opacity:1;stroke:#bf8407;stroke-width:0.50004947;stroke-linecap:round;stroke-linejoin:round;stroke-miterlimit:4;stroke-dasharray:none;stroke-dashoffset:0;stroke-opacity:1" />
  </g>
</svg>
